<svg width="105" height="105" viewBox="0 0 105 105" fill="none" xmlns="http://www.w3.org/2000/svg">
<circle cx="52.5" cy="52.5" r="52.5" fill="#6C6A65"/>
<path d="M37.3975 31.9069C33.9922 33.9122 33.3232 40.1805 34.6089 45.2893C35.6101 49.2678 37.7389 54.6046 41.3284 59.63C44.7053 64.3576 49.4165 68.5967 53.0088 71.0494C57.6218 74.1987 64.1978 76.2005 67.6031 74.1952C69.325 73.1812 71.8833 70.4108 72 69.9137C72 69.9137 70.4999 67.8135 70.1706 67.3526L65.1399 60.3095C64.7661 59.7861 62.4217 60.2645 61.2307 60.877C59.6242 61.7035 58.1447 63.9211 58.1447 63.9211C57.0431 64.499 56.1205 63.9232 54.1927 63.1176C51.8234 62.1278 49.1596 59.0524 47.0394 56.2668C45.103 53.3732 43.0967 49.9104 43.0677 47.5425C43.0438 45.6157 42.8411 44.6161 43.8715 43.9384C43.8715 43.9384 46.7049 43.6162 48.1912 42.6215C49.2928 41.8839 50.73 40.1354 50.3562 39.6119L45.3255 32.5689C44.9963 32.108 43.4961 30.0078 43.4961 30.0078C42.9485 29.9019 39.1194 30.8929 37.3975 31.9069Z" fill="#F8F3E9"/>
</svg>
