<svg width="1038" height="108" viewBox="0 0 1038 108" fill="none" xmlns="http://www.w3.org/2000/svg">
<g clip-path="url(#clip0_26_369)">
<path d="M81.0942 8.0236L73.4765 0.414002C73.0153 -0.0554355 72.2742 -0.129577 71.7223 0.232851L57.9692 9.39892C57.4751 9.34949 56.9809 9.30835 56.4951 9.30835C52.3033 9.30835 48.3667 10.939 45.4019 13.9037C41.976 17.3297 40.4937 21.9662 40.9054 26.4545L31.7312 40.2322C31.3689 40.784 31.4347 41.5087 31.9123 41.9864L39.5218 49.5959C40.0241 50.0982 40.823 50.09 41.276 49.777L55.0292 40.6111C55.515 40.6605 56.0009 40.7017 56.5033 40.7017C60.6952 40.7017 64.6317 39.0711 67.5965 36.1063C71.0307 32.6721 72.5213 28.0355 72.093 23.5473L81.2672 9.78594C81.6378 9.22592 81.5554 8.49304 81.0942 8.0236ZM40.6748 46.837L34.6713 40.8334L41.7207 30.2591C42.4866 32.4415 43.7383 34.4345 45.4019 36.098C47.0737 37.7698 49.0502 39.0134 51.2408 39.7792L40.6748 46.837ZM65.6199 34.1381C63.1904 36.5676 59.9374 37.9182 56.4951 37.9182C53.0527 37.9182 49.7996 36.5758 47.3703 34.1381C43.1537 29.9216 42.4867 23.498 45.3361 18.565L46.7278 19.9567C47.1726 20.3932 48.1196 20.5168 48.6962 19.9567C49.2479 19.4214 49.2397 18.5403 48.6962 17.9884L47.0161 16.3084C47.0984 16.1025 48.7373 14.6942 49.4785 14.2002L53.9173 18.639C54.3537 19.0754 55.2349 19.2073 55.8856 18.639C56.4539 18.1284 56.4292 17.2225 55.8856 16.6707L52.1055 12.8907C53.5056 12.3801 54.9879 12.1001 56.5115 12.1001C59.9539 12.1001 63.2069 13.4425 65.6363 15.8802C70.6517 20.9119 70.6517 29.098 65.6199 34.1381ZM71.2694 19.759C70.5035 17.5767 69.2518 15.5836 67.5882 13.9202C65.9164 12.2484 63.94 11.0048 61.7493 10.2389L72.3236 3.18948L78.3272 9.19306L71.2694 19.759Z" fill="black"/>
<path d="M62.9841 18.5073C62.4405 17.9803 61.5676 17.9803 61.024 18.5156L55.5063 24.0333C54.9627 24.5768 54.9627 25.4497 55.5063 26.0016L58.9981 29.4934C59.4923 29.9545 60.5052 29.9464 60.9664 29.4934C61.51 28.9498 61.51 28.0769 60.9664 27.5251L58.4547 25.005L62.9842 20.4755C63.5276 19.9319 63.5276 19.059 62.9841 18.5073Z" fill="black"/>
</g>
<path d="M21.4735 81L17.2615 68.4H19.1155L22.9855 80.028H22.0495L26.0635 68.4H27.7195L31.6435 80.028H30.7435L34.6675 68.4H36.3775L32.1655 81H30.2755L26.6035 70.218H27.0895L23.3995 81H21.4735ZM43.5288 81V78.984L43.4388 78.606V75.168C43.4388 74.436 43.2228 73.872 42.7908 73.476C42.3708 73.068 41.7348 72.864 40.8828 72.864C40.3188 72.864 39.7668 72.96 39.2268 73.152C38.6868 73.332 38.2308 73.578 37.8588 73.89L37.1388 72.594C37.6308 72.198 38.2188 71.898 38.9028 71.694C39.5988 71.478 40.3248 71.37 41.0808 71.37C42.3888 71.37 43.3968 71.688 44.1048 72.324C44.8128 72.96 45.1668 73.932 45.1668 75.24V81H43.5288ZM40.3968 81.108C39.6888 81.108 39.0648 80.988 38.5248 80.748C37.9968 80.508 37.5888 80.178 37.3008 79.758C37.0128 79.326 36.8688 78.84 36.8688 78.3C36.8688 77.784 36.9888 77.316 37.2288 76.896C37.4808 76.476 37.8828 76.14 38.4348 75.888C38.9988 75.636 39.7548 75.51 40.7028 75.51H43.7268V76.752H40.7748C39.9108 76.752 39.3288 76.896 39.0288 77.184C38.7288 77.472 38.5788 77.82 38.5788 78.228C38.5788 78.696 38.7648 79.074 39.1368 79.362C39.5088 79.638 40.0248 79.776 40.6848 79.776C41.3328 79.776 41.8968 79.632 42.3768 79.344C42.8688 79.056 43.2228 78.636 43.4388 78.084L43.7808 79.272C43.5528 79.836 43.1508 80.286 42.5748 80.622C41.9988 80.946 41.2728 81.108 40.3968 81.108ZM51.6406 81.108C50.6806 81.108 49.9366 80.85 49.4086 80.334C48.8806 79.818 48.6166 79.08 48.6166 78.12V69.372H50.3446V78.048C50.3446 78.564 50.4706 78.96 50.7226 79.236C50.9866 79.512 51.3586 79.65 51.8386 79.65C52.3786 79.65 52.8286 79.5 53.1886 79.2L53.7286 80.442C53.4646 80.67 53.1466 80.838 52.7746 80.946C52.4146 81.054 52.0366 81.108 51.6406 81.108ZM46.9966 72.882V71.46H53.0806V72.882H46.9966ZM59.6593 81.108C58.6873 81.108 57.8173 80.898 57.0493 80.478C56.2933 80.058 55.6993 79.482 55.2673 78.75C54.8353 78.018 54.6193 77.178 54.6193 76.23C54.6193 75.282 54.8353 74.442 55.2673 73.71C55.6993 72.978 56.2933 72.408 57.0493 72C57.8173 71.58 58.6873 71.37 59.6593 71.37C60.5233 71.37 61.2913 71.544 61.9633 71.892C62.6473 72.228 63.1753 72.732 63.5473 73.404L62.2333 74.25C61.9213 73.782 61.5373 73.44 61.0813 73.224C60.6373 72.996 60.1573 72.882 59.6413 72.882C59.0173 72.882 58.4593 73.02 57.9673 73.296C57.4753 73.572 57.0853 73.962 56.7973 74.466C56.5093 74.958 56.3653 75.546 56.3653 76.23C56.3653 76.914 56.5093 77.508 56.7973 78.012C57.0853 78.516 57.4753 78.906 57.9673 79.182C58.4593 79.458 59.0173 79.596 59.6413 79.596C60.1573 79.596 60.6373 79.488 61.0813 79.272C61.5373 79.044 61.9213 78.696 62.2333 78.228L63.5473 79.056C63.1753 79.716 62.6473 80.226 61.9633 80.586C61.2913 80.934 60.5233 81.108 59.6593 81.108ZM70.7554 71.37C71.5354 71.37 72.2194 71.52 72.8074 71.82C73.4074 72.12 73.8754 72.576 74.2114 73.188C74.5474 73.8 74.7154 74.574 74.7154 75.51V81H72.9874V75.708C72.9874 74.784 72.7594 74.088 72.3034 73.62C71.8594 73.152 71.2294 72.918 70.4134 72.918C69.8014 72.918 69.2674 73.038 68.8114 73.278C68.3554 73.518 68.0014 73.872 67.7494 74.34C67.5094 74.808 67.3894 75.39 67.3894 76.086V81H65.6614V67.644H67.3894V74.034L67.0474 73.35C67.3594 72.726 67.8394 72.24 68.4874 71.892C69.1354 71.544 69.8914 71.37 70.7554 71.37ZM82.1614 81.108C81.1414 81.108 80.2414 80.898 79.4614 80.478C78.6934 80.058 78.0934 79.482 77.6614 78.75C77.2414 78.018 77.0314 77.178 77.0314 76.23C77.0314 75.282 77.2354 74.442 77.6434 73.71C78.0634 72.978 78.6334 72.408 79.3534 72C80.0854 71.58 80.9074 71.37 81.8194 71.37C82.7434 71.37 83.5594 71.574 84.2674 71.982C84.9754 72.39 85.5274 72.966 85.9234 73.71C86.3314 74.442 86.5354 75.3 86.5354 76.284C86.5354 76.356 86.5294 76.44 86.5174 76.536C86.5174 76.632 86.5114 76.722 86.4994 76.806H78.3814V75.564H85.5994L84.8974 75.996C84.9094 75.384 84.7834 74.838 84.5194 74.358C84.2554 73.878 83.8894 73.506 83.4214 73.242C82.9654 72.966 82.4314 72.828 81.8194 72.828C81.2194 72.828 80.6854 72.966 80.2174 73.242C79.7494 73.506 79.3834 73.884 79.1194 74.376C78.8554 74.856 78.7234 75.408 78.7234 76.032V76.32C78.7234 76.956 78.8674 77.526 79.1554 78.03C79.4554 78.522 79.8694 78.906 80.3974 79.182C80.9254 79.458 81.5314 79.596 82.2154 79.596C82.7794 79.596 83.2894 79.5 83.7454 79.308C84.2134 79.116 84.6214 78.828 84.9694 78.444L85.9234 79.56C85.4914 80.064 84.9514 80.448 84.3034 80.712C83.6674 80.976 82.9534 81.108 82.1614 81.108ZM91.6709 81.108C90.8789 81.108 90.1229 81 89.4029 80.784C88.6949 80.568 88.1369 80.304 87.7289 79.992L88.4489 78.624C88.8569 78.9 89.3609 79.134 89.9609 79.326C90.5609 79.518 91.1729 79.614 91.7969 79.614C92.6009 79.614 93.1769 79.5 93.5249 79.272C93.8849 79.044 94.0649 78.726 94.0649 78.318C94.0649 78.018 93.9569 77.784 93.7409 77.616C93.5249 77.448 93.2369 77.322 92.8769 77.238C92.5289 77.154 92.1389 77.082 91.7069 77.022C91.2749 76.95 90.8429 76.866 90.4109 76.77C89.9789 76.662 89.5829 76.518 89.2229 76.338C88.8629 76.146 88.5749 75.888 88.3589 75.564C88.1429 75.228 88.0349 74.784 88.0349 74.232C88.0349 73.656 88.1969 73.152 88.5209 72.72C88.8449 72.288 89.3009 71.958 89.8889 71.73C90.4889 71.49 91.1969 71.37 92.0129 71.37C92.6369 71.37 93.2669 71.448 93.9029 71.604C94.5509 71.748 95.0789 71.958 95.4869 72.234L94.7489 73.602C94.3169 73.314 93.8669 73.116 93.3989 73.008C92.9309 72.9 92.4629 72.846 91.9949 72.846C91.2389 72.846 90.6749 72.972 90.3029 73.224C89.9309 73.464 89.7449 73.776 89.7449 74.16C89.7449 74.484 89.8529 74.736 90.0689 74.916C90.2969 75.084 90.5849 75.216 90.9329 75.312C91.2929 75.408 91.6889 75.492 92.1209 75.564C92.5529 75.624 92.9849 75.708 93.4169 75.816C93.8489 75.912 94.2389 76.05 94.5869 76.23C94.9469 76.41 95.2349 76.662 95.4509 76.986C95.6789 77.31 95.7929 77.742 95.7929 78.282C95.7929 78.858 95.6249 79.356 95.2889 79.776C94.9529 80.196 94.4789 80.526 93.8669 80.766C93.2549 80.994 92.5229 81.108 91.6709 81.108Z" fill="black"/>
<g clip-path="url(#clip1_26_369)">
<g clip-path="url(#clip2_26_369)">
<path d="M261.529 36.0721H257.01L254.368 25.1592H249.848L247.206 14.2463H235.795L233.153 25.1592H228.633L225.991 36.0721H221.471L218.1 50H232.423H236.255H246.746H250.578H264.901L261.529 36.0721ZM238.167 17.2614H244.834L246.746 25.1591H242.956H240.045H236.255L238.167 17.2614ZM242.226 28.1743L241.5 31.1726L240.775 28.1743H242.226ZM221.932 46.9849L223.844 39.0873H225.261H230.511L232.423 46.9849H221.932ZM234.339 42.0855L233.613 39.0873H235.065L234.339 42.0855ZM235.795 36.0721H232.883H229.093L231.005 28.1744H232.423H237.672L239.584 36.0721H235.795ZM236.255 46.9849L238.167 39.0873H239.584H243.417H244.834L246.746 46.9849H236.255ZM248.662 42.0855L247.936 39.0873H249.388L248.662 42.0855ZM247.206 36.0721H243.417L245.329 28.1744H250.578H251.996L253.908 36.0721H250.118H247.206ZM250.578 46.9849L252.49 39.0873H257.74H259.157L261.069 46.9849H250.578Z" fill="black"/>
<path d="M243.007 0H239.992V8.40225H243.007V0Z" fill="black"/>
<path d="M229.108 4.50789L226.976 6.63989L232.917 12.5811L235.049 10.449L229.108 4.50789Z" fill="black"/>
<path d="M230.869 17.525H222.467V20.5402H230.869V17.525Z" fill="black"/>
<path d="M260.533 17.525H252.131V20.5402H260.533V17.525Z" fill="black"/>
<path d="M253.892 4.50892L247.951 10.4501L250.083 12.5821L256.024 6.64092L253.892 4.50892Z" fill="black"/>
</g>
</g>
<path d="M227.765 81.144C226.793 81.144 225.899 80.988 225.083 80.676C224.267 80.352 223.559 79.902 222.959 79.326C222.359 78.738 221.891 78.054 221.555 77.274C221.219 76.494 221.051 75.636 221.051 74.7C221.051 73.764 221.219 72.906 221.555 72.126C221.891 71.346 222.359 70.668 222.959 70.092C223.571 69.504 224.285 69.054 225.101 68.742C225.917 68.418 226.817 68.256 227.801 68.256C228.797 68.256 229.709 68.418 230.537 68.742C231.365 69.066 232.067 69.552 232.643 70.2L231.527 71.316C231.011 70.812 230.447 70.446 229.835 70.218C229.235 69.978 228.581 69.858 227.873 69.858C227.153 69.858 226.481 69.978 225.857 70.218C225.245 70.458 224.711 70.794 224.255 71.226C223.811 71.658 223.463 72.174 223.211 72.774C222.971 73.362 222.851 74.004 222.851 74.7C222.851 75.384 222.971 76.026 223.211 76.626C223.463 77.214 223.811 77.73 224.255 78.174C224.711 78.606 225.245 78.942 225.857 79.182C226.469 79.422 227.135 79.542 227.855 79.542C228.527 79.542 229.169 79.44 229.781 79.236C230.405 79.02 230.981 78.666 231.509 78.174L232.535 79.542C231.911 80.07 231.179 80.472 230.339 80.748C229.511 81.012 228.653 81.144 227.765 81.144ZM230.807 79.308V74.628H232.535V79.542L230.807 79.308ZM239.815 81.108C238.855 81.108 238.003 80.898 237.259 80.478C236.515 80.058 235.927 79.482 235.495 78.75C235.063 78.006 234.847 77.166 234.847 76.23C234.847 75.282 235.063 74.442 235.495 73.71C235.927 72.978 236.515 72.408 237.259 72C238.003 71.58 238.855 71.37 239.815 71.37C240.763 71.37 241.609 71.58 242.353 72C243.109 72.408 243.697 72.978 244.117 73.71C244.549 74.43 244.765 75.27 244.765 76.23C244.765 77.178 244.549 78.018 244.117 78.75C243.697 79.482 243.109 80.058 242.353 80.478C241.609 80.898 240.763 81.108 239.815 81.108ZM239.815 79.596C240.427 79.596 240.973 79.458 241.453 79.182C241.945 78.906 242.329 78.516 242.605 78.012C242.881 77.496 243.019 76.902 243.019 76.23C243.019 75.546 242.881 74.958 242.605 74.466C242.329 73.962 241.945 73.572 241.453 73.296C240.973 73.02 240.427 72.882 239.815 72.882C239.203 72.882 238.657 73.02 238.177 73.296C237.697 73.572 237.313 73.962 237.025 74.466C236.737 74.958 236.593 75.546 236.593 76.23C236.593 76.902 236.737 77.496 237.025 78.012C237.313 78.516 237.697 78.906 238.177 79.182C238.657 79.458 239.203 79.596 239.815 79.596ZM247.155 81V67.644H248.883V81H247.155ZM256.124 81.108C255.2 81.108 254.372 80.904 253.64 80.496C252.92 80.088 252.35 79.518 251.93 78.786C251.51 78.054 251.3 77.202 251.3 76.23C251.3 75.258 251.51 74.412 251.93 73.692C252.35 72.96 252.92 72.39 253.64 71.982C254.372 71.574 255.2 71.37 256.124 71.37C256.928 71.37 257.654 71.55 258.302 71.91C258.95 72.27 259.466 72.81 259.85 73.53C260.246 74.25 260.444 75.15 260.444 76.23C260.444 77.31 260.252 78.21 259.868 78.93C259.496 79.65 258.986 80.196 258.338 80.568C257.69 80.928 256.952 81.108 256.124 81.108ZM256.268 79.596C256.868 79.596 257.408 79.458 257.888 79.182C258.38 78.906 258.764 78.516 259.04 78.012C259.328 77.496 259.472 76.902 259.472 76.23C259.472 75.546 259.328 74.958 259.04 74.466C258.764 73.962 258.38 73.572 257.888 73.296C257.408 73.02 256.868 72.882 256.268 72.882C255.656 72.882 255.11 73.02 254.63 73.296C254.15 73.572 253.766 73.962 253.478 74.466C253.19 74.958 253.046 75.546 253.046 76.23C253.046 76.902 253.19 77.496 253.478 78.012C253.766 78.516 254.15 78.906 254.63 79.182C255.11 79.458 255.656 79.596 256.268 79.596ZM259.526 81V78.426L259.634 76.212L259.454 73.998V67.644H261.182V81H259.526Z" fill="black"/>
<g clip-path="url(#clip3_26_369)">
<path d="M440.588 4.07178H413.412L402 17.6213L427 45.9282L452 17.6213L440.588 4.07178ZM446.942 16.1412H437.862L440.462 8.44717L446.942 16.1412ZM437.879 6.98672L435.349 14.4723L429.872 6.98672H437.879ZM432.958 16.1412H421.042L427 7.99736L432.958 16.1412ZM424.128 6.98672L418.651 14.4722L416.121 6.98672H424.128ZM413.538 8.44717L416.138 16.1412H407.058L413.538 8.44717ZM407.156 19.0561H417.124L423.302 37.338L407.156 19.0561ZM427 39.1747L420.2 19.0561H433.8L427 39.1747ZM430.697 37.3381L436.876 19.0561H446.844L430.697 37.3381Z" fill="black"/>
</g>
<path d="M381.07 81V68.4H386.38C387.724 68.4 388.906 68.664 389.926 69.192C390.958 69.72 391.756 70.458 392.32 71.406C392.896 72.354 393.184 73.452 393.184 74.7C393.184 75.948 392.896 77.046 392.32 77.994C391.756 78.942 390.958 79.68 389.926 80.208C388.906 80.736 387.724 81 386.38 81H381.07ZM382.87 79.434H386.272C387.316 79.434 388.216 79.236 388.972 78.84C389.74 78.444 390.334 77.892 390.754 77.184C391.174 76.464 391.384 75.636 391.384 74.7C391.384 73.752 391.174 72.924 390.754 72.216C390.334 71.508 389.74 70.956 388.972 70.56C388.216 70.164 387.316 69.966 386.272 69.966H382.87V79.434ZM395.689 81V71.46H397.417V81H395.689ZM396.553 69.624C396.217 69.624 395.935 69.516 395.707 69.3C395.491 69.084 395.383 68.82 395.383 68.508C395.383 68.184 395.491 67.914 395.707 67.698C395.935 67.482 396.217 67.374 396.553 67.374C396.889 67.374 397.165 67.482 397.381 67.698C397.609 67.902 397.723 68.16 397.723 68.472C397.723 68.796 397.615 69.072 397.399 69.3C397.183 69.516 396.901 69.624 396.553 69.624ZM406.638 81V78.984L406.548 78.606V75.168C406.548 74.436 406.332 73.872 405.9 73.476C405.48 73.068 404.844 72.864 403.992 72.864C403.428 72.864 402.876 72.96 402.336 73.152C401.796 73.332 401.34 73.578 400.968 73.89L400.248 72.594C400.74 72.198 401.328 71.898 402.012 71.694C402.708 71.478 403.434 71.37 404.19 71.37C405.498 71.37 406.506 71.688 407.214 72.324C407.922 72.96 408.276 73.932 408.276 75.24V81H406.638ZM403.506 81.108C402.798 81.108 402.174 80.988 401.634 80.748C401.106 80.508 400.698 80.178 400.41 79.758C400.122 79.326 399.978 78.84 399.978 78.3C399.978 77.784 400.098 77.316 400.338 76.896C400.59 76.476 400.992 76.14 401.544 75.888C402.108 75.636 402.864 75.51 403.812 75.51H406.836V76.752H403.884C403.02 76.752 402.438 76.896 402.138 77.184C401.838 77.472 401.688 77.82 401.688 78.228C401.688 78.696 401.874 79.074 402.246 79.362C402.618 79.638 403.134 79.776 403.794 79.776C404.442 79.776 405.006 79.632 405.486 79.344C405.978 79.056 406.332 78.636 406.548 78.084L406.89 79.272C406.662 79.836 406.26 80.286 405.684 80.622C405.108 80.946 404.382 81.108 403.506 81.108ZM423.408 71.37C424.176 71.37 424.854 71.52 425.442 71.82C426.03 72.12 426.486 72.576 426.81 73.188C427.146 73.8 427.314 74.574 427.314 75.51V81H425.586V75.708C425.586 74.784 425.37 74.088 424.938 73.62C424.506 73.152 423.9 72.918 423.12 72.918C422.544 72.918 422.04 73.038 421.608 73.278C421.176 73.518 420.84 73.872 420.6 74.34C420.372 74.808 420.258 75.39 420.258 76.086V81H418.53V75.708C418.53 74.784 418.314 74.088 417.882 73.62C417.462 73.152 416.856 72.918 416.064 72.918C415.5 72.918 415.002 73.038 414.57 73.278C414.138 73.518 413.802 73.872 413.562 74.34C413.322 74.808 413.202 75.39 413.202 76.086V81H411.474V71.46H413.13V73.998L412.86 73.35C413.16 72.726 413.622 72.24 414.246 71.892C414.87 71.544 415.596 71.37 416.424 71.37C417.336 71.37 418.122 71.598 418.782 72.054C419.442 72.498 419.874 73.176 420.078 74.088L419.376 73.8C419.664 73.068 420.168 72.48 420.888 72.036C421.608 71.592 422.448 71.37 423.408 71.37ZM434.579 81.108C433.619 81.108 432.767 80.898 432.023 80.478C431.279 80.058 430.691 79.482 430.259 78.75C429.827 78.006 429.611 77.166 429.611 76.23C429.611 75.282 429.827 74.442 430.259 73.71C430.691 72.978 431.279 72.408 432.023 72C432.767 71.58 433.619 71.37 434.579 71.37C435.527 71.37 436.373 71.58 437.117 72C437.873 72.408 438.461 72.978 438.881 73.71C439.313 74.43 439.529 75.27 439.529 76.23C439.529 77.178 439.313 78.018 438.881 78.75C438.461 79.482 437.873 80.058 437.117 80.478C436.373 80.898 435.527 81.108 434.579 81.108ZM434.579 79.596C435.191 79.596 435.737 79.458 436.217 79.182C436.709 78.906 437.093 78.516 437.369 78.012C437.645 77.496 437.783 76.902 437.783 76.23C437.783 75.546 437.645 74.958 437.369 74.466C437.093 73.962 436.709 73.572 436.217 73.296C435.737 73.02 435.191 72.882 434.579 72.882C433.967 72.882 433.421 73.02 432.941 73.296C432.461 73.572 432.077 73.962 431.789 74.466C431.501 74.958 431.357 75.546 431.357 76.23C431.357 76.902 431.501 77.496 431.789 78.012C432.077 78.516 432.461 78.906 432.941 79.182C433.421 79.458 433.967 79.596 434.579 79.596ZM447.013 71.37C447.793 71.37 448.477 71.52 449.065 71.82C449.665 72.12 450.133 72.576 450.469 73.188C450.805 73.8 450.973 74.574 450.973 75.51V81H449.245V75.708C449.245 74.784 449.017 74.088 448.561 73.62C448.117 73.152 447.487 72.918 446.671 72.918C446.059 72.918 445.525 73.038 445.069 73.278C444.613 73.518 444.259 73.872 444.007 74.34C443.767 74.808 443.647 75.39 443.647 76.086V81H441.919V71.46H443.575V74.034L443.305 73.35C443.617 72.726 444.097 72.24 444.745 71.892C445.393 71.544 446.149 71.37 447.013 71.37ZM458.113 81.108C457.189 81.108 456.361 80.904 455.629 80.496C454.909 80.088 454.339 79.518 453.919 78.786C453.499 78.054 453.289 77.202 453.289 76.23C453.289 75.258 453.499 74.412 453.919 73.692C454.339 72.96 454.909 72.39 455.629 71.982C456.361 71.574 457.189 71.37 458.113 71.37C458.917 71.37 459.643 71.55 460.291 71.91C460.939 72.27 461.455 72.81 461.839 73.53C462.235 74.25 462.433 75.15 462.433 76.23C462.433 77.31 462.241 78.21 461.857 78.93C461.485 79.65 460.975 80.196 460.327 80.568C459.679 80.928 458.941 81.108 458.113 81.108ZM458.257 79.596C458.857 79.596 459.397 79.458 459.877 79.182C460.369 78.906 460.753 78.516 461.029 78.012C461.317 77.496 461.461 76.902 461.461 76.23C461.461 75.546 461.317 74.958 461.029 74.466C460.753 73.962 460.369 73.572 459.877 73.296C459.397 73.02 458.857 72.882 458.257 72.882C457.645 72.882 457.099 73.02 456.619 73.296C456.139 73.572 455.755 73.962 455.467 74.466C455.179 74.958 455.035 75.546 455.035 76.23C455.035 76.902 455.179 77.496 455.467 78.012C455.755 78.516 456.139 78.906 456.619 79.182C457.099 79.458 457.645 79.596 458.257 79.596ZM461.515 81V78.426L461.623 76.212L461.443 73.998V67.644H463.171V81H461.515ZM469.177 81.108C468.385 81.108 467.629 81 466.909 80.784C466.201 80.568 465.643 80.304 465.235 79.992L465.955 78.624C466.363 78.9 466.867 79.134 467.467 79.326C468.067 79.518 468.679 79.614 469.303 79.614C470.107 79.614 470.683 79.5 471.031 79.272C471.391 79.044 471.571 78.726 471.571 78.318C471.571 78.018 471.463 77.784 471.247 77.616C471.031 77.448 470.743 77.322 470.383 77.238C470.035 77.154 469.645 77.082 469.213 77.022C468.781 76.95 468.349 76.866 467.917 76.77C467.485 76.662 467.089 76.518 466.729 76.338C466.369 76.146 466.081 75.888 465.865 75.564C465.649 75.228 465.541 74.784 465.541 74.232C465.541 73.656 465.703 73.152 466.027 72.72C466.351 72.288 466.807 71.958 467.395 71.73C467.995 71.49 468.703 71.37 469.519 71.37C470.143 71.37 470.773 71.448 471.409 71.604C472.057 71.748 472.585 71.958 472.993 72.234L472.255 73.602C471.823 73.314 471.373 73.116 470.905 73.008C470.437 72.9 469.969 72.846 469.501 72.846C468.745 72.846 468.181 72.972 467.809 73.224C467.437 73.464 467.251 73.776 467.251 74.16C467.251 74.484 467.359 74.736 467.575 74.916C467.803 75.084 468.091 75.216 468.439 75.312C468.799 75.408 469.195 75.492 469.627 75.564C470.059 75.624 470.491 75.708 470.923 75.816C471.355 75.912 471.745 76.05 472.093 76.23C472.453 76.41 472.741 76.662 472.957 76.986C473.185 77.31 473.299 77.742 473.299 78.282C473.299 78.858 473.131 79.356 472.795 79.776C472.459 80.196 471.985 80.526 471.373 80.766C470.761 80.994 470.029 81.108 469.177 81.108Z" fill="black"/>
<g clip-path="url(#clip4_26_369)">
<g clip-path="url(#clip5_26_369)">
<path d="M605.127 30.0637L604.091 27.2177C603.144 24.6111 600.866 22.8363 598.169 22.5315V5.83209C598.169 5.37191 597.796 4.99898 597.336 4.99898C596.416 4.99898 595.67 4.25302 595.67 3.33265C595.67 2.41229 596.416 1.66633 597.336 1.66633C598.256 1.66633 599.002 2.41219 599.002 3.33265C599.002 6.10745 599.627 8.33163 601.502 8.33163C601.962 8.33163 602.335 7.9586 602.335 7.49852C602.335 7.03833 601.962 6.6654 601.502 6.6654C601.111 6.6654 600.669 5.0902 600.669 3.33275C600.668 1.49192 599.177 0 597.336 0C595.495 0 594.003 1.49192 594.003 3.33265C594.003 4.88562 595.065 6.19043 596.503 6.56028V22.5315C593.805 22.8365 591.528 24.6111 590.581 27.2172L589.547 30.056C589.161 31.1207 588.775 31.9744 587.818 33.9584L587.568 34.4778C586.64 36.4125 586.311 38.5709 586.615 40.7176C587.296 45.5074 591.27 49.3696 596.08 49.9182C596.494 49.9656 596.917 49.9894 597.336 49.9894C600.228 49.9894 602.951 48.8615 604.995 46.8166C607.039 44.7724 608.167 42.0492 608.167 39.1583C608.167 37.4551 607.76 35.7565 606.987 34.2421C606.179 32.6599 605.589 31.3325 605.127 30.0637ZM603.817 45.6386C602.085 47.3708 599.786 48.3232 597.336 48.3232C596.98 48.3232 596.621 48.3029 596.27 48.2627C592.212 47.7999 588.839 44.5217 588.265 40.4834C588.007 38.6617 588.285 36.8358 589.07 35.1998L589.32 34.6818C590.301 32.6467 590.702 31.7602 591.113 30.6254L592.147 27.7869C592.951 25.5743 594.983 24.1509 597.336 24.1509C599.689 24.1509 601.721 25.5746 602.525 27.7873L603.561 30.6336C604.048 31.9713 604.665 33.3601 605.502 34.9999C606.155 36.2795 606.501 37.7185 606.501 39.1585C606.501 41.6073 605.548 43.9066 603.817 45.6386Z" fill="black"/>
<path d="M601.995 31.2026L600.959 28.3558C599.73 24.9711 594.944 24.9711 593.713 28.3559L592.68 31.1951C592.254 32.3653 591.824 33.3218 590.866 35.3116C590.841 35.3624 590.841 35.3624 590.817 35.4132C590.694 35.6671 590.641 35.7791 590.572 35.9219C589.936 37.2474 589.701 38.7367 589.915 40.2491C590.388 43.5725 593.121 46.2268 596.459 46.6064C600.951 47.1188 604.835 43.6294 604.835 39.1583C604.835 37.9618 604.553 36.8038 604.02 35.7582C603.178 34.1106 602.519 32.6419 601.995 31.2026ZM596.647 44.9509C594.063 44.657 591.93 42.5863 591.565 40.0151C591.397 38.8308 591.58 37.6733 592.074 36.6429C592.143 36.5009 592.196 36.3899 592.318 36.1363C592.343 36.0855 592.343 36.0855 592.367 36.0346C593.349 33.9957 593.795 33.0037 594.246 31.7648L595.279 28.9256C595.978 27.0032 598.695 27.0032 599.393 28.9252L600.429 31.7725C600.979 33.2829 601.665 34.8122 602.535 36.5158C602.949 37.3279 603.168 38.2269 603.168 39.1586C603.168 42.637 600.148 45.3502 596.647 44.9509Z" fill="black"/>
<path d="M635.314 34.2528C634.504 32.6657 633.914 31.3394 633.454 30.0748L632.419 27.2282C631.471 24.6217 629.193 22.8468 626.496 22.542V5.83209C626.496 5.37191 626.123 4.99898 625.663 4.99898C624.743 4.99898 623.997 4.25302 623.997 3.33265C623.997 2.41229 624.743 1.66633 625.663 1.66633C626.584 1.66633 627.33 2.41219 627.33 3.33265C627.33 6.10745 627.954 8.33163 629.829 8.33163C630.289 8.33163 630.662 7.9586 630.662 7.49852C630.662 7.03833 630.289 6.6654 629.829 6.6654C629.438 6.6654 628.996 5.0902 628.996 3.33275C628.996 1.49192 627.504 0 625.663 0C623.823 0 622.331 1.49192 622.331 3.33265C622.331 4.88562 623.393 6.19043 624.83 6.56028V22.542C622.133 22.847 619.855 24.6217 618.908 27.2277L617.875 30.0665C617.488 31.1312 617.102 31.9849 616.146 33.9689L615.896 34.4883C614.967 36.423 614.638 38.5813 614.942 40.7281C615.623 45.5178 619.597 49.38 624.408 49.9286C624.822 49.976 625.244 49.9998 625.663 49.9998C628.555 49.9998 631.278 48.8719 633.322 46.8271C635.366 44.7828 636.495 42.0597 636.495 39.1687C636.495 37.4657 636.087 35.7671 635.314 34.2528ZM632.144 45.6492C630.412 47.3814 628.113 48.3338 625.664 48.3338C625.307 48.3338 624.948 48.3135 624.597 48.2733C620.539 47.8105 617.166 44.5323 616.592 40.494C616.334 38.6723 616.612 36.8464 617.397 35.2104L617.647 34.6924C618.628 32.6573 619.029 31.7709 619.441 30.636L620.474 27.7975C621.278 25.5849 623.31 24.1615 625.663 24.1615C628.017 24.1615 630.048 25.5851 630.853 27.7979L631.888 30.6442C632.373 31.9778 632.99 33.3657 633.83 35.0105C634.483 36.2901 634.828 37.7291 634.828 39.1691C634.828 41.6179 633.876 43.9173 632.144 45.6492Z" fill="black"/>
<path d="M630.322 31.2131L629.286 28.3663C628.057 24.9816 623.271 24.9816 622.04 28.3664L621.007 31.2056C620.581 32.3758 620.151 33.3323 619.193 35.3221C619.168 35.3729 619.168 35.3729 619.144 35.4237C619.022 35.6776 618.968 35.7896 618.899 35.9324C618.263 37.2579 618.028 38.7472 618.242 40.2596C618.715 43.583 621.448 46.2373 624.786 46.6169C629.278 47.1293 633.162 43.6399 633.162 39.1688C633.162 37.9723 632.88 36.8143 632.347 35.7686C631.505 34.1212 630.846 32.6524 630.322 31.2131ZM624.975 44.9614C622.39 44.6675 620.258 42.5968 619.892 40.0256C619.724 38.8413 619.907 37.6838 620.402 36.6534C620.47 36.5114 620.523 36.4004 620.645 36.1468C620.67 36.096 620.67 36.096 620.694 36.0451C621.676 34.0062 622.123 33.0142 622.573 31.7753L623.606 28.9361C624.305 27.0137 627.022 27.0137 627.72 28.9357L628.756 31.7829C629.306 33.2934 629.992 34.8227 630.863 36.5263C631.277 37.3384 631.495 38.2374 631.495 39.1691C631.495 42.6476 628.475 45.3607 624.975 44.9614Z" fill="black"/>
</g>
</g>
<path d="M592.347 81.144C591.387 81.144 590.469 81 589.593 80.712C588.717 80.412 588.027 80.028 587.523 79.56L588.189 78.156C588.669 78.576 589.281 78.924 590.025 79.2C590.769 79.476 591.543 79.614 592.347 79.614C593.079 79.614 593.673 79.53 594.129 79.362C594.585 79.194 594.921 78.966 595.137 78.678C595.353 78.378 595.461 78.042 595.461 77.67C595.461 77.238 595.317 76.89 595.029 76.626C594.753 76.362 594.387 76.152 593.931 75.996C593.487 75.828 592.995 75.684 592.455 75.564C591.915 75.444 591.369 75.306 590.817 75.15C590.277 74.982 589.779 74.772 589.323 74.52C588.879 74.268 588.519 73.932 588.243 73.512C587.967 73.08 587.829 72.528 587.829 71.856C587.829 71.208 587.997 70.614 588.333 70.074C588.681 69.522 589.209 69.084 589.917 68.76C590.637 68.424 591.549 68.256 592.653 68.256C593.385 68.256 594.111 68.352 594.831 68.544C595.551 68.736 596.175 69.012 596.703 69.372L596.109 70.812C595.569 70.452 594.999 70.194 594.399 70.038C593.799 69.87 593.217 69.786 592.653 69.786C591.945 69.786 591.363 69.876 590.907 70.056C590.451 70.236 590.115 70.476 589.899 70.776C589.695 71.076 589.593 71.412 589.593 71.784C589.593 72.228 589.731 72.582 590.007 72.846C590.295 73.11 590.661 73.32 591.105 73.476C591.561 73.632 592.059 73.776 592.599 73.908C593.139 74.028 593.679 74.166 594.219 74.322C594.771 74.478 595.269 74.682 595.713 74.934C596.169 75.186 596.535 75.522 596.811 75.942C597.087 76.362 597.225 76.902 597.225 77.562C597.225 78.198 597.051 78.792 596.703 79.344C596.355 79.884 595.815 80.322 595.083 80.658C594.363 80.982 593.451 81.144 592.347 81.144ZM599.603 81V71.46H601.331V81H599.603ZM600.467 69.624C600.131 69.624 599.849 69.516 599.621 69.3C599.405 69.084 599.297 68.82 599.297 68.508C599.297 68.184 599.405 67.914 599.621 67.698C599.849 67.482 600.131 67.374 600.467 67.374C600.803 67.374 601.079 67.482 601.295 67.698C601.523 67.902 601.637 68.16 601.637 68.472C601.637 68.796 601.529 69.072 601.313 69.3C601.097 69.516 600.815 69.624 600.467 69.624ZM604.63 81V67.644H606.358V81H604.63ZM612.16 81L607.984 71.46H609.784L613.492 80.1H612.628L616.408 71.46H618.1L613.924 81H612.16ZM623.697 81.108C622.677 81.108 621.777 80.898 620.997 80.478C620.229 80.058 619.629 79.482 619.197 78.75C618.777 78.018 618.567 77.178 618.567 76.23C618.567 75.282 618.771 74.442 619.179 73.71C619.599 72.978 620.169 72.408 620.889 72C621.621 71.58 622.443 71.37 623.355 71.37C624.279 71.37 625.095 71.574 625.803 71.982C626.511 72.39 627.063 72.966 627.459 73.71C627.867 74.442 628.071 75.3 628.071 76.284C628.071 76.356 628.065 76.44 628.053 76.536C628.053 76.632 628.047 76.722 628.035 76.806H619.917V75.564H627.135L626.433 75.996C626.445 75.384 626.319 74.838 626.055 74.358C625.791 73.878 625.425 73.506 624.957 73.242C624.501 72.966 623.967 72.828 623.355 72.828C622.755 72.828 622.221 72.966 621.753 73.242C621.285 73.506 620.919 73.884 620.655 74.376C620.391 74.856 620.259 75.408 620.259 76.032V76.32C620.259 76.956 620.403 77.526 620.691 78.03C620.991 78.522 621.405 78.906 621.933 79.182C622.461 79.458 623.067 79.596 623.751 79.596C624.315 79.596 624.825 79.5 625.281 79.308C625.749 79.116 626.157 78.828 626.505 78.444L627.459 79.56C627.027 80.064 626.487 80.448 625.839 80.712C625.203 80.976 624.489 81.108 623.697 81.108ZM630.47 81V71.46H632.126V74.052L631.964 73.404C632.228 72.744 632.672 72.24 633.296 71.892C633.92 71.544 634.688 71.37 635.6 71.37V73.044C635.528 73.032 635.456 73.026 635.384 73.026C635.324 73.026 635.264 73.026 635.204 73.026C634.28 73.026 633.548 73.302 633.008 73.854C632.468 74.406 632.198 75.204 632.198 76.248V81H630.47Z" fill="black"/>
<g clip-path="url(#clip6_26_369)">
<g clip-path="url(#clip7_26_369)">
<path d="M804.757 18.2779L809.495 19.9793C809.602 20.0179 809.712 20.0362 809.82 20.0362C810.215 20.0362 810.586 19.7912 810.727 19.398L811.872 16.2093C811.959 15.9687 811.946 15.7037 811.837 15.4727C811.728 15.2415 811.532 15.0631 811.291 14.9767L806.554 13.2754C806.052 13.0952 805.501 13.3558 805.321 13.8566L804.176 17.0453C804.089 17.2859 804.102 17.5509 804.211 17.782C804.32 18.0131 804.516 18.1915 804.757 18.2779ZM806.809 15.4149L809.733 16.4648L809.239 17.8396L806.315 16.7897L806.809 15.4149Z" fill="black"/>
<path d="M783.286 43.6131C783.844 43.6131 784.296 43.1608 784.296 42.6028C784.296 42.0448 783.844 41.5924 783.286 41.5924C782.728 41.5924 782.275 42.0448 782.275 42.6028C782.275 43.1608 782.728 43.6131 783.286 43.6131Z" fill="black"/>
<path d="M804.423 26.59L804.692 26.3218C805.956 25.0571 807.433 24.0643 809.082 23.3709L815.398 20.7142C815.398 20.7142 817.113 19.9745 817.497 19.7574C818.01 19.4665 818.519 19.0659 819.052 18.5325C822.173 15.4118 822.329 10.3799 819.409 7.07685C819.184 6.82308 818.843 6.70551 818.51 6.76783C818.177 6.82993 817.901 7.06229 817.783 7.37987L815.482 13.5802L813.764 12.9444L816.184 6.35752C816.301 6.0395 816.243 5.68358 816.03 5.41996C815.817 5.15634 815.482 5.02368 815.146 5.0709C811.888 5.52789 809.241 7.83152 808.306 10.9239L804.331 9.45232C804.064 9.3536 803.767 9.3778 803.52 9.51828C803.273 9.65887 803.1 9.9014 803.049 10.181L802.134 15.1312C801.706 17.4477 800.704 19.5843 799.217 21.3826L790.756 12.9231L791.358 12.3215C791.734 11.9451 791.734 11.335 791.358 10.9587L790.722 10.323C792.66 7.94405 795.139 7.8267 796.942 8.18401C797.339 8.26293 797.744 8.08443 797.953 7.73751C798.163 7.39069 798.134 6.94975 797.879 6.63409C797.028 5.57801 795.97 4.75481 794.734 4.18774C791.745 2.81471 788.22 3.26699 785.675 5.27573L785.149 4.74956C784.772 4.37319 784.162 4.37319 783.786 4.74956L777.934 10.6012C777.561 10.9749 777.558 11.5798 777.928 11.9572C778.261 12.2976 778.103 13.0468 777.59 13.5606C777.076 14.0743 776.327 14.2324 775.986 13.8987C775.609 13.5287 775.004 13.5318 774.63 13.9055L771.782 16.7533C771.406 17.1296 771.406 17.7398 771.782 18.1161L777.991 24.3252C778.18 24.5134 778.426 24.6075 778.673 24.6075C778.919 24.6075 779.166 24.5134 779.354 24.3252L782.202 21.4773C782.575 21.1048 782.579 20.5022 782.212 20.1243C781.881 19.7835 782.04 19.0353 782.552 18.5229C783.064 18.0107 783.813 17.8515 784.153 18.1827C784.531 18.55 785.134 18.5456 785.506 18.1731L786.038 17.641L794.544 26.1464L780.57 40.12C779.881 40.8094 779.501 41.726 779.501 42.701C779.501 43.6759 779.881 44.5925 780.57 45.2818C781.281 45.9935 782.216 46.3492 783.151 46.3492C784.085 46.3492 785.02 45.9934 785.732 45.2818L799.705 31.3082L814.717 46.3196C814.905 46.5077 815.152 46.6019 815.398 46.6019C815.645 46.6019 815.891 46.5077 816.08 46.3196L819.435 42.9639C819.616 42.7831 819.718 42.538 819.718 42.2824C819.718 42.0268 819.616 41.7817 819.435 41.601L804.423 26.59ZM813.728 7.45547L811.957 12.2753L810.12 11.5952C810.648 9.72611 811.983 8.21699 813.728 7.45547ZM793.93 5.93928C794.084 6.01027 794.235 6.0864 794.383 6.16756C792.425 6.41448 790.708 7.36274 789.355 8.95538L787.05 6.65058C789.017 5.20217 791.669 4.90097 793.93 5.93928ZM784.468 6.79374L789.314 11.64L784.928 16.0256L780.082 11.1793L784.468 6.79374ZM778.673 22.2809L773.827 17.4347L775.312 15.9497L780.158 20.7959L778.673 22.2809ZM781.189 17.16C780.841 17.5081 780.577 17.9002 780.396 18.3084L777.804 15.7168C778.212 15.5354 778.604 15.2716 778.952 14.9233C779.341 14.534 779.627 14.0907 779.808 13.6307L782.482 16.3053C782.022 16.4856 781.578 16.7709 781.189 17.16ZM787.401 16.2782L789.394 14.2857L797.899 22.7906L795.906 24.7835L787.401 16.2782ZM784.369 43.919C784.043 44.2444 783.611 44.4235 783.151 44.4235C782.691 44.4235 782.258 44.2444 781.933 43.919C781.261 43.2473 781.261 42.1545 781.933 41.4829L799.699 23.7162C801.953 21.4628 803.45 18.6151 804.029 15.4813L804.736 11.6573L815.716 15.722C816.214 15.9067 816.768 15.6522 816.954 15.1536L818.936 9.81274C820.098 12.22 819.666 15.193 817.689 17.1698C817.28 17.5785 816.906 17.8764 816.546 18.0806C816.322 18.2075 814.528 18.9893 814.528 18.9893L808.335 21.5943C806.455 22.3849 804.771 23.5169 803.329 24.9589L784.369 43.919ZM815.398 44.2753L801.068 29.9453L803.061 27.9529L817.391 42.2825L815.398 44.2753Z" fill="black"/>
</g>
</g>
<path d="M777.654 81V69.966H773.334V68.4H783.756V69.966H779.436V81H777.654ZM788.566 81.108C787.606 81.108 786.754 80.898 786.01 80.478C785.266 80.058 784.678 79.482 784.246 78.75C783.814 78.006 783.598 77.166 783.598 76.23C783.598 75.282 783.814 74.442 784.246 73.71C784.678 72.978 785.266 72.408 786.01 72C786.754 71.58 787.606 71.37 788.566 71.37C789.514 71.37 790.36 71.58 791.104 72C791.86 72.408 792.448 72.978 792.868 73.71C793.3 74.43 793.516 75.27 793.516 76.23C793.516 77.178 793.3 78.018 792.868 78.75C792.448 79.482 791.86 80.058 791.104 80.478C790.36 80.898 789.514 81.108 788.566 81.108ZM788.566 79.596C789.178 79.596 789.724 79.458 790.204 79.182C790.696 78.906 791.08 78.516 791.356 78.012C791.632 77.496 791.77 76.902 791.77 76.23C791.77 75.546 791.632 74.958 791.356 74.466C791.08 73.962 790.696 73.572 790.204 73.296C789.724 73.02 789.178 72.882 788.566 72.882C787.954 72.882 787.408 73.02 786.928 73.296C786.448 73.572 786.064 73.962 785.776 74.466C785.488 74.958 785.344 75.546 785.344 76.23C785.344 76.902 785.488 77.496 785.776 78.012C786.064 78.516 786.448 78.906 786.928 79.182C787.408 79.458 787.954 79.596 788.566 79.596ZM799.992 81.108C799.032 81.108 798.18 80.898 797.436 80.478C796.692 80.058 796.104 79.482 795.672 78.75C795.24 78.006 795.024 77.166 795.024 76.23C795.024 75.282 795.24 74.442 795.672 73.71C796.104 72.978 796.692 72.408 797.436 72C798.18 71.58 799.032 71.37 799.992 71.37C800.94 71.37 801.786 71.58 802.53 72C803.286 72.408 803.874 72.978 804.294 73.71C804.726 74.43 804.942 75.27 804.942 76.23C804.942 77.178 804.726 78.018 804.294 78.75C803.874 79.482 803.286 80.058 802.53 80.478C801.786 80.898 800.94 81.108 799.992 81.108ZM799.992 79.596C800.604 79.596 801.15 79.458 801.63 79.182C802.122 78.906 802.506 78.516 802.782 78.012C803.058 77.496 803.196 76.902 803.196 76.23C803.196 75.546 803.058 74.958 802.782 74.466C802.506 73.962 802.122 73.572 801.63 73.296C801.15 73.02 800.604 72.882 799.992 72.882C799.38 72.882 798.834 73.02 798.354 73.296C797.874 73.572 797.49 73.962 797.202 74.466C796.914 74.958 796.77 75.546 796.77 76.23C796.77 76.902 796.914 77.496 797.202 78.012C797.49 78.516 797.874 78.906 798.354 79.182C798.834 79.458 799.38 79.596 799.992 79.596ZM807.331 81V67.644H809.059V81H807.331ZM815.095 81.108C814.303 81.108 813.547 81 812.827 80.784C812.119 80.568 811.561 80.304 811.153 79.992L811.873 78.624C812.281 78.9 812.785 79.134 813.385 79.326C813.985 79.518 814.597 79.614 815.221 79.614C816.025 79.614 816.601 79.5 816.949 79.272C817.309 79.044 817.489 78.726 817.489 78.318C817.489 78.018 817.381 77.784 817.165 77.616C816.949 77.448 816.661 77.322 816.301 77.238C815.953 77.154 815.563 77.082 815.131 77.022C814.699 76.95 814.267 76.866 813.835 76.77C813.403 76.662 813.007 76.518 812.647 76.338C812.287 76.146 811.999 75.888 811.783 75.564C811.567 75.228 811.459 74.784 811.459 74.232C811.459 73.656 811.621 73.152 811.945 72.72C812.269 72.288 812.725 71.958 813.313 71.73C813.913 71.49 814.621 71.37 815.437 71.37C816.061 71.37 816.691 71.448 817.327 71.604C817.975 71.748 818.503 71.958 818.911 72.234L818.173 73.602C817.741 73.314 817.291 73.116 816.823 73.008C816.355 72.9 815.887 72.846 815.419 72.846C814.663 72.846 814.099 72.972 813.727 73.224C813.355 73.464 813.169 73.776 813.169 74.16C813.169 74.484 813.277 74.736 813.493 74.916C813.721 75.084 814.009 75.216 814.357 75.312C814.717 75.408 815.113 75.492 815.545 75.564C815.977 75.624 816.409 75.708 816.841 75.816C817.273 75.912 817.663 76.05 818.011 76.23C818.371 76.41 818.659 76.662 818.875 76.986C819.103 77.31 819.217 77.742 819.217 78.282C819.217 78.858 819.049 79.356 818.713 79.776C818.377 80.196 817.903 80.526 817.291 80.766C816.679 80.994 815.947 81.108 815.095 81.108Z" fill="black"/>
<g clip-path="url(#clip8_26_369)">
<path d="M1006.19 4.71837L1001.78 0.304981C1001.37 -0.10166 1000.72 -0.10166 1000.31 0.304981L994.424 6.18937C994.228 6.38488 994.119 6.64982 994.119 6.92599C994.119 7.20187 994.228 7.46613 994.423 7.66144L984.268 17.8165C982.79 16.9063 981.249 16.3983 979.768 16.3415C977.857 16.2683 976.128 16.9464 974.772 18.3028C973.779 19.2958 973.016 20.1443 972.441 20.8965C971.331 22.3476 971.09 22.398 970.138 22.398C966.555 22.398 963.148 23.8331 960.542 26.4389C957.936 29.0461 956.5 32.5118 956.5 36.1984C956.5 39.8849 957.936 43.3508 960.542 45.9574C963.149 48.5642 966.615 50 970.301 50C970.509 50 970.715 49.9947 970.921 49.9857C970.974 49.994 971.028 49.9996 971.083 49.9996L991.917 50C992.492 50 992.958 49.5337 992.958 48.9583C992.958 48.3832 992.492 47.9166 991.917 47.9166L977.601 47.9164C978.482 47.3652 979.307 46.7105 980.06 45.9573C982.667 43.3515 984.102 39.9437 984.101 36.3622C984.101 35.4094 984.152 35.1689 985.603 34.0588C986.357 33.482 987.206 32.7195 988.197 31.7282C989.553 30.3719 990.231 28.6445 990.158 26.732C990.101 25.2508 989.593 23.7101 988.683 22.2323L998.838 12.0775C999.033 12.2719 999.298 12.3814 999.574 12.3814C999.85 12.3814 1000.11 12.2717 1000.31 12.0764L1006.19 6.19161C1006.39 5.99611 1006.5 5.73116 1006.5 5.45489C1006.5 5.17853 1006.39 4.91368 1006.19 4.71837ZM986.724 30.2549C985.798 31.1806 985.017 31.8839 984.337 32.4043C982.626 33.7136 982.018 34.5084 982.018 36.3622C982.018 39.3875 980.8 42.2718 978.587 44.4842C976.374 46.6978 973.431 47.9166 970.301 47.9166C967.172 47.9166 964.229 46.6978 962.016 44.4842C959.802 42.2711 958.583 39.3283 958.583 36.1984C958.583 33.0683 959.802 30.1257 962.016 27.9125C964.228 25.7001 967.112 24.4816 970.138 24.4816C971.991 24.4816 972.786 23.8741 974.096 22.1626C974.615 21.4841 975.318 20.7035 976.245 19.7759C977.907 18.1141 980.28 17.9742 982.747 19.337L970.518 31.5662C969.502 31.6276 968.555 32.0518 967.83 32.7775C967.043 33.5645 966.609 34.6108 966.609 35.7239C966.609 36.837 967.043 37.8833 967.83 38.6703C968.617 39.4573 969.663 39.8906 970.776 39.8906C971.889 39.8906 972.935 39.4573 973.722 38.6703C974.448 37.9443 974.872 36.9976 974.934 35.9814L987.163 23.7526C988.525 26.2204 988.385 28.5935 986.724 30.2549ZM972.859 35.724C972.859 36.2806 972.643 36.8037 972.249 37.1972C971.856 37.5907 971.333 37.8073 970.776 37.8073C970.22 37.8073 969.696 37.5906 969.303 37.1972C968.909 36.8038 968.693 36.2806 968.693 35.724C968.693 35.1675 968.909 34.6445 969.303 34.2509C969.696 33.8574 970.219 33.6407 970.776 33.6407C970.83 33.6407 970.882 33.6443 970.935 33.6484C970.97 33.651 971.005 33.6547 971.04 33.6591C971.069 33.6626 971.098 33.6671 971.126 33.6717C971.164 33.6783 971.202 33.6854 971.239 33.6939C971.263 33.6995 971.287 33.7054 971.311 33.7121C971.351 33.7227 971.391 33.7339 971.43 33.7468C971.451 33.7536 971.471 33.7613 971.491 33.7686C971.532 33.7836 971.572 33.7989 971.612 33.8165C971.631 33.8246 971.649 33.834 971.668 33.8427C971.707 33.8615 971.746 33.8803 971.785 33.9015C971.804 33.9125 971.823 33.925 971.843 33.9363C971.878 33.9577 971.914 33.9788 971.948 34.0022C971.973 34.0189 971.996 34.0375 972.02 34.0551C972.048 34.076 972.076 34.0963 972.104 34.1186C972.144 34.1517 972.182 34.1876 972.22 34.224C972.229 34.2332 972.239 34.2413 972.249 34.2507C972.263 34.2647 972.275 34.2801 972.289 34.2948C972.32 34.3277 972.352 34.3607 972.38 34.3953C972.407 34.4272 972.431 34.4608 972.455 34.4941C972.469 34.5127 972.483 34.5305 972.496 34.5494C972.523 34.5879 972.546 34.6275 972.57 34.6674C972.579 34.6825 972.589 34.697 972.597 34.7126C972.62 34.7538 972.641 34.7965 972.661 34.8393C972.668 34.8546 972.676 34.8696 972.682 34.8849C972.701 34.9272 972.717 34.9704 972.733 35.0136C972.74 35.0313 972.746 35.0491 972.752 35.067C972.766 35.1083 972.778 35.1502 972.789 35.1923C972.795 35.214 972.8 35.236 972.805 35.258C972.814 35.2972 972.822 35.3367 972.829 35.3764C972.833 35.4031 972.837 35.4298 972.84 35.4564C972.845 35.4934 972.849 35.5302 972.852 35.5675C972.856 35.6196 972.859 35.6716 972.859 35.724ZM974.365 33.6043C974.279 33.459 974.183 33.3188 974.078 33.184C974.072 33.1758 974.066 33.1677 974.059 33.1595C974.015 33.1032 973.969 33.0479 973.922 32.9935C973.912 32.9822 973.902 32.9703 973.892 32.9591C973.838 32.8972 973.781 32.8364 973.722 32.7777C973.664 32.7193 973.604 32.6635 973.543 32.609C973.53 32.5975 973.516 32.5862 973.503 32.5749C973.451 32.5299 973.398 32.4863 973.345 32.4442C973.334 32.4357 973.323 32.4271 973.312 32.4188C973.178 32.3157 973.039 32.2207 972.895 32.1352L995.896 9.13508L997.365 10.6043L974.365 33.6043ZM999.574 9.86652L996.633 6.92619L1001.04 2.51475L1003.99 5.45499L999.574 9.86652Z" fill="black"/>
<path d="M965.799 42.262C965.504 42.0427 965.222 41.799 964.961 41.5383C962.017 38.594 962.017 33.8029 964.961 30.8581C965.368 30.4515 965.368 29.7919 964.961 29.3851C964.555 28.9782 963.895 28.9782 963.488 29.3851C959.732 33.1419 959.732 39.2547 963.489 43.012C963.821 43.3438 964.18 43.6534 964.554 43.9324C964.741 44.0715 964.959 44.1388 965.176 44.1388C965.493 44.1388 965.807 43.9937 966.012 43.7196C966.355 43.2583 966.26 42.6055 965.799 42.262Z" fill="black"/>
<path d="M968.724 43.5851C968.596 43.558 968.461 43.5257 968.325 43.4888C967.769 43.339 967.198 43.6683 967.048 44.2237C966.898 44.779 967.227 45.3507 967.783 45.5005C967.957 45.5473 968.129 45.5886 968.295 45.6237C968.367 45.6389 968.44 45.6463 968.511 45.6463C968.993 45.6463 969.425 45.3099 969.529 44.8194C969.648 44.2563 969.287 43.7036 968.724 43.5851Z" fill="black"/>
</g>
<path d="M946.23 81V68.4H947.706L953.358 77.922H952.566L958.146 68.4H959.622L959.64 81H957.912L957.894 71.118H958.308L953.34 79.47H952.512L947.508 71.118H947.958V81H946.23ZM967.183 81.108C966.367 81.108 965.647 80.958 965.023 80.658C964.411 80.358 963.931 79.902 963.583 79.29C963.247 78.666 963.079 77.886 963.079 76.95V71.46H964.807V76.752C964.807 77.688 965.029 78.39 965.473 78.858C965.929 79.326 966.565 79.56 967.381 79.56C967.981 79.56 968.503 79.44 968.947 79.2C969.391 78.948 969.733 78.588 969.973 78.12C970.213 77.64 970.333 77.064 970.333 76.392V71.46H972.061V81H970.423V78.426L970.693 79.11C970.381 79.746 969.913 80.238 969.289 80.586C968.665 80.934 967.963 81.108 967.183 81.108ZM978.087 81.108C977.295 81.108 976.539 81 975.819 80.784C975.111 80.568 974.553 80.304 974.145 79.992L974.865 78.624C975.273 78.9 975.777 79.134 976.377 79.326C976.977 79.518 977.589 79.614 978.213 79.614C979.017 79.614 979.593 79.5 979.941 79.272C980.301 79.044 980.481 78.726 980.481 78.318C980.481 78.018 980.373 77.784 980.157 77.616C979.941 77.448 979.653 77.322 979.293 77.238C978.945 77.154 978.555 77.082 978.123 77.022C977.691 76.95 977.259 76.866 976.827 76.77C976.395 76.662 975.999 76.518 975.639 76.338C975.279 76.146 974.991 75.888 974.775 75.564C974.559 75.228 974.451 74.784 974.451 74.232C974.451 73.656 974.613 73.152 974.937 72.72C975.261 72.288 975.717 71.958 976.305 71.73C976.905 71.49 977.613 71.37 978.429 71.37C979.053 71.37 979.683 71.448 980.319 71.604C980.967 71.748 981.495 71.958 981.903 72.234L981.165 73.602C980.733 73.314 980.283 73.116 979.815 73.008C979.347 72.9 978.879 72.846 978.411 72.846C977.655 72.846 977.091 72.972 976.719 73.224C976.347 73.464 976.161 73.776 976.161 74.16C976.161 74.484 976.269 74.736 976.485 74.916C976.713 75.084 977.001 75.216 977.349 75.312C977.709 75.408 978.105 75.492 978.537 75.564C978.969 75.624 979.401 75.708 979.833 75.816C980.265 75.912 980.655 76.05 981.003 76.23C981.363 76.41 981.651 76.662 981.867 76.986C982.095 77.31 982.209 77.742 982.209 78.282C982.209 78.858 982.041 79.356 981.705 79.776C981.369 80.196 980.895 80.526 980.283 80.766C979.671 80.994 978.939 81.108 978.087 81.108ZM984.368 81V71.46H986.096V81H984.368ZM985.232 69.624C984.896 69.624 984.614 69.516 984.386 69.3C984.17 69.084 984.062 68.82 984.062 68.508C984.062 68.184 984.17 67.914 984.386 67.698C984.614 67.482 984.896 67.374 985.232 67.374C985.568 67.374 985.844 67.482 986.06 67.698C986.288 67.902 986.402 68.16 986.402 68.472C986.402 68.796 986.294 69.072 986.078 69.3C985.862 69.516 985.58 69.624 985.232 69.624ZM993.554 81.108C992.582 81.108 991.712 80.898 990.944 80.478C990.188 80.058 989.594 79.482 989.162 78.75C988.73 78.018 988.514 77.178 988.514 76.23C988.514 75.282 988.73 74.442 989.162 73.71C989.594 72.978 990.188 72.408 990.944 72C991.712 71.58 992.582 71.37 993.554 71.37C994.418 71.37 995.186 71.544 995.858 71.892C996.542 72.228 997.07 72.732 997.442 73.404L996.128 74.25C995.816 73.782 995.432 73.44 994.976 73.224C994.532 72.996 994.052 72.882 993.536 72.882C992.912 72.882 992.354 73.02 991.862 73.296C991.37 73.572 990.98 73.962 990.692 74.466C990.404 74.958 990.26 75.546 990.26 76.23C990.26 76.914 990.404 77.508 990.692 78.012C990.98 78.516 991.37 78.906 991.862 79.182C992.354 79.458 992.912 79.596 993.536 79.596C994.052 79.596 994.532 79.488 994.976 79.272C995.432 79.044 995.816 78.696 996.128 78.228L997.442 79.056C997.07 79.716 996.542 80.226 995.858 80.586C995.186 80.934 994.418 81.108 993.554 81.108ZM1005.6 81V78.984L1005.51 78.606V75.168C1005.51 74.436 1005.3 73.872 1004.86 73.476C1004.44 73.068 1003.81 72.864 1002.96 72.864C1002.39 72.864 1001.84 72.96 1001.3 73.152C1000.76 73.332 1000.3 73.578 999.931 73.89L999.211 72.594C999.703 72.198 1000.29 71.898 1000.98 71.694C1001.67 71.478 1002.4 71.37 1003.15 71.37C1004.46 71.37 1005.47 71.688 1006.18 72.324C1006.89 72.96 1007.24 73.932 1007.24 75.24V81H1005.6ZM1002.47 81.108C1001.76 81.108 1001.14 80.988 1000.6 80.748C1000.07 80.508 999.661 80.178 999.373 79.758C999.085 79.326 998.941 78.84 998.941 78.3C998.941 77.784 999.061 77.316 999.301 76.896C999.553 76.476 999.955 76.14 1000.51 75.888C1001.07 75.636 1001.83 75.51 1002.78 75.51H1005.8V76.752H1002.85C1001.98 76.752 1001.4 76.896 1001.1 77.184C1000.8 77.472 1000.65 77.82 1000.65 78.228C1000.65 78.696 1000.84 79.074 1001.21 79.362C1001.58 79.638 1002.1 79.776 1002.76 79.776C1003.41 79.776 1003.97 79.632 1004.45 79.344C1004.94 79.056 1005.3 78.636 1005.51 78.084L1005.85 79.272C1005.63 79.836 1005.22 80.286 1004.65 80.622C1004.07 80.946 1003.35 81.108 1002.47 81.108ZM1010.44 81V67.644H1012.16V81H1010.44ZM927.078 103V90.4H928.878V103H927.078ZM937.493 93.37C938.273 93.37 938.957 93.52 939.545 93.82C940.145 94.12 940.613 94.576 940.949 95.188C941.285 95.8 941.453 96.574 941.453 97.51V103H939.725V97.708C939.725 96.784 939.497 96.088 939.041 95.62C938.597 95.152 937.967 94.918 937.151 94.918C936.539 94.918 936.005 95.038 935.549 95.278C935.093 95.518 934.739 95.872 934.487 96.34C934.247 96.808 934.127 97.39 934.127 98.086V103H932.399V93.46H934.055V96.034L933.785 95.35C934.097 94.726 934.577 94.24 935.225 93.892C935.873 93.544 936.629 93.37 937.493 93.37ZM947.387 103.108C946.595 103.108 945.839 103 945.119 102.784C944.411 102.568 943.853 102.304 943.445 101.992L944.165 100.624C944.573 100.9 945.077 101.134 945.677 101.326C946.277 101.518 946.889 101.614 947.513 101.614C948.317 101.614 948.893 101.5 949.241 101.272C949.601 101.044 949.781 100.726 949.781 100.318C949.781 100.018 949.673 99.784 949.457 99.616C949.241 99.448 948.953 99.322 948.593 99.238C948.245 99.154 947.855 99.082 947.423 99.022C946.991 98.95 946.559 98.866 946.127 98.77C945.695 98.662 945.299 98.518 944.939 98.338C944.579 98.146 944.291 97.888 944.075 97.564C943.859 97.228 943.751 96.784 943.751 96.232C943.751 95.656 943.913 95.152 944.237 94.72C944.561 94.288 945.017 93.958 945.605 93.73C946.205 93.49 946.913 93.37 947.729 93.37C948.353 93.37 948.983 93.448 949.619 93.604C950.267 93.748 950.795 93.958 951.203 94.234L950.465 95.602C950.033 95.314 949.583 95.116 949.115 95.008C948.647 94.9 948.179 94.846 947.711 94.846C946.955 94.846 946.391 94.972 946.019 95.224C945.647 95.464 945.461 95.776 945.461 96.16C945.461 96.484 945.569 96.736 945.785 96.916C946.013 97.084 946.301 97.216 946.649 97.312C947.009 97.408 947.405 97.492 947.837 97.564C948.269 97.624 948.701 97.708 949.133 97.816C949.565 97.912 949.955 98.05 950.303 98.23C950.663 98.41 950.951 98.662 951.167 98.986C951.395 99.31 951.509 99.742 951.509 100.282C951.509 100.858 951.341 101.356 951.005 101.776C950.669 102.196 950.195 102.526 949.583 102.766C948.971 102.994 948.239 103.108 947.387 103.108ZM956.944 103.108C955.984 103.108 955.24 102.85 954.712 102.334C954.184 101.818 953.92 101.08 953.92 100.12V91.372H955.648V100.048C955.648 100.564 955.774 100.96 956.026 101.236C956.29 101.512 956.662 101.65 957.142 101.65C957.682 101.65 958.132 101.5 958.492 101.2L959.032 102.442C958.768 102.67 958.45 102.838 958.078 102.946C957.718 103.054 957.34 103.108 956.944 103.108ZM952.3 94.882V93.46H958.384V94.882H952.3ZM961.121 103V93.46H962.777V96.052L962.615 95.404C962.879 94.744 963.323 94.24 963.947 93.892C964.571 93.544 965.339 93.37 966.251 93.37V95.044C966.179 95.032 966.107 95.026 966.035 95.026C965.975 95.026 965.915 95.026 965.855 95.026C964.931 95.026 964.199 95.302 963.659 95.854C963.119 96.406 962.849 97.204 962.849 98.248V103H961.121ZM972.518 103.108C971.702 103.108 970.982 102.958 970.358 102.658C969.746 102.358 969.266 101.902 968.918 101.29C968.582 100.666 968.414 99.886 968.414 98.95V93.46H970.142V98.752C970.142 99.688 970.364 100.39 970.808 100.858C971.264 101.326 971.9 101.56 972.716 101.56C973.316 101.56 973.838 101.44 974.282 101.2C974.726 100.948 975.068 100.588 975.308 100.12C975.548 99.64 975.668 99.064 975.668 98.392V93.46H977.396V103H975.758V100.426L976.028 101.11C975.716 101.746 975.248 102.238 974.624 102.586C974 102.934 973.298 103.108 972.518 103.108ZM992.62 93.37C993.388 93.37 994.066 93.52 994.654 93.82C995.242 94.12 995.698 94.576 996.022 95.188C996.358 95.8 996.526 96.574 996.526 97.51V103H994.798V97.708C994.798 96.784 994.582 96.088 994.15 95.62C993.718 95.152 993.112 94.918 992.332 94.918C991.756 94.918 991.252 95.038 990.82 95.278C990.388 95.518 990.052 95.872 989.812 96.34C989.584 96.808 989.47 97.39 989.47 98.086V103H987.742V97.708C987.742 96.784 987.526 96.088 987.094 95.62C986.674 95.152 986.068 94.918 985.276 94.918C984.712 94.918 984.214 95.038 983.782 95.278C983.35 95.518 983.014 95.872 982.774 96.34C982.534 96.808 982.414 97.39 982.414 98.086V103H980.686V93.46H982.342V95.998L982.072 95.35C982.372 94.726 982.834 94.24 983.458 93.892C984.082 93.544 984.808 93.37 985.636 93.37C986.548 93.37 987.334 93.598 987.994 94.054C988.654 94.498 989.086 95.176 989.29 96.088L988.588 95.8C988.876 95.068 989.38 94.48 990.1 94.036C990.82 93.592 991.66 93.37 992.62 93.37ZM1003.95 103.108C1002.93 103.108 1002.03 102.898 1001.25 102.478C1000.49 102.058 999.885 101.482 999.453 100.75C999.033 100.018 998.823 99.178 998.823 98.23C998.823 97.282 999.027 96.442 999.435 95.71C999.855 94.978 1000.43 94.408 1001.15 94C1001.88 93.58 1002.7 93.37 1003.61 93.37C1004.54 93.37 1005.35 93.574 1006.06 93.982C1006.77 94.39 1007.32 94.966 1007.72 95.71C1008.12 96.442 1008.33 97.3 1008.33 98.284C1008.33 98.356 1008.32 98.44 1008.31 98.536C1008.31 98.632 1008.3 98.722 1008.29 98.806H1000.17V97.564H1007.39L1006.69 97.996C1006.7 97.384 1006.58 96.838 1006.31 96.358C1006.05 95.878 1005.68 95.506 1005.21 95.242C1004.76 94.966 1004.22 94.828 1003.61 94.828C1003.01 94.828 1002.48 94.966 1002.01 95.242C1001.54 95.506 1001.18 95.884 1000.91 96.376C1000.65 96.856 1000.52 97.408 1000.52 98.032V98.32C1000.52 98.956 1000.66 99.526 1000.95 100.03C1001.25 100.522 1001.66 100.906 1002.19 101.182C1002.72 101.458 1003.32 101.596 1004.01 101.596C1004.57 101.596 1005.08 101.5 1005.54 101.308C1006.01 101.116 1006.41 100.828 1006.76 100.444L1007.72 101.56C1007.28 102.064 1006.74 102.448 1006.1 102.712C1005.46 102.976 1004.75 103.108 1003.95 103.108ZM1015.82 93.37C1016.6 93.37 1017.28 93.52 1017.87 93.82C1018.47 94.12 1018.94 94.576 1019.28 95.188C1019.61 95.8 1019.78 96.574 1019.78 97.51V103H1018.05V97.708C1018.05 96.784 1017.82 96.088 1017.37 95.62C1016.92 95.152 1016.29 94.918 1015.48 94.918C1014.87 94.918 1014.33 95.038 1013.88 95.278C1013.42 95.518 1013.07 95.872 1012.81 96.34C1012.57 96.808 1012.45 97.39 1012.45 98.086V103H1010.73V93.46H1012.38V96.034L1012.11 95.35C1012.42 94.726 1012.9 94.24 1013.55 93.892C1014.2 93.544 1014.96 93.37 1015.82 93.37ZM1026.25 103.108C1025.29 103.108 1024.55 102.85 1024.02 102.334C1023.49 101.818 1023.23 101.08 1023.23 100.12V91.372H1024.96V100.048C1024.96 100.564 1025.08 100.96 1025.34 101.236C1025.6 101.512 1025.97 101.65 1026.45 101.65C1026.99 101.65 1027.44 101.5 1027.8 101.2L1028.34 102.442C1028.08 102.67 1027.76 102.838 1027.39 102.946C1027.03 103.054 1026.65 103.108 1026.25 103.108ZM1021.61 94.882V93.46H1027.69V94.882H1021.61ZM1033.17 103.108C1032.38 103.108 1031.62 103 1030.9 102.784C1030.19 102.568 1029.63 102.304 1029.23 101.992L1029.95 100.624C1030.35 100.9 1030.86 101.134 1031.46 101.326C1032.06 101.518 1032.67 101.614 1033.29 101.614C1034.1 101.614 1034.67 101.5 1035.02 101.272C1035.38 101.044 1035.56 100.726 1035.56 100.318C1035.56 100.018 1035.45 99.784 1035.24 99.616C1035.02 99.448 1034.73 99.322 1034.37 99.238C1034.03 99.154 1033.64 99.082 1033.2 99.022C1032.77 98.95 1032.34 98.866 1031.91 98.77C1031.48 98.662 1031.08 98.518 1030.72 98.338C1030.36 98.146 1030.07 97.888 1029.86 97.564C1029.64 97.228 1029.53 96.784 1029.53 96.232C1029.53 95.656 1029.69 95.152 1030.02 94.72C1030.34 94.288 1030.8 93.958 1031.39 93.73C1031.99 93.49 1032.69 93.37 1033.51 93.37C1034.13 93.37 1034.76 93.448 1035.4 93.604C1036.05 93.748 1036.58 93.958 1036.98 94.234L1036.25 95.602C1035.81 95.314 1035.36 95.116 1034.9 95.008C1034.43 94.9 1033.96 94.846 1033.49 94.846C1032.74 94.846 1032.17 94.972 1031.8 95.224C1031.43 95.464 1031.24 95.776 1031.24 96.16C1031.24 96.484 1031.35 96.736 1031.57 96.916C1031.79 97.084 1032.08 97.216 1032.43 97.312C1032.79 97.408 1033.19 97.492 1033.62 97.564C1034.05 97.624 1034.48 97.708 1034.91 97.816C1035.35 97.912 1035.74 98.05 1036.08 98.23C1036.44 98.41 1036.73 98.662 1036.95 98.986C1037.18 99.31 1037.29 99.742 1037.29 100.282C1037.29 100.858 1037.12 101.356 1036.79 101.776C1036.45 102.196 1035.98 102.526 1035.36 102.766C1034.75 102.994 1034.02 103.108 1033.17 103.108Z" fill="black"/>
<defs>
<clipPath id="clip0_26_369">
<rect width="50" height="50" fill="white" transform="translate(31.5)"/>
</clipPath>
<clipPath id="clip1_26_369">
<rect width="50" height="50" fill="white" transform="translate(216.5)"/>
</clipPath>
<clipPath id="clip2_26_369">
<rect width="50" height="50" fill="white" transform="translate(216.5)"/>
</clipPath>
<clipPath id="clip3_26_369">
<rect width="50" height="50" fill="white" transform="translate(401.5)"/>
</clipPath>
<clipPath id="clip4_26_369">
<rect width="50" height="50" fill="white" transform="translate(586.5)"/>
</clipPath>
<clipPath id="clip5_26_369">
<rect width="50" height="50" fill="white" transform="translate(586.5)"/>
</clipPath>
<clipPath id="clip6_26_369">
<rect width="50" height="50" fill="white" transform="translate(771.5)"/>
</clipPath>
<clipPath id="clip7_26_369">
<rect width="50" height="50" fill="white" transform="translate(771.5)"/>
</clipPath>
<clipPath id="clip8_26_369">
<rect width="50" height="50" fill="white" transform="translate(956.5)"/>
</clipPath>
</defs>
</svg>
