<svg width="877" height="139" viewBox="0 0 877 139" fill="none" xmlns="http://www.w3.org/2000/svg">
<path d="M7.566 30.13L2.054 10.89H5.304L9.62 27.218H9.152L9.282 26.828L13.936 10.89H15.678L20.436 27.322H19.994L20.072 26.906L24.336 10.89H25.584L20.15 30.13H18.46L13.572 13.984H14.066L13.962 14.374L9.256 30.13H7.566ZM0.26 11.722V10.89H8.164V11.722L4.55 12.034H3.848L0.26 11.722ZM11.05 11.722V10.89H18.798V11.722L15.418 12.034H14.274L11.05 11.722ZM21.476 11.722V10.89H27.794V11.722L24.934 12.034H24.336L21.476 11.722ZM29.2031 30V29.194L32.9471 28.83H33.5711L37.3931 29.194V30H29.2031ZM31.6991 30C31.7771 27.088 31.7771 24.124 31.7771 21.108V19.808C31.7771 16.818 31.7771 13.854 31.6991 10.89H34.9491C34.8711 13.802 34.8711 16.792 34.8711 19.808V20.484C34.8711 24.072 34.8711 27.062 34.9491 30H31.6991ZM33.3371 20.614V19.704H44.9331V20.614H33.3371ZM40.8251 30V29.194L44.6211 28.83H45.2711L49.0411 29.194V30H40.8251ZM43.2691 30C43.3731 27.088 43.3731 24.124 43.3731 20.484V19.808C43.3731 16.818 43.3731 13.854 43.2691 10.89H46.5451C46.4671 13.802 46.4671 16.792 46.4671 19.808V21.108C46.4671 24.072 46.4671 27.062 46.5451 30H43.2691ZM29.2031 11.722V10.89H37.3931V11.722L33.5711 12.034H32.9471L29.2031 11.722ZM40.8251 11.722V10.89H49.0411V11.722L45.2711 12.034H44.6211L40.8251 11.722ZM54.876 30V29.194L58.854 28.83H59.738L63.768 29.194V30H54.876ZM57.71 30C57.788 27.348 57.788 25.918 57.788 21.394H60.856C60.856 25.892 60.856 27.322 60.934 30H57.71ZM58.23 23.396L52.042 10.89H55.526L60.7 21.81H59.998L60.154 21.42L65.094 10.89H66.342L60.18 23.396H58.23ZM50.82 11.722V10.89H58.776V11.722L55.24 12.034H54.356L50.82 11.722ZM61.896 11.722V10.89H68.058V11.722L65.458 12.034H64.886L61.896 11.722ZM81.9483 30.468C79.8163 30.468 77.6323 29.844 76.2543 28.96L76.4103 24.826H77.6583L78.7503 29.48L77.3203 28.856L77.1123 27.946C78.8023 29.142 79.8943 29.454 81.6883 29.454C84.4183 29.454 86.1083 28.206 86.1083 25.892C86.1083 24.046 85.2763 23.084 82.7283 21.992L81.5583 21.498C78.3083 20.094 76.6183 18.43 76.6183 15.596C76.6183 12.242 79.3743 10.422 83.0663 10.422C85.0683 10.422 86.6543 10.968 87.9803 11.878L87.8243 15.778H86.5503L85.5103 11.332L86.9923 12.008L87.1483 12.944C85.7443 11.826 84.8343 11.436 83.3523 11.436C80.9863 11.436 79.3223 12.58 79.3223 14.738C79.3223 16.636 80.4663 17.676 82.4423 18.508L83.6903 19.054C87.6163 20.744 88.9163 22.226 88.9163 24.982C88.9163 28.31 86.2643 30.468 81.9483 30.468ZM91.3085 30V29.194L95.0525 28.83H95.6765L99.4985 29.194V30H91.3085ZM93.8045 30C93.8825 27.088 93.8825 24.124 93.8825 21.108V19.808C93.8825 16.818 93.8825 13.854 93.8045 10.89H97.0545C96.9765 13.802 96.9765 16.792 96.9765 19.808V20.484C96.9765 24.072 96.9765 27.062 97.0545 30H93.8045ZM95.4425 20.614V19.704H107.039V20.614H95.4425ZM102.931 30V29.194L106.727 28.83H107.377L111.147 29.194V30H102.931ZM105.375 30C105.479 27.088 105.479 24.124 105.479 20.484V19.808C105.479 16.818 105.479 13.854 105.375 10.89H108.651C108.573 13.802 108.573 16.792 108.573 19.808V21.108C108.573 24.072 108.573 27.062 108.651 30H105.375ZM91.3085 11.722V10.89H99.4985V11.722L95.6765 12.034H95.0525L91.3085 11.722ZM102.931 11.722V10.89H111.147V11.722L107.377 12.034H106.727L102.931 11.722ZM122.111 30.468C117.405 30.468 113.349 26.906 113.349 20.458C113.349 14.088 117.405 10.422 122.111 10.422C126.843 10.422 130.899 14.01 130.899 20.458C130.899 26.854 126.843 30.468 122.111 30.468ZM122.111 29.532C125.777 29.532 127.597 25.528 127.597 20.458C127.597 15.414 125.777 11.384 122.111 11.384C118.471 11.384 116.625 15.414 116.625 20.458C116.625 25.528 118.471 29.532 122.111 29.532ZM142.359 30.468C138.147 30.468 135.287 28.362 135.287 22.616V19.704C135.287 16.766 135.287 13.828 135.209 10.89H138.433C138.381 13.802 138.381 16.714 138.381 19.704V22.226C138.381 27.036 140.149 28.778 143.191 28.778C146.519 28.778 148.209 26.828 148.183 21.966L148.131 10.89H149.301L149.223 22.304C149.171 27.868 146.779 30.468 142.359 30.468ZM132.843 11.722V10.89H141.137V11.722L137.263 12.034H136.613L132.843 11.722ZM145.063 11.722V10.89H151.875V11.722L149.015 12.06H148.339L145.063 11.722ZM153.516 30V29.194L157.338 28.83H157.676V30H153.516ZM156.038 30C156.116 27.088 156.116 24.124 156.116 21.524V19.808C156.116 16.818 156.116 13.828 156.038 10.89H159.288C159.21 13.828 159.21 16.792 159.21 19.86V21.446C159.21 24.072 159.21 27.062 159.288 30H156.038ZM157.676 30V29.064H166.958L165.45 29.844L166.594 24.67H167.842L167.738 30H157.676ZM153.516 11.722V10.89H161.94V11.722L158.066 12.034H157.338L153.516 11.722ZM169.791 30V29.194L173.613 28.83H173.951V30H169.791ZM172.313 30C172.391 27.088 172.391 24.124 172.391 20.692V19.912C172.391 16.818 172.391 13.854 172.313 10.89H175.563C175.485 13.802 175.485 16.792 175.485 19.912V20.692C175.485 24.072 175.485 27.062 175.563 30H172.313ZM173.951 30V29.116H177.279C181.829 29.116 184.273 25.84 184.273 20.458C184.273 14.816 181.803 11.8 177.487 11.8H173.951V10.89H177.851C183.883 10.89 187.497 14.426 187.497 20.432C187.497 26.36 183.701 30 177.435 30H173.951ZM169.791 11.722V10.89H173.951V12.034H173.613L169.791 11.722ZM200.06 30V29.194L204.038 28.83H204.922L208.952 29.194V30H200.06ZM202.894 30C202.972 27.348 202.972 25.918 202.972 21.394H206.04C206.04 25.892 206.04 27.322 206.118 30H202.894ZM203.414 23.396L197.226 10.89H200.71L205.884 21.81H205.182L205.338 21.42L210.278 10.89H211.526L205.364 23.396H203.414ZM196.004 11.722V10.89H203.96V11.722L200.424 12.034H199.54L196.004 11.722ZM207.08 11.722V10.89H213.242V11.722L210.642 12.034H210.07L207.08 11.722ZM222.303 30.468C217.597 30.468 213.541 26.906 213.541 20.458C213.541 14.088 217.597 10.422 222.303 10.422C227.035 10.422 231.091 14.01 231.091 20.458C231.091 26.854 227.035 30.468 222.303 30.468ZM222.303 29.532C225.969 29.532 227.789 25.528 227.789 20.458C227.789 15.414 225.969 11.384 222.303 11.384C218.663 11.384 216.817 15.414 216.817 20.458C216.817 25.528 218.663 29.532 222.303 29.532ZM242.551 30.468C238.339 30.468 235.479 28.362 235.479 22.616V19.704C235.479 16.766 235.479 13.828 235.401 10.89H238.625C238.573 13.802 238.573 16.714 238.573 19.704V22.226C238.573 27.036 240.341 28.778 243.383 28.778C246.711 28.778 248.401 26.828 248.375 21.966L248.323 10.89H249.493L249.415 22.304C249.363 27.868 246.971 30.468 242.551 30.468ZM233.035 11.722V10.89H241.329V11.722L237.455 12.034H236.805L233.035 11.722ZM245.255 11.722V10.89H252.067V11.722L249.207 12.06H248.531L245.255 11.722ZM11.154 67.468C5.486 67.468 1.326 63.958 1.326 57.562C1.326 51.114 5.616 47.422 11.154 47.422C13.39 47.422 14.976 47.916 16.666 48.878V53.272H15.366L14.196 48.384L15.834 48.93V49.814C14.43 48.8 13.234 48.384 11.648 48.384C7.592 48.384 4.602 51.478 4.602 57.458C4.602 63.516 7.592 66.532 11.622 66.532C13.182 66.532 14.534 66.116 15.99 65.076V65.96L14.404 66.454L15.548 61.644H16.848L16.874 65.986C15.184 66.974 13.39 67.468 11.154 67.468ZM19.3769 67V66.194L23.1209 65.83H23.7449L27.5669 66.194V67H19.3769ZM21.8729 67C21.9509 64.088 21.9509 61.124 21.9509 58.108V56.808C21.9509 53.818 21.9509 50.854 21.8729 47.89H25.1229C25.0449 50.802 25.0449 53.792 25.0449 56.808V57.484C25.0449 61.072 25.0449 64.062 25.1229 67H21.8729ZM23.5109 57.614V56.704H35.1069V57.614H23.5109ZM30.9989 67V66.194L34.7949 65.83H35.4449L39.2149 66.194V67H30.9989ZM33.4429 67C33.5469 64.088 33.5469 61.124 33.5469 57.484V56.808C33.5469 53.818 33.5469 50.854 33.4429 47.89H36.7189C36.6409 50.802 36.6409 53.792 36.6409 56.808V58.108C36.6409 61.072 36.6409 64.062 36.7189 67H33.4429ZM19.3769 48.722V47.89H27.5669V48.722L23.7449 49.034H23.1209L19.3769 48.722ZM30.9989 48.722V47.89H39.2149V48.722L35.4449 49.034H34.7949L30.9989 48.722ZM50.1798 67.468C45.4738 67.468 41.4178 63.906 41.4178 57.458C41.4178 51.088 45.4738 47.422 50.1798 47.422C54.9118 47.422 58.9678 51.01 58.9678 57.458C58.9678 63.854 54.9118 67.468 50.1798 67.468ZM50.1798 66.532C53.8458 66.532 55.6658 62.528 55.6658 57.458C55.6658 52.414 53.8458 48.384 50.1798 48.384C46.5398 48.384 44.6938 52.414 44.6938 57.458C44.6938 62.528 46.5398 66.532 50.1798 66.532ZM70.7716 67.468C66.0656 67.468 62.0096 63.906 62.0096 57.458C62.0096 51.088 66.0656 47.422 70.7716 47.422C75.5036 47.422 79.5596 51.01 79.5596 57.458C79.5596 63.854 75.5036 67.468 70.7716 67.468ZM70.7716 66.532C74.4376 66.532 76.2576 62.528 76.2576 57.458C76.2576 52.414 74.4376 48.384 70.7716 48.384C67.1316 48.384 65.2856 52.414 65.2856 57.458C65.2856 62.528 67.1316 66.532 70.7716 66.532ZM88.0167 67.468C85.8847 67.468 83.7007 66.844 82.3227 65.96L82.4787 61.826H83.7267L84.8187 66.48L83.3887 65.856L83.1807 64.946C84.8707 66.142 85.9627 66.454 87.7567 66.454C90.4867 66.454 92.1767 65.206 92.1767 62.892C92.1767 61.046 91.3447 60.084 88.7967 58.992L87.6267 58.498C84.3767 57.094 82.6867 55.43 82.6867 52.596C82.6867 49.242 85.4427 47.422 89.1347 47.422C91.1367 47.422 92.7227 47.968 94.0487 48.878L93.8927 52.778H92.6187L91.5787 48.332L93.0607 49.008L93.2167 49.944C91.8127 48.826 90.9027 48.436 89.4207 48.436C87.0547 48.436 85.3907 49.58 85.3907 51.738C85.3907 53.636 86.5347 54.676 88.5107 55.508L89.7587 56.054C93.6847 57.744 94.9847 59.226 94.9847 61.982C94.9847 65.31 92.3327 67.468 88.0167 67.468ZM97.3769 67V66.194L101.199 65.83H101.537V67H97.3769ZM99.8989 67C99.9769 64.088 99.9769 61.124 99.9769 58.108V56.808C99.9769 53.818 99.9769 50.854 99.8989 47.89H103.149C103.071 50.802 103.071 53.792 103.071 57.016V57.692C103.071 61.072 103.071 64.062 103.149 67H99.8989ZM101.537 67V66.064H111.391L109.831 66.87L110.923 62.034H112.171L112.067 67H101.537ZM101.537 57.744V56.834H107.855V57.744H101.537ZM107.621 60.37L107.257 57.484V56.938L107.621 54.104H108.687V60.37H107.621ZM97.3769 48.722V47.89H101.537V49.034H101.199L97.3769 48.722ZM110.429 52.752L109.337 48.02L110.897 48.852H101.537V47.89H111.573L111.677 52.752H110.429ZM130.451 67.468C126.239 67.468 123.379 65.362 123.379 59.616V56.704C123.379 53.766 123.379 50.828 123.301 47.89H126.525C126.473 50.802 126.473 53.714 126.473 56.704V59.226C126.473 64.036 128.241 65.778 131.283 65.778C134.611 65.778 136.301 63.828 136.275 58.966L136.223 47.89H137.393L137.315 59.304C137.263 64.868 134.871 67.468 130.451 67.468ZM120.935 48.722V47.89H129.229V48.722L125.355 49.034H124.705L120.935 48.722ZM133.155 48.722V47.89H139.967V48.722L137.107 49.06H136.431L133.155 48.722ZM147.482 67.468C145.35 67.468 143.166 66.844 141.788 65.96L141.944 61.826H143.192L144.284 66.48L142.854 65.856L142.646 64.946C144.336 66.142 145.428 66.454 147.222 66.454C149.952 66.454 151.642 65.206 151.642 62.892C151.642 61.046 150.81 60.084 148.262 58.992L147.092 58.498C143.842 57.094 142.152 55.43 142.152 52.596C142.152 49.242 144.908 47.422 148.6 47.422C150.602 47.422 152.188 47.968 153.514 48.878L153.358 52.778H152.084L151.044 48.332L152.526 49.008L152.682 49.944C151.278 48.826 150.368 48.436 148.886 48.436C146.52 48.436 144.856 49.58 144.856 51.738C144.856 53.636 146 54.676 147.976 55.508L149.224 56.054C153.15 57.744 154.45 59.226 154.45 61.982C154.45 65.31 151.798 67.468 147.482 67.468ZM160.065 67.39C158.999 67.39 158.141 66.532 158.141 65.492C158.141 64.452 158.999 63.646 160.065 63.646C161.183 63.646 161.989 64.452 161.989 65.492C161.989 66.532 161.183 67.39 160.065 67.39ZM165.889 53.454C165.889 55.534 165.057 56.652 163.159 57.458L161.989 57.952C160.767 58.524 160.481 58.784 160.429 59.616V61.124H159.701L159.389 60.058C159.129 59.122 158.973 58.602 158.973 58.082C158.973 57.068 159.571 56.47 161.131 55.794L162.613 55.274C164.173 54.52 164.693 53.948 164.667 52.752C164.667 51.452 163.887 50.516 162.171 49.45L164.901 51.192L159.649 50.438C158.271 50.256 157.829 49.658 157.829 48.852C157.829 47.994 158.297 47.578 159.155 47.344C162.041 48.02 165.889 49.97 165.889 53.454Z" fill="black"/>
<path d="M1.68 114V102.8H3.28V112.608H9.344V114H1.68ZM9.484 114L14.556 102.8H16.14L21.228 114H19.548L15.02 103.696H15.66L11.132 114H9.484ZM11.644 111.2L12.076 109.92H18.38L18.844 111.2H11.644ZM22.8988 114V102.8H27.2668C28.2481 102.8 29.0854 102.955 29.7788 103.264C30.4721 103.573 31.0054 104.021 31.3788 104.608C31.7521 105.195 31.9388 105.893 31.9388 106.704C31.9388 107.515 31.7521 108.213 31.3788 108.8C31.0054 109.376 30.4721 109.819 29.7788 110.128C29.0854 110.437 28.2481 110.592 27.2668 110.592H23.7788L24.4988 109.856V114H22.8988ZM30.3868 114L27.5388 109.936H29.2508L32.1308 114H30.3868ZM24.4988 110.016L23.7788 109.232H27.2188C28.2428 109.232 29.0161 109.013 29.5388 108.576C30.0721 108.128 30.3388 107.504 30.3388 106.704C30.3388 105.904 30.0721 105.285 29.5388 104.848C29.0161 104.411 28.2428 104.192 27.2188 104.192H23.7788L24.4988 103.392V110.016ZM39.5798 114.128C38.7158 114.128 37.9211 113.989 37.1958 113.712C36.4704 113.424 35.8411 113.024 35.3078 112.512C34.7744 111.989 34.3584 111.381 34.0598 110.688C33.7611 109.995 33.6118 109.232 33.6118 108.4C33.6118 107.568 33.7611 106.805 34.0598 106.112C34.3584 105.419 34.7744 104.816 35.3078 104.304C35.8518 103.781 36.4864 103.381 37.2118 103.104C37.9371 102.816 38.7371 102.672 39.6118 102.672C40.4971 102.672 41.3078 102.816 42.0438 103.104C42.7798 103.392 43.4038 103.824 43.9158 104.4L42.9238 105.392C42.4651 104.944 41.9638 104.619 41.4198 104.416C40.8864 104.203 40.3051 104.096 39.6758 104.096C39.0358 104.096 38.4384 104.203 37.8838 104.416C37.3398 104.629 36.8651 104.928 36.4598 105.312C36.0651 105.696 35.7558 106.155 35.5318 106.688C35.3184 107.211 35.2118 107.781 35.2118 108.4C35.2118 109.008 35.3184 109.579 35.5318 110.112C35.7558 110.635 36.0651 111.093 36.4598 111.488C36.8651 111.872 37.3398 112.171 37.8838 112.384C38.4278 112.597 39.0198 112.704 39.6598 112.704C40.2571 112.704 40.8278 112.613 41.3718 112.432C41.9264 112.24 42.4384 111.925 42.9078 111.488L43.8198 112.704C43.2651 113.173 42.6144 113.531 41.8678 113.776C41.1318 114.011 40.3691 114.128 39.5798 114.128ZM42.2838 112.496V108.336H43.8198V112.704L42.2838 112.496ZM48.3391 107.632H54.0991V108.992H48.3391V107.632ZM48.4831 112.608H55.0111V114H46.8831V102.8H54.7871V104.192H48.4831V112.608Z" fill="black"/>
<path d="M3.36 136.07C2.75333 136.07 2.17933 135.986 1.638 135.818C1.09667 135.641 0.672 135.421 0.364 135.16L0.812 134.376C1.11067 134.6 1.49333 134.796 1.96 134.964C2.42667 135.123 2.91667 135.202 3.43 135.202C4.13 135.202 4.634 135.095 4.942 134.88C5.25 134.656 5.404 134.362 5.404 133.998C5.404 133.727 5.31533 133.517 5.138 133.368C4.97 133.209 4.746 133.093 4.466 133.018C4.186 132.934 3.87333 132.864 3.528 132.808C3.18267 132.752 2.83733 132.687 2.492 132.612C2.156 132.537 1.848 132.43 1.568 132.29C1.288 132.141 1.05933 131.94 0.882 131.688C0.714 131.436 0.63 131.1 0.63 130.68C0.63 130.279 0.742 129.919 0.966 129.602C1.19 129.285 1.51667 129.037 1.946 128.86C2.38467 128.673 2.91667 128.58 3.542 128.58C4.018 128.58 4.494 128.645 4.97 128.776C5.446 128.897 5.838 129.061 6.146 129.266L5.712 130.064C5.38533 129.84 5.03533 129.681 4.662 129.588C4.28867 129.485 3.91533 129.434 3.542 129.434C2.87933 129.434 2.38933 129.551 2.072 129.784C1.764 130.008 1.61 130.297 1.61 130.652C1.61 130.932 1.694 131.151 1.862 131.31C2.03933 131.469 2.268 131.595 2.548 131.688C2.83733 131.772 3.15 131.842 3.486 131.898C3.83133 131.954 4.172 132.024 4.508 132.108C4.85333 132.183 5.166 132.29 5.446 132.43C5.73533 132.561 5.964 132.752 6.132 133.004C6.30933 133.247 6.398 133.569 6.398 133.97C6.398 134.399 6.27667 134.773 6.034 135.09C5.80067 135.398 5.45533 135.641 4.998 135.818C4.55 135.986 4.004 136.07 3.36 136.07ZM11.3439 136.07C10.5786 136.07 9.9066 135.911 9.32794 135.594C8.74927 135.267 8.2966 134.824 7.96994 134.264C7.64327 133.695 7.47994 133.046 7.47994 132.318C7.47994 131.59 7.63394 130.946 7.94194 130.386C8.25927 129.826 8.6886 129.387 9.22994 129.07C9.7806 128.743 10.3966 128.58 11.0779 128.58C11.7686 128.58 12.3799 128.739 12.9119 129.056C13.4533 129.364 13.8779 129.803 14.1859 130.372C14.4939 130.932 14.6479 131.581 14.6479 132.318C14.6479 132.365 14.6433 132.416 14.6339 132.472C14.6339 132.519 14.6339 132.57 14.6339 132.626H8.23594V131.884H14.1019L13.7099 132.178C13.7099 131.646 13.5933 131.175 13.3599 130.764C13.1359 130.344 12.8279 130.017 12.4359 129.784C12.0439 129.551 11.5913 129.434 11.0779 129.434C10.5739 129.434 10.1213 129.551 9.71994 129.784C9.3186 130.017 9.00594 130.344 8.78194 130.764C8.55794 131.184 8.44594 131.665 8.44594 132.206V132.36C8.44594 132.92 8.56727 133.415 8.80994 133.844C9.06194 134.264 9.40727 134.595 9.84594 134.838C10.2939 135.071 10.8026 135.188 11.3719 135.188C11.8199 135.188 12.2353 135.109 12.6179 134.95C13.0099 134.791 13.3459 134.549 13.6259 134.222L14.1859 134.866C13.8593 135.258 13.4486 135.557 12.9539 135.762C12.4686 135.967 11.9319 136.07 11.3439 136.07ZM16.6712 136V125.612H17.6652V136H16.6712ZM23.5529 136.07C22.7876 136.07 22.1156 135.911 21.5369 135.594C20.9583 135.267 20.5056 134.824 20.1789 134.264C19.8523 133.695 19.6889 133.046 19.6889 132.318C19.6889 131.59 19.8429 130.946 20.1509 130.386C20.4683 129.826 20.8976 129.387 21.4389 129.07C21.9896 128.743 22.6056 128.58 23.2869 128.58C23.9776 128.58 24.5889 128.739 25.1209 129.056C25.6623 129.364 26.0869 129.803 26.3949 130.372C26.7029 130.932 26.8569 131.581 26.8569 132.318C26.8569 132.365 26.8523 132.416 26.8429 132.472C26.8429 132.519 26.8429 132.57 26.8429 132.626H20.4449V131.884H26.3109L25.9189 132.178C25.9189 131.646 25.8023 131.175 25.5689 130.764C25.3449 130.344 25.0369 130.017 24.6449 129.784C24.2529 129.551 23.8003 129.434 23.2869 129.434C22.7829 129.434 22.3303 129.551 21.9289 129.784C21.5276 130.017 21.2149 130.344 20.9909 130.764C20.7669 131.184 20.6549 131.665 20.6549 132.206V132.36C20.6549 132.92 20.7763 133.415 21.0189 133.844C21.2709 134.264 21.6163 134.595 22.0549 134.838C22.5029 135.071 23.0116 135.188 23.5809 135.188C24.0289 135.188 24.4443 135.109 24.8269 134.95C25.2189 134.791 25.5549 134.549 25.8349 134.222L26.3949 134.866C26.0683 135.258 25.6576 135.557 25.1629 135.762C24.6776 135.967 24.1409 136.07 23.5529 136.07ZM31.9321 136.07C31.2041 136.07 30.5508 135.911 29.9721 135.594C29.4028 135.267 28.9548 134.824 28.6281 134.264C28.3015 133.695 28.1381 133.046 28.1381 132.318C28.1381 131.581 28.3015 130.932 28.6281 130.372C28.9548 129.812 29.4028 129.373 29.9721 129.056C30.5508 128.739 31.2041 128.58 31.9321 128.58C32.5575 128.58 33.1221 128.701 33.6261 128.944C34.1301 129.187 34.5268 129.551 34.8161 130.036L34.0741 130.54C33.8221 130.167 33.5095 129.891 33.1361 129.714C32.7628 129.537 32.3568 129.448 31.9181 129.448C31.3955 129.448 30.9241 129.569 30.5041 129.812C30.0841 130.045 29.7528 130.377 29.5101 130.806C29.2675 131.235 29.1461 131.739 29.1461 132.318C29.1461 132.897 29.2675 133.401 29.5101 133.83C29.7528 134.259 30.0841 134.595 30.5041 134.838C30.9241 135.071 31.3955 135.188 31.9181 135.188C32.3568 135.188 32.7628 135.099 33.1361 134.922C33.5095 134.745 33.8221 134.474 34.0741 134.11L34.8161 134.614C34.5268 135.09 34.1301 135.454 33.6261 135.706C33.1221 135.949 32.5575 136.07 31.9321 136.07ZM39.1748 136.07C38.4842 136.07 37.9522 135.883 37.5788 135.51C37.2055 135.137 37.0188 134.609 37.0188 133.928V127.026H38.0128V133.872C38.0128 134.301 38.1202 134.633 38.3348 134.866C38.5588 135.099 38.8762 135.216 39.2868 135.216C39.7255 135.216 40.0895 135.09 40.3788 134.838L40.7288 135.552C40.5328 135.729 40.2948 135.86 40.0148 135.944C39.7442 136.028 39.4642 136.07 39.1748 136.07ZM35.7028 129.476V128.65H40.2528V129.476H35.7028ZM42.5383 136V128.65H43.5323V136H42.5383ZM43.0423 127.026C42.837 127.026 42.6643 126.956 42.5243 126.816C42.3843 126.676 42.3143 126.508 42.3143 126.312C42.3143 126.116 42.3843 125.953 42.5243 125.822C42.6643 125.682 42.837 125.612 43.0423 125.612C43.2477 125.612 43.4203 125.677 43.5603 125.808C43.7003 125.939 43.7703 126.102 43.7703 126.298C43.7703 126.503 43.7003 126.676 43.5603 126.816C43.4297 126.956 43.257 127.026 43.0423 127.026ZM49.2941 136.07C48.5848 136.07 47.9454 135.911 47.3761 135.594C46.8161 135.267 46.3728 134.824 46.0461 134.264C45.7194 133.695 45.5561 133.046 45.5561 132.318C45.5561 131.581 45.7194 130.932 46.0461 130.372C46.3728 129.812 46.8161 129.373 47.3761 129.056C47.9361 128.739 48.5754 128.58 49.2941 128.58C50.0221 128.58 50.6661 128.739 51.2261 129.056C51.7954 129.373 52.2388 129.812 52.5561 130.372C52.8828 130.932 53.0461 131.581 53.0461 132.318C53.0461 133.046 52.8828 133.695 52.5561 134.264C52.2388 134.824 51.7954 135.267 51.2261 135.594C50.6568 135.911 50.0128 136.07 49.2941 136.07ZM49.2941 135.188C49.8261 135.188 50.2974 135.071 50.7081 134.838C51.1188 134.595 51.4408 134.259 51.6741 133.83C51.9168 133.391 52.0381 132.887 52.0381 132.318C52.0381 131.739 51.9168 131.235 51.6741 130.806C51.4408 130.377 51.1188 130.045 50.7081 129.812C50.2974 129.569 49.8308 129.448 49.3081 129.448C48.7854 129.448 48.3188 129.569 47.9081 129.812C47.4974 130.045 47.1708 130.377 46.9281 130.806C46.6854 131.235 46.5641 131.739 46.5641 132.318C46.5641 132.887 46.6854 133.391 46.9281 133.83C47.1708 134.259 47.4974 134.595 47.9081 134.838C48.3188 135.071 48.7808 135.188 49.2941 135.188ZM58.8275 128.58C59.4248 128.58 59.9475 128.697 60.3955 128.93C60.8528 129.154 61.2075 129.499 61.4595 129.966C61.7208 130.433 61.8515 131.021 61.8515 131.73V136H60.8575V131.828C60.8575 131.053 60.6615 130.47 60.2695 130.078C59.8868 129.677 59.3455 129.476 58.6455 129.476C58.1228 129.476 57.6655 129.583 57.2735 129.798C56.8908 130.003 56.5921 130.307 56.3775 130.708C56.1721 131.1 56.0695 131.576 56.0695 132.136V136H55.0755V128.65H56.0275V130.666L55.8735 130.288C56.1068 129.756 56.4801 129.341 56.9935 129.042C57.5068 128.734 58.1181 128.58 58.8275 128.58ZM71.1965 136.07C70.4871 136.07 69.8478 135.911 69.2785 135.594C68.7185 135.267 68.2751 134.824 67.9485 134.264C67.6218 133.695 67.4585 133.046 67.4585 132.318C67.4585 131.581 67.6218 130.932 67.9485 130.372C68.2751 129.812 68.7185 129.373 69.2785 129.056C69.8385 128.739 70.4778 128.58 71.1965 128.58C71.9245 128.58 72.5685 128.739 73.1285 129.056C73.6978 129.373 74.1411 129.812 74.4585 130.372C74.7851 130.932 74.9485 131.581 74.9485 132.318C74.9485 133.046 74.7851 133.695 74.4585 134.264C74.1411 134.824 73.6978 135.267 73.1285 135.594C72.5591 135.911 71.9151 136.07 71.1965 136.07ZM71.1965 135.188C71.7285 135.188 72.1998 135.071 72.6105 134.838C73.0211 134.595 73.3431 134.259 73.5765 133.83C73.8191 133.391 73.9405 132.887 73.9405 132.318C73.9405 131.739 73.8191 131.235 73.5765 130.806C73.3431 130.377 73.0211 130.045 72.6105 129.812C72.1998 129.569 71.7331 129.448 71.2105 129.448C70.6878 129.448 70.2211 129.569 69.8105 129.812C69.3998 130.045 69.0731 130.377 68.8305 130.806C68.5878 131.235 68.4665 131.739 68.4665 132.318C68.4665 132.887 68.5878 133.391 68.8305 133.83C69.0731 134.259 69.3998 134.595 69.8105 134.838C70.2211 135.071 70.6831 135.188 71.1965 135.188ZM77.1458 136V127.726C77.1458 127.073 77.3371 126.545 77.7198 126.144C78.1025 125.743 78.6531 125.542 79.3718 125.542C79.6518 125.542 79.9225 125.579 80.1838 125.654C80.4451 125.729 80.6645 125.845 80.8418 126.004L80.5058 126.746C80.3658 126.625 80.2025 126.536 80.0158 126.48C79.8291 126.415 79.6285 126.382 79.4138 126.382C78.9938 126.382 78.6718 126.499 78.4478 126.732C78.2238 126.965 78.1118 127.311 78.1118 127.768V128.888L78.1398 129.35V136H77.1458ZM75.8298 129.476V128.65H80.3798V129.476H75.8298ZM94.57 128.58C95.1673 128.58 95.6853 128.697 96.124 128.93C96.572 129.154 96.9173 129.499 97.16 129.966C97.412 130.433 97.538 131.021 97.538 131.73V136H96.544V131.828C96.544 131.053 96.3573 130.47 95.984 130.078C95.62 129.677 95.102 129.476 94.43 129.476C93.926 129.476 93.4873 129.583 93.114 129.798C92.75 130.003 92.4653 130.307 92.26 130.708C92.064 131.1 91.966 131.576 91.966 132.136V136H90.972V131.828C90.972 131.053 90.7853 130.47 90.412 130.078C90.0387 129.677 89.516 129.476 88.844 129.476C88.3493 129.476 87.9153 129.583 87.542 129.798C87.1687 130.003 86.8793 130.307 86.674 130.708C86.478 131.1 86.38 131.576 86.38 132.136V136H85.386V128.65H86.338V130.638L86.184 130.288C86.408 129.756 86.7673 129.341 87.262 129.042C87.766 128.734 88.3587 128.58 89.04 128.58C89.7587 128.58 90.37 128.762 90.874 129.126C91.378 129.481 91.7047 130.017 91.854 130.736L91.462 130.582C91.6767 129.985 92.0547 129.504 92.596 129.14C93.1467 128.767 93.8047 128.58 94.57 128.58ZM103.356 136.07C102.59 136.07 101.918 135.911 101.34 135.594C100.761 135.267 100.308 134.824 99.9817 134.264C99.655 133.695 99.4917 133.046 99.4917 132.318C99.4917 131.59 99.6457 130.946 99.9537 130.386C100.271 129.826 100.7 129.387 101.242 129.07C101.792 128.743 102.408 128.58 103.09 128.58C103.78 128.58 104.392 128.739 104.924 129.056C105.465 129.364 105.89 129.803 106.198 130.372C106.506 130.932 106.66 131.581 106.66 132.318C106.66 132.365 106.655 132.416 106.646 132.472C106.646 132.519 106.646 132.57 106.646 132.626H100.248V131.884H106.114L105.722 132.178C105.722 131.646 105.605 131.175 105.372 130.764C105.148 130.344 104.84 130.017 104.448 129.784C104.056 129.551 103.603 129.434 103.09 129.434C102.586 129.434 102.133 129.551 101.732 129.784C101.33 130.017 101.018 130.344 100.794 130.764C100.57 131.184 100.458 131.665 100.458 132.206V132.36C100.458 132.92 100.579 133.415 100.822 133.844C101.074 134.264 101.419 134.595 101.858 134.838C102.306 135.071 102.814 135.188 103.384 135.188C103.832 135.188 104.247 135.109 104.63 134.95C105.022 134.791 105.358 134.549 105.638 134.222L106.198 134.866C105.871 135.258 105.46 135.557 104.966 135.762C104.48 135.967 103.944 136.07 103.356 136.07ZM108.683 136V128.65H109.635V130.652L109.537 130.302C109.742 129.742 110.088 129.317 110.573 129.028C111.058 128.729 111.66 128.58 112.379 128.58V129.546C112.342 129.546 112.304 129.546 112.267 129.546C112.23 129.537 112.192 129.532 112.155 129.532C111.38 129.532 110.774 129.77 110.335 130.246C109.896 130.713 109.677 131.38 109.677 132.248V136H108.683ZM117.176 136.07C116.448 136.07 115.795 135.911 115.216 135.594C114.647 135.267 114.199 134.824 113.872 134.264C113.546 133.695 113.382 133.046 113.382 132.318C113.382 131.581 113.546 130.932 113.872 130.372C114.199 129.812 114.647 129.373 115.216 129.056C115.795 128.739 116.448 128.58 117.176 128.58C117.802 128.58 118.366 128.701 118.87 128.944C119.374 129.187 119.771 129.551 120.06 130.036L119.318 130.54C119.066 130.167 118.754 129.891 118.38 129.714C118.007 129.537 117.601 129.448 117.162 129.448C116.64 129.448 116.168 129.569 115.748 129.812C115.328 130.045 114.997 130.377 114.754 130.806C114.512 131.235 114.39 131.739 114.39 132.318C114.39 132.897 114.512 133.401 114.754 133.83C114.997 134.259 115.328 134.595 115.748 134.838C116.168 135.071 116.64 135.188 117.162 135.188C117.601 135.188 118.007 135.099 118.38 134.922C118.754 134.745 119.066 134.474 119.318 134.11L120.06 134.614C119.771 135.09 119.374 135.454 118.87 135.706C118.366 135.949 117.802 136.07 117.176 136.07ZM125.656 128.58C126.253 128.58 126.776 128.697 127.224 128.93C127.681 129.154 128.036 129.499 128.288 129.966C128.549 130.433 128.68 131.021 128.68 131.73V136H127.686V131.828C127.686 131.053 127.49 130.47 127.098 130.078C126.715 129.677 126.174 129.476 125.474 129.476C124.951 129.476 124.494 129.583 124.102 129.798C123.719 130.003 123.42 130.307 123.206 130.708C123 131.1 122.898 131.576 122.898 132.136V136H121.904V125.612H122.898V130.666L122.702 130.288C122.935 129.756 123.308 129.341 123.822 129.042C124.335 128.734 124.946 128.58 125.656 128.58ZM135.971 136V134.376L135.929 134.11V131.394C135.929 130.769 135.751 130.288 135.397 129.952C135.051 129.616 134.533 129.448 133.843 129.448C133.367 129.448 132.914 129.527 132.485 129.686C132.055 129.845 131.691 130.055 131.393 130.316L130.945 129.574C131.318 129.257 131.766 129.014 132.289 128.846C132.811 128.669 133.362 128.58 133.941 128.58C134.893 128.58 135.625 128.818 136.139 129.294C136.661 129.761 136.923 130.475 136.923 131.436V136H135.971ZM133.437 136.07C132.886 136.07 132.405 135.981 131.995 135.804C131.593 135.617 131.285 135.365 131.071 135.048C130.856 134.721 130.749 134.348 130.749 133.928C130.749 133.545 130.837 133.2 131.015 132.892C131.201 132.575 131.5 132.323 131.911 132.136C132.331 131.94 132.891 131.842 133.591 131.842H136.125V132.584H133.619C132.909 132.584 132.415 132.71 132.135 132.962C131.864 133.214 131.729 133.527 131.729 133.9C131.729 134.32 131.892 134.656 132.219 134.908C132.545 135.16 133.003 135.286 133.591 135.286C134.151 135.286 134.631 135.16 135.033 134.908C135.443 134.647 135.742 134.273 135.929 133.788L136.153 134.474C135.966 134.959 135.639 135.347 135.173 135.636C134.715 135.925 134.137 136.07 133.437 136.07ZM143.374 128.58C143.972 128.58 144.494 128.697 144.942 128.93C145.4 129.154 145.754 129.499 146.006 129.966C146.268 130.433 146.398 131.021 146.398 131.73V136H145.404V131.828C145.404 131.053 145.208 130.47 144.816 130.078C144.434 129.677 143.892 129.476 143.192 129.476C142.67 129.476 142.212 129.583 141.82 129.798C141.438 130.003 141.139 130.307 140.924 130.708C140.719 131.1 140.616 131.576 140.616 132.136V136H139.622V128.65H140.574V130.666L140.42 130.288C140.654 129.756 141.027 129.341 141.54 129.042C142.054 128.734 142.665 128.58 143.374 128.58ZM152.009 136.07C151.309 136.07 150.679 135.911 150.119 135.594C149.569 135.277 149.135 134.838 148.817 134.278C148.5 133.709 148.341 133.055 148.341 132.318C148.341 131.571 148.5 130.918 148.817 130.358C149.135 129.798 149.569 129.364 150.119 129.056C150.679 128.739 151.309 128.58 152.009 128.58C152.653 128.58 153.227 128.725 153.731 129.014C154.245 129.303 154.651 129.728 154.949 130.288C155.257 130.839 155.411 131.515 155.411 132.318C155.411 133.111 155.262 133.788 154.963 134.348C154.665 134.908 154.259 135.337 153.745 135.636C153.241 135.925 152.663 136.07 152.009 136.07ZM152.079 135.188C152.602 135.188 153.069 135.071 153.479 134.838C153.899 134.595 154.226 134.259 154.459 133.83C154.702 133.391 154.823 132.887 154.823 132.318C154.823 131.739 154.702 131.235 154.459 130.806C154.226 130.377 153.899 130.045 153.479 129.812C153.069 129.569 152.602 129.448 152.079 129.448C151.566 129.448 151.104 129.569 150.693 129.812C150.283 130.045 149.956 130.377 149.713 130.806C149.471 131.235 149.349 131.739 149.349 132.318C149.349 132.887 149.471 133.391 149.713 133.83C149.956 134.259 150.283 134.595 150.693 134.838C151.104 135.071 151.566 135.188 152.079 135.188ZM154.851 136V133.788L154.949 132.304L154.809 130.82V125.612H155.803V136H154.851ZM158.572 136V128.65H159.566V136H158.572ZM159.076 127.026C158.87 127.026 158.698 126.956 158.558 126.816C158.418 126.676 158.348 126.508 158.348 126.312C158.348 126.116 158.418 125.953 158.558 125.822C158.698 125.682 158.87 125.612 159.076 125.612C159.281 125.612 159.454 125.677 159.594 125.808C159.734 125.939 159.804 126.102 159.804 126.298C159.804 126.503 159.734 126.676 159.594 126.816C159.463 126.956 159.29 127.026 159.076 127.026ZM164.305 136.07C163.699 136.07 163.125 135.986 162.583 135.818C162.042 135.641 161.617 135.421 161.309 135.16L161.757 134.376C162.056 134.6 162.439 134.796 162.905 134.964C163.372 135.123 163.862 135.202 164.375 135.202C165.075 135.202 165.579 135.095 165.887 134.88C166.195 134.656 166.349 134.362 166.349 133.998C166.349 133.727 166.261 133.517 166.083 133.368C165.915 133.209 165.691 133.093 165.411 133.018C165.131 132.934 164.819 132.864 164.473 132.808C164.128 132.752 163.783 132.687 163.437 132.612C163.101 132.537 162.793 132.43 162.513 132.29C162.233 132.141 162.005 131.94 161.827 131.688C161.659 131.436 161.575 131.1 161.575 130.68C161.575 130.279 161.687 129.919 161.911 129.602C162.135 129.285 162.462 129.037 162.891 128.86C163.33 128.673 163.862 128.58 164.487 128.58C164.963 128.58 165.439 128.645 165.915 128.776C166.391 128.897 166.783 129.061 167.091 129.266L166.657 130.064C166.331 129.84 165.981 129.681 165.607 129.588C165.234 129.485 164.861 129.434 164.487 129.434C163.825 129.434 163.335 129.551 163.017 129.784C162.709 130.008 162.555 130.297 162.555 130.652C162.555 130.932 162.639 131.151 162.807 131.31C162.985 131.469 163.213 131.595 163.493 131.688C163.783 131.772 164.095 131.842 164.431 131.898C164.777 131.954 165.117 132.024 165.453 132.108C165.799 132.183 166.111 132.29 166.391 132.43C166.681 132.561 166.909 132.752 167.077 133.004C167.255 133.247 167.343 133.569 167.343 133.97C167.343 134.399 167.222 134.773 166.979 135.09C166.746 135.398 166.401 135.641 165.943 135.818C165.495 135.986 164.949 136.07 164.305 136.07ZM172.289 136.07C171.524 136.07 170.852 135.911 170.273 135.594C169.695 135.267 169.242 134.824 168.915 134.264C168.589 133.695 168.425 133.046 168.425 132.318C168.425 131.59 168.579 130.946 168.887 130.386C169.205 129.826 169.634 129.387 170.175 129.07C170.726 128.743 171.342 128.58 172.023 128.58C172.714 128.58 173.325 128.739 173.857 129.056C174.399 129.364 174.823 129.803 175.131 130.372C175.439 130.932 175.593 131.581 175.593 132.318C175.593 132.365 175.589 132.416 175.579 132.472C175.579 132.519 175.579 132.57 175.579 132.626H169.181V131.884H175.047L174.655 132.178C174.655 131.646 174.539 131.175 174.305 130.764C174.081 130.344 173.773 130.017 173.381 129.784C172.989 129.551 172.537 129.434 172.023 129.434C171.519 129.434 171.067 129.551 170.665 129.784C170.264 130.017 169.951 130.344 169.727 130.764C169.503 131.184 169.391 131.665 169.391 132.206V132.36C169.391 132.92 169.513 133.415 169.755 133.844C170.007 134.264 170.353 134.595 170.791 134.838C171.239 135.071 171.748 135.188 172.317 135.188C172.765 135.188 173.181 135.109 173.563 134.95C173.955 134.791 174.291 134.549 174.571 134.222L175.131 134.866C174.805 135.258 174.394 135.557 173.899 135.762C173.414 135.967 172.877 136.07 172.289 136.07Z" fill="black"/>
<path d="M253.256 114L249.512 102.8H251.16L254.6 113.136H253.768L257.336 102.8H258.808L262.296 113.136H261.496L264.984 102.8H266.504L262.76 114H261.08L257.816 104.416H258.248L254.968 114H253.256ZM271.373 114.096C270.466 114.096 269.666 113.909 268.973 113.536C268.29 113.163 267.757 112.651 267.373 112C266.999 111.349 266.813 110.603 266.813 109.76C266.813 108.917 266.994 108.171 267.357 107.52C267.73 106.869 268.237 106.363 268.877 106C269.527 105.627 270.258 105.44 271.069 105.44C271.89 105.44 272.615 105.621 273.245 105.984C273.874 106.347 274.365 106.859 274.717 107.52C275.079 108.171 275.261 108.933 275.261 109.808C275.261 109.872 275.255 109.947 275.245 110.032C275.245 110.117 275.239 110.197 275.229 110.272H268.013V109.168H274.429L273.805 109.552C273.815 109.008 273.703 108.523 273.469 108.096C273.234 107.669 272.909 107.339 272.493 107.104C272.087 106.859 271.613 106.736 271.069 106.736C270.535 106.736 270.061 106.859 269.645 107.104C269.229 107.339 268.903 107.675 268.669 108.112C268.434 108.539 268.317 109.029 268.317 109.584V109.84C268.317 110.405 268.445 110.912 268.701 111.36C268.967 111.797 269.335 112.139 269.805 112.384C270.274 112.629 270.813 112.752 271.421 112.752C271.922 112.752 272.375 112.667 272.781 112.496C273.197 112.325 273.559 112.069 273.869 111.728L274.717 112.72C274.333 113.168 273.853 113.509 273.277 113.744C272.711 113.979 272.077 114.096 271.373 114.096ZM286.186 114.096C285.482 114.096 284.837 113.936 284.25 113.616C283.674 113.285 283.21 112.8 282.858 112.16C282.517 111.52 282.346 110.72 282.346 109.76C282.346 108.8 282.512 108 282.842 107.36C283.184 106.72 283.642 106.24 284.218 105.92C284.805 105.6 285.461 105.44 286.186 105.44C287.018 105.44 287.754 105.621 288.394 105.984C289.034 106.347 289.541 106.853 289.914 107.504C290.288 108.144 290.474 108.896 290.474 109.76C290.474 110.624 290.288 111.381 289.914 112.032C289.541 112.683 289.034 113.189 288.394 113.552C287.754 113.915 287.018 114.096 286.186 114.096ZM281.69 117.104V105.52H283.162V107.808L283.066 109.776L283.226 111.744V117.104H281.69ZM286.058 112.752C286.602 112.752 287.088 112.629 287.514 112.384C287.952 112.139 288.293 111.792 288.538 111.344C288.794 110.885 288.922 110.357 288.922 109.76C288.922 109.152 288.794 108.629 288.538 108.192C288.293 107.744 287.952 107.397 287.514 107.152C287.088 106.907 286.602 106.784 286.058 106.784C285.525 106.784 285.04 106.907 284.602 107.152C284.176 107.397 283.834 107.744 283.578 108.192C283.333 108.629 283.21 109.152 283.21 109.76C283.21 110.357 283.333 110.885 283.578 111.344C283.834 111.792 284.176 112.139 284.602 112.384C285.04 112.629 285.525 112.752 286.058 112.752ZM297.783 114V112.208L297.703 111.872V108.816C297.703 108.165 297.511 107.664 297.127 107.312C296.753 106.949 296.188 106.768 295.431 106.768C294.929 106.768 294.439 106.853 293.959 107.024C293.479 107.184 293.073 107.403 292.743 107.68L292.103 106.528C292.54 106.176 293.063 105.909 293.671 105.728C294.289 105.536 294.935 105.44 295.607 105.44C296.769 105.44 297.665 105.723 298.295 106.288C298.924 106.853 299.239 107.717 299.239 108.88V114H297.783ZM294.999 114.096C294.369 114.096 293.815 113.989 293.335 113.776C292.865 113.563 292.503 113.269 292.247 112.896C291.991 112.512 291.863 112.08 291.863 111.6C291.863 111.141 291.969 110.725 292.183 110.352C292.407 109.979 292.764 109.68 293.255 109.456C293.756 109.232 294.428 109.12 295.271 109.12H297.959V110.224H295.335C294.567 110.224 294.049 110.352 293.783 110.608C293.516 110.864 293.383 111.173 293.383 111.536C293.383 111.952 293.548 112.288 293.879 112.544C294.209 112.789 294.668 112.912 295.255 112.912C295.831 112.912 296.332 112.784 296.759 112.528C297.196 112.272 297.511 111.899 297.703 111.408L298.007 112.464C297.804 112.965 297.447 113.365 296.935 113.664C296.423 113.952 295.777 114.096 294.999 114.096ZM302.293 117.2C301.887 117.2 301.493 117.131 301.109 116.992C300.725 116.864 300.394 116.672 300.117 116.416L300.773 115.264C300.986 115.467 301.221 115.621 301.477 115.728C301.733 115.835 302.005 115.888 302.293 115.888C302.666 115.888 302.975 115.792 303.221 115.6C303.466 115.408 303.695 115.067 303.909 114.576L304.437 113.408L304.597 113.216L307.925 105.52H309.429L305.317 114.848C305.071 115.445 304.794 115.915 304.485 116.256C304.186 116.597 303.855 116.837 303.493 116.976C303.13 117.125 302.73 117.2 302.293 117.2ZM304.309 114.272L300.437 105.52H302.037L305.333 113.072L304.309 114.272Z" fill="black"/>
<path d="M259.57 128.58C260.167 128.58 260.685 128.697 261.124 128.93C261.572 129.154 261.917 129.499 262.16 129.966C262.412 130.433 262.538 131.021 262.538 131.73V136H261.544V131.828C261.544 131.053 261.357 130.47 260.984 130.078C260.62 129.677 260.102 129.476 259.43 129.476C258.926 129.476 258.487 129.583 258.114 129.798C257.75 130.003 257.465 130.307 257.26 130.708C257.064 131.1 256.966 131.576 256.966 132.136V136H255.972V131.828C255.972 131.053 255.785 130.47 255.412 130.078C255.039 129.677 254.516 129.476 253.844 129.476C253.349 129.476 252.915 129.583 252.542 129.798C252.169 130.003 251.879 130.307 251.674 130.708C251.478 131.1 251.38 131.576 251.38 132.136V136H250.386V128.65H251.338V130.638L251.184 130.288C251.408 129.756 251.767 129.341 252.262 129.042C252.766 128.734 253.359 128.58 254.04 128.58C254.759 128.58 255.37 128.762 255.874 129.126C256.378 129.481 256.705 130.017 256.854 130.736L256.462 130.582C256.677 129.985 257.055 129.504 257.596 129.14C258.147 128.767 258.805 128.58 259.57 128.58ZM268.23 136.07C267.52 136.07 266.881 135.911 266.312 135.594C265.752 135.267 265.308 134.824 264.982 134.264C264.655 133.695 264.492 133.046 264.492 132.318C264.492 131.581 264.655 130.932 264.982 130.372C265.308 129.812 265.752 129.373 266.312 129.056C266.872 128.739 267.511 128.58 268.23 128.58C268.958 128.58 269.602 128.739 270.162 129.056C270.731 129.373 271.174 129.812 271.492 130.372C271.818 130.932 271.982 131.581 271.982 132.318C271.982 133.046 271.818 133.695 271.492 134.264C271.174 134.824 270.731 135.267 270.162 135.594C269.592 135.911 268.948 136.07 268.23 136.07ZM268.23 135.188C268.762 135.188 269.233 135.071 269.644 134.838C270.054 134.595 270.376 134.259 270.61 133.83C270.852 133.391 270.974 132.887 270.974 132.318C270.974 131.739 270.852 131.235 270.61 130.806C270.376 130.377 270.054 130.045 269.644 129.812C269.233 129.569 268.766 129.448 268.244 129.448C267.721 129.448 267.254 129.569 266.844 129.812C266.433 130.045 266.106 130.377 265.864 130.806C265.621 131.235 265.5 131.739 265.5 132.318C265.5 132.887 265.621 133.391 265.864 133.83C266.106 134.259 266.433 134.595 266.844 134.838C267.254 135.071 267.716 135.188 268.23 135.188ZM274.011 136V128.65H274.963V130.652L274.865 130.302C275.07 129.742 275.416 129.317 275.901 129.028C276.386 128.729 276.988 128.58 277.707 128.58V129.546C277.67 129.546 277.632 129.546 277.595 129.546C277.558 129.537 277.52 129.532 277.483 129.532C276.708 129.532 276.102 129.77 275.663 130.246C275.224 130.713 275.005 131.38 275.005 132.248V136H274.011ZM282.574 136.07C281.809 136.07 281.137 135.911 280.558 135.594C279.98 135.267 279.527 134.824 279.2 134.264C278.874 133.695 278.71 133.046 278.71 132.318C278.71 131.59 278.864 130.946 279.172 130.386C279.49 129.826 279.919 129.387 280.46 129.07C281.011 128.743 281.627 128.58 282.308 128.58C282.999 128.58 283.61 128.739 284.142 129.056C284.684 129.364 285.108 129.803 285.416 130.372C285.724 130.932 285.878 131.581 285.878 132.318C285.878 132.365 285.874 132.416 285.864 132.472C285.864 132.519 285.864 132.57 285.864 132.626H279.466V131.884H285.332L284.94 132.178C284.94 131.646 284.824 131.175 284.59 130.764C284.366 130.344 284.058 130.017 283.666 129.784C283.274 129.551 282.822 129.434 282.308 129.434C281.804 129.434 281.352 129.551 280.95 129.784C280.549 130.017 280.236 130.344 280.012 130.764C279.788 131.184 279.676 131.665 279.676 132.206V132.36C279.676 132.92 279.798 133.415 280.04 133.844C280.292 134.264 280.638 134.595 281.076 134.838C281.524 135.071 282.033 135.188 282.602 135.188C283.05 135.188 283.466 135.109 283.848 134.95C284.24 134.791 284.576 134.549 284.856 134.222L285.416 134.866C285.09 135.258 284.679 135.557 284.184 135.762C283.699 135.967 283.162 136.07 282.574 136.07ZM291.734 136V127.726C291.734 127.073 291.925 126.545 292.308 126.144C292.69 125.743 293.241 125.542 293.96 125.542C294.24 125.542 294.51 125.579 294.772 125.654C295.033 125.729 295.252 125.845 295.43 126.004L295.094 126.746C294.954 126.625 294.79 126.536 294.604 126.48C294.417 126.415 294.216 126.382 294.002 126.382C293.582 126.382 293.26 126.499 293.036 126.732C292.812 126.965 292.7 127.311 292.7 127.768V128.888L292.728 129.35V136H291.734ZM290.418 129.476V128.65H294.968V129.476H290.418ZM299.183 136.07C298.473 136.07 297.834 135.911 297.265 135.594C296.705 135.267 296.261 134.824 295.935 134.264C295.608 133.695 295.445 133.046 295.445 132.318C295.445 131.581 295.608 130.932 295.935 130.372C296.261 129.812 296.705 129.373 297.265 129.056C297.825 128.739 298.464 128.58 299.183 128.58C299.911 128.58 300.555 128.739 301.115 129.056C301.684 129.373 302.127 129.812 302.445 130.372C302.771 130.932 302.935 131.581 302.935 132.318C302.935 133.046 302.771 133.695 302.445 134.264C302.127 134.824 301.684 135.267 301.115 135.594C300.545 135.911 299.901 136.07 299.183 136.07ZM299.183 135.188C299.715 135.188 300.186 135.071 300.597 134.838C301.007 134.595 301.329 134.259 301.563 133.83C301.805 133.391 301.927 132.887 301.927 132.318C301.927 131.739 301.805 131.235 301.563 130.806C301.329 130.377 301.007 130.045 300.597 129.812C300.186 129.569 299.719 129.448 299.197 129.448C298.674 129.448 298.207 129.569 297.797 129.812C297.386 130.045 297.059 130.377 296.817 130.806C296.574 131.235 296.453 131.739 296.453 132.318C296.453 132.887 296.574 133.391 296.817 133.83C297.059 134.259 297.386 134.595 297.797 134.838C298.207 135.071 298.669 135.188 299.183 135.188ZM304.964 136V128.65H305.916V130.652L305.818 130.302C306.023 129.742 306.369 129.317 306.854 129.028C307.339 128.729 307.941 128.58 308.66 128.58V129.546C308.623 129.546 308.585 129.546 308.548 129.546C308.511 129.537 308.473 129.532 308.436 129.532C307.661 129.532 307.055 129.77 306.616 130.246C306.177 130.713 305.958 131.38 305.958 132.248V136H304.964ZM314.303 138.786C313.958 138.786 313.627 138.73 313.309 138.618C313.001 138.506 312.735 138.338 312.511 138.114L312.973 137.372C313.16 137.549 313.361 137.685 313.575 137.778C313.799 137.881 314.047 137.932 314.317 137.932C314.644 137.932 314.924 137.839 315.157 137.652C315.4 137.475 315.629 137.157 315.843 136.7L316.319 135.622L316.431 135.468L319.455 128.65H320.435L316.753 136.882C316.548 137.358 316.319 137.736 316.067 138.016C315.825 138.296 315.559 138.492 315.269 138.604C314.98 138.725 314.658 138.786 314.303 138.786ZM316.263 136.21L312.875 128.65H313.911L316.907 135.398L316.263 136.21ZM324.626 136.07C323.917 136.07 323.277 135.911 322.708 135.594C322.148 135.267 321.705 134.824 321.378 134.264C321.051 133.695 320.888 133.046 320.888 132.318C320.888 131.581 321.051 130.932 321.378 130.372C321.705 129.812 322.148 129.373 322.708 129.056C323.268 128.739 323.907 128.58 324.626 128.58C325.354 128.58 325.998 128.739 326.558 129.056C327.127 129.373 327.571 129.812 327.888 130.372C328.215 130.932 328.378 131.581 328.378 132.318C328.378 133.046 328.215 133.695 327.888 134.264C327.571 134.824 327.127 135.267 326.558 135.594C325.989 135.911 325.345 136.07 324.626 136.07ZM324.626 135.188C325.158 135.188 325.629 135.071 326.04 134.838C326.451 134.595 326.773 134.259 327.006 133.83C327.249 133.391 327.37 132.887 327.37 132.318C327.37 131.739 327.249 131.235 327.006 130.806C326.773 130.377 326.451 130.045 326.04 129.812C325.629 129.569 325.163 129.448 324.64 129.448C324.117 129.448 323.651 129.569 323.24 129.812C322.829 130.045 322.503 130.377 322.26 130.806C322.017 131.235 321.896 131.739 321.896 132.318C321.896 132.887 322.017 133.391 322.26 133.83C322.503 134.259 322.829 134.595 323.24 134.838C323.651 135.071 324.113 135.188 324.626 135.188ZM333.445 136.07C332.82 136.07 332.274 135.953 331.807 135.72C331.341 135.487 330.977 135.137 330.715 134.67C330.463 134.203 330.337 133.62 330.337 132.92V128.65H331.331V132.808C331.331 133.592 331.523 134.185 331.905 134.586C332.297 134.978 332.843 135.174 333.543 135.174C334.057 135.174 334.5 135.071 334.873 134.866C335.256 134.651 335.545 134.343 335.741 133.942C335.947 133.541 336.049 133.06 336.049 132.5V128.65H337.043V136H336.091V133.984L336.245 134.348C336.012 134.889 335.648 135.314 335.153 135.622C334.668 135.921 334.099 136.07 333.445 136.07ZM339.814 136V128.65H340.766V130.652L340.668 130.302C340.873 129.742 341.218 129.317 341.704 129.028C342.189 128.729 342.791 128.58 343.51 128.58V129.546C343.472 129.546 343.435 129.546 343.398 129.546C343.36 129.537 343.323 129.532 343.286 129.532C342.511 129.532 341.904 129.77 341.466 130.246C341.027 130.713 340.808 131.38 340.808 132.248V136H339.814ZM352.891 136.07C352.256 136.07 351.682 135.925 351.169 135.636C350.656 135.337 350.245 134.913 349.937 134.362C349.638 133.802 349.489 133.121 349.489 132.318C349.489 131.515 349.638 130.839 349.937 130.288C350.236 129.728 350.642 129.303 351.155 129.014C351.668 128.725 352.247 128.58 352.891 128.58C353.591 128.58 354.216 128.739 354.767 129.056C355.327 129.364 355.766 129.803 356.083 130.372C356.4 130.932 356.559 131.581 356.559 132.318C356.559 133.065 356.4 133.718 356.083 134.278C355.766 134.838 355.327 135.277 354.767 135.594C354.216 135.911 353.591 136.07 352.891 136.07ZM349.097 138.716V128.65H350.049V130.862L349.951 132.332L350.091 133.816V138.716H349.097ZM352.821 135.188C353.344 135.188 353.81 135.071 354.221 134.838C354.632 134.595 354.958 134.259 355.201 133.83C355.444 133.391 355.565 132.887 355.565 132.318C355.565 131.749 355.444 131.249 355.201 130.82C354.958 130.391 354.632 130.055 354.221 129.812C353.81 129.569 353.344 129.448 352.821 129.448C352.298 129.448 351.827 129.569 351.407 129.812C350.996 130.055 350.67 130.391 350.427 130.82C350.194 131.249 350.077 131.749 350.077 132.318C350.077 132.887 350.194 133.391 350.427 133.83C350.67 134.259 350.996 134.595 351.407 134.838C351.827 135.071 352.298 135.188 352.821 135.188ZM363.15 136V134.376L363.108 134.11V131.394C363.108 130.769 362.931 130.288 362.576 129.952C362.231 129.616 361.713 129.448 361.022 129.448C360.546 129.448 360.094 129.527 359.664 129.686C359.235 129.845 358.871 130.055 358.572 130.316L358.124 129.574C358.498 129.257 358.946 129.014 359.468 128.846C359.991 128.669 360.542 128.58 361.12 128.58C362.072 128.58 362.805 128.818 363.318 129.294C363.841 129.761 364.102 130.475 364.102 131.436V136H363.15ZM360.616 136.07C360.066 136.07 359.585 135.981 359.174 135.804C358.773 135.617 358.465 135.365 358.25 135.048C358.036 134.721 357.928 134.348 357.928 133.928C357.928 133.545 358.017 133.2 358.194 132.892C358.381 132.575 358.68 132.323 359.09 132.136C359.51 131.94 360.07 131.842 360.77 131.842H363.304V132.584H360.798C360.089 132.584 359.594 132.71 359.314 132.962C359.044 133.214 358.908 133.527 358.908 133.9C358.908 134.32 359.072 134.656 359.398 134.908C359.725 135.16 360.182 135.286 360.77 135.286C361.33 135.286 361.811 135.16 362.212 134.908C362.623 134.647 362.922 134.273 363.108 133.788L363.332 134.474C363.146 134.959 362.819 135.347 362.352 135.636C361.895 135.925 361.316 136.07 360.616 136.07ZM368.163 136L365.391 128.65H366.343L368.863 135.468H368.429L371.019 128.65H371.873L374.435 135.468H374.001L376.563 128.65H377.473L374.687 136H373.749L371.285 129.588H371.579L369.101 136H368.163ZM382.722 128.58C383.319 128.58 383.842 128.697 384.29 128.93C384.747 129.154 385.102 129.499 385.354 129.966C385.615 130.433 385.746 131.021 385.746 131.73V136H384.752V131.828C384.752 131.053 384.556 130.47 384.164 130.078C383.781 129.677 383.24 129.476 382.54 129.476C382.017 129.476 381.56 129.583 381.168 129.798C380.785 130.003 380.487 130.307 380.272 130.708C380.067 131.1 379.964 131.576 379.964 132.136V136H378.97V128.65H379.922V130.666L379.768 130.288C380.001 129.756 380.375 129.341 380.888 129.042C381.401 128.734 382.013 128.58 382.722 128.58Z" fill="black"/>
<path d="M461.68 114V102.8H463.28V114H461.68ZM469.321 114.096C468.468 114.096 467.806 113.867 467.337 113.408C466.868 112.949 466.633 112.293 466.633 111.44V103.664H468.169V111.376C468.169 111.835 468.281 112.187 468.505 112.432C468.74 112.677 469.07 112.8 469.497 112.8C469.977 112.8 470.377 112.667 470.697 112.4L471.177 113.504C470.942 113.707 470.66 113.856 470.329 113.952C470.009 114.048 469.673 114.096 469.321 114.096ZM465.193 106.784V105.52H470.601V106.784H465.193ZM476.529 114.096C475.622 114.096 474.822 113.909 474.129 113.536C473.446 113.163 472.913 112.651 472.529 112C472.156 111.349 471.969 110.603 471.969 109.76C471.969 108.917 472.15 108.171 472.513 107.52C472.886 106.869 473.393 106.363 474.033 106C474.684 105.627 475.414 105.44 476.225 105.44C477.046 105.44 477.772 105.621 478.401 105.984C479.03 106.347 479.521 106.859 479.873 107.52C480.236 108.171 480.417 108.933 480.417 109.808C480.417 109.872 480.412 109.947 480.401 110.032C480.401 110.117 480.396 110.197 480.385 110.272H473.169V109.168H479.585L478.961 109.552C478.972 109.008 478.86 108.523 478.625 108.096C478.39 107.669 478.065 107.339 477.649 107.104C477.244 106.859 476.769 106.736 476.225 106.736C475.692 106.736 475.217 106.859 474.801 107.104C474.385 107.339 474.06 107.675 473.825 108.112C473.59 108.539 473.473 109.029 473.473 109.584V109.84C473.473 110.405 473.601 110.912 473.857 111.36C474.124 111.797 474.492 112.139 474.961 112.384C475.43 112.629 475.969 112.752 476.577 112.752C477.078 112.752 477.532 112.667 477.937 112.496C478.353 112.325 478.716 112.069 479.025 111.728L479.873 112.72C479.489 113.168 479.009 113.509 478.433 113.744C477.868 113.979 477.233 114.096 476.529 114.096ZM493.158 105.44C493.84 105.44 494.443 105.573 494.966 105.84C495.488 106.107 495.894 106.512 496.182 107.056C496.48 107.6 496.63 108.288 496.63 109.12V114H495.094V109.296C495.094 108.475 494.902 107.856 494.518 107.44C494.134 107.024 493.595 106.816 492.902 106.816C492.39 106.816 491.942 106.923 491.558 107.136C491.174 107.349 490.875 107.664 490.662 108.08C490.459 108.496 490.358 109.013 490.358 109.632V114H488.822V109.296C488.822 108.475 488.63 107.856 488.246 107.44C487.872 107.024 487.334 106.816 486.63 106.816C486.128 106.816 485.686 106.923 485.302 107.136C484.918 107.349 484.619 107.664 484.406 108.08C484.192 108.496 484.086 109.013 484.086 109.632V114H482.55V105.52H484.022V107.776L483.782 107.2C484.048 106.645 484.459 106.213 485.014 105.904C485.568 105.595 486.214 105.44 486.95 105.44C487.76 105.44 488.459 105.643 489.046 106.048C489.632 106.443 490.016 107.045 490.198 107.856L489.574 107.6C489.83 106.949 490.278 106.427 490.918 106.032C491.558 105.637 492.304 105.44 493.158 105.44ZM501.888 114.096C501.184 114.096 500.512 114 499.872 113.808C499.243 113.616 498.747 113.381 498.384 113.104L499.024 111.888C499.387 112.133 499.835 112.341 500.368 112.512C500.901 112.683 501.445 112.768 502 112.768C502.715 112.768 503.227 112.667 503.536 112.464C503.856 112.261 504.016 111.979 504.016 111.616C504.016 111.349 503.92 111.141 503.728 110.992C503.536 110.843 503.28 110.731 502.96 110.656C502.651 110.581 502.304 110.517 501.92 110.464C501.536 110.4 501.152 110.325 500.768 110.24C500.384 110.144 500.032 110.016 499.712 109.856C499.392 109.685 499.136 109.456 498.944 109.168C498.752 108.869 498.656 108.475 498.656 107.984C498.656 107.472 498.8 107.024 499.088 106.64C499.376 106.256 499.781 105.963 500.304 105.76C500.837 105.547 501.467 105.44 502.192 105.44C502.747 105.44 503.307 105.509 503.872 105.648C504.448 105.776 504.917 105.963 505.28 106.208L504.624 107.424C504.24 107.168 503.84 106.992 503.424 106.896C503.008 106.8 502.592 106.752 502.176 106.752C501.504 106.752 501.003 106.864 500.672 107.088C500.341 107.301 500.176 107.579 500.176 107.92C500.176 108.208 500.272 108.432 500.464 108.592C500.667 108.741 500.923 108.859 501.232 108.944C501.552 109.029 501.904 109.104 502.288 109.168C502.672 109.221 503.056 109.296 503.44 109.392C503.824 109.477 504.171 109.6 504.48 109.76C504.8 109.92 505.056 110.144 505.248 110.432C505.451 110.72 505.552 111.104 505.552 111.584C505.552 112.096 505.403 112.539 505.104 112.912C504.805 113.285 504.384 113.579 503.84 113.792C503.296 113.995 502.645 114.096 501.888 114.096ZM510.905 114V112.912L515.465 108.512C515.87 108.128 516.169 107.792 516.361 107.504C516.563 107.205 516.697 106.933 516.761 106.688C516.835 106.432 516.873 106.187 516.873 105.952C516.873 105.376 516.67 104.923 516.265 104.592C515.859 104.261 515.267 104.096 514.489 104.096C513.891 104.096 513.353 104.197 512.873 104.4C512.393 104.592 511.977 104.896 511.625 105.312L510.537 104.368C510.963 103.824 511.534 103.408 512.249 103.12C512.974 102.821 513.769 102.672 514.633 102.672C515.411 102.672 516.089 102.8 516.665 103.056C517.241 103.301 517.683 103.659 517.993 104.128C518.313 104.597 518.473 105.152 518.473 105.792C518.473 106.155 518.425 106.512 518.329 106.864C518.233 107.216 518.051 107.589 517.785 107.984C517.518 108.379 517.134 108.821 516.633 109.312L512.569 113.232L512.185 112.608H518.953V114H510.905ZM524.828 114.128C523.954 114.128 523.17 113.904 522.476 113.456C521.794 113.008 521.25 112.357 520.844 111.504C520.45 110.651 520.252 109.616 520.252 108.4C520.252 107.184 520.45 106.149 520.844 105.296C521.25 104.443 521.794 103.792 522.476 103.344C523.17 102.896 523.954 102.672 524.828 102.672C525.692 102.672 526.471 102.896 527.164 103.344C527.858 103.792 528.402 104.443 528.796 105.296C529.191 106.149 529.388 107.184 529.388 108.4C529.388 109.616 529.191 110.651 528.796 111.504C528.402 112.357 527.858 113.008 527.164 113.456C526.471 113.904 525.692 114.128 524.828 114.128ZM524.828 112.704C525.415 112.704 525.927 112.544 526.364 112.224C526.812 111.904 527.159 111.424 527.404 110.784C527.66 110.144 527.788 109.349 527.788 108.4C527.788 107.451 527.66 106.656 527.404 106.016C527.159 105.376 526.812 104.896 526.364 104.576C525.927 104.256 525.415 104.096 524.828 104.096C524.242 104.096 523.724 104.256 523.276 104.576C522.828 104.896 522.476 105.376 522.22 106.016C521.975 106.656 521.852 107.451 521.852 108.4C521.852 109.349 521.975 110.144 522.22 110.784C522.476 111.424 522.828 111.904 523.276 112.224C523.724 112.544 524.242 112.704 524.828 112.704ZM532.46 114L540.108 102.8H541.34L533.692 114H532.46ZM533.356 108.816C532.844 108.816 532.391 108.688 531.996 108.432C531.602 108.176 531.292 107.819 531.068 107.36C530.855 106.901 530.748 106.368 530.748 105.76C530.748 105.152 530.855 104.619 531.068 104.16C531.292 103.701 531.602 103.344 531.996 103.088C532.391 102.832 532.844 102.704 533.356 102.704C533.879 102.704 534.332 102.832 534.716 103.088C535.111 103.344 535.415 103.701 535.628 104.16C535.842 104.619 535.948 105.152 535.948 105.76C535.948 106.368 535.842 106.901 535.628 107.36C535.415 107.819 535.111 108.176 534.716 108.432C534.332 108.688 533.879 108.816 533.356 108.816ZM533.356 107.904C533.847 107.904 534.231 107.717 534.508 107.344C534.786 106.96 534.924 106.432 534.924 105.76C534.924 105.088 534.786 104.565 534.508 104.192C534.231 103.808 533.847 103.616 533.356 103.616C532.876 103.616 532.492 103.808 532.204 104.192C531.927 104.565 531.788 105.088 531.788 105.76C531.788 106.421 531.927 106.944 532.204 107.328C532.492 107.712 532.876 107.904 533.356 107.904ZM540.444 114.096C539.932 114.096 539.479 113.968 539.084 113.712C538.69 113.456 538.386 113.099 538.172 112.64C537.959 112.181 537.852 111.648 537.852 111.04C537.852 110.432 537.959 109.899 538.172 109.44C538.386 108.981 538.69 108.624 539.084 108.368C539.479 108.112 539.932 107.984 540.444 107.984C540.967 107.984 541.42 108.112 541.804 108.368C542.199 108.624 542.503 108.981 542.716 109.44C542.94 109.899 543.052 110.432 543.052 111.04C543.052 111.648 542.94 112.181 542.716 112.64C542.503 113.099 542.199 113.456 541.804 113.712C541.42 113.968 540.967 114.096 540.444 114.096ZM540.444 113.184C540.924 113.184 541.303 112.997 541.58 112.624C541.868 112.24 542.012 111.712 542.012 111.04C542.012 110.379 541.868 109.856 541.58 109.472C541.303 109.088 540.924 108.896 540.444 108.896C539.964 108.896 539.58 109.088 539.292 109.472C539.015 109.845 538.876 110.368 538.876 111.04C538.876 111.712 539.015 112.24 539.292 112.624C539.58 112.997 539.964 113.184 540.444 113.184ZM554.674 114.128C553.82 114.128 553.026 113.984 552.29 113.696C551.564 113.408 550.935 113.008 550.402 112.496C549.868 111.973 549.452 111.365 549.154 110.672C548.855 109.979 548.706 109.221 548.706 108.4C548.706 107.579 548.855 106.821 549.154 106.128C549.452 105.435 549.868 104.832 550.402 104.32C550.935 103.797 551.564 103.392 552.29 103.104C553.015 102.816 553.81 102.672 554.674 102.672C555.527 102.672 556.311 102.816 557.026 103.104C557.751 103.381 558.38 103.781 558.914 104.304C559.458 104.816 559.874 105.419 560.162 106.112C560.46 106.805 560.61 107.568 560.61 108.4C560.61 109.232 560.46 109.995 560.162 110.688C559.874 111.381 559.458 111.989 558.914 112.512C558.38 113.024 557.751 113.424 557.026 113.712C556.311 113.989 555.527 114.128 554.674 114.128ZM554.674 112.704C555.292 112.704 555.863 112.597 556.385 112.384C556.919 112.171 557.378 111.872 557.762 111.488C558.156 111.093 558.46 110.635 558.674 110.112C558.898 109.589 559.01 109.019 559.01 108.4C559.01 107.781 558.898 107.211 558.674 106.688C558.46 106.165 558.156 105.712 557.762 105.328C557.378 104.933 556.919 104.629 556.385 104.416C555.863 104.203 555.292 104.096 554.674 104.096C554.044 104.096 553.463 104.203 552.93 104.416C552.407 104.629 551.948 104.933 551.554 105.328C551.159 105.712 550.85 106.165 550.626 106.688C550.412 107.211 550.306 107.781 550.306 108.4C550.306 109.019 550.412 109.589 550.626 110.112C550.85 110.635 551.159 111.093 551.554 111.488C551.948 111.872 552.407 112.171 552.93 112.384C553.463 112.597 554.044 112.704 554.674 112.704ZM564.495 108.096H570.271V109.472H564.495V108.096ZM564.655 114H563.055V102.8H570.959V104.192H564.655V114ZM574.651 108.096H580.427V109.472H574.651V108.096ZM574.811 114H573.211V102.8H581.115V104.192H574.811V114Z" fill="black"/>
<path d="M462.884 136L460.112 128.65H461.064L463.584 135.468H463.15L465.74 128.65H466.594L469.156 135.468H468.722L471.284 128.65H472.194L469.408 136H468.47L466.006 129.588H466.3L463.822 136H462.884ZM477.443 128.58C478.04 128.58 478.563 128.697 479.011 128.93C479.468 129.154 479.823 129.499 480.075 129.966C480.336 130.433 480.467 131.021 480.467 131.73V136H479.473V131.828C479.473 131.053 479.277 130.47 478.885 130.078C478.502 129.677 477.961 129.476 477.261 129.476C476.738 129.476 476.281 129.583 475.889 129.798C475.506 130.003 475.207 130.307 474.993 130.708C474.787 131.1 474.685 131.576 474.685 132.136V136H473.691V125.612H474.685V130.666L474.489 130.288C474.722 129.756 475.095 129.341 475.609 129.042C476.122 128.734 476.733 128.58 477.443 128.58ZM486.274 136.07C485.508 136.07 484.836 135.911 484.258 135.594C483.679 135.267 483.226 134.824 482.9 134.264C482.573 133.695 482.41 133.046 482.41 132.318C482.41 131.59 482.564 130.946 482.872 130.386C483.189 129.826 483.618 129.387 484.16 129.07C484.71 128.743 485.326 128.58 486.008 128.58C486.698 128.58 487.31 128.739 487.842 129.056C488.383 129.364 488.808 129.803 489.116 130.372C489.424 130.932 489.578 131.581 489.578 132.318C489.578 132.365 489.573 132.416 489.564 132.472C489.564 132.519 489.564 132.57 489.564 132.626H483.166V131.884H489.032L488.64 132.178C488.64 131.646 488.523 131.175 488.29 130.764C488.066 130.344 487.758 130.017 487.366 129.784C486.974 129.551 486.521 129.434 486.008 129.434C485.504 129.434 485.051 129.551 484.65 129.784C484.248 130.017 483.936 130.344 483.712 130.764C483.488 131.184 483.376 131.665 483.376 132.206V132.36C483.376 132.92 483.497 133.415 483.74 133.844C483.992 134.264 484.337 134.595 484.776 134.838C485.224 135.071 485.732 135.188 486.302 135.188C486.75 135.188 487.165 135.109 487.548 134.95C487.94 134.791 488.276 134.549 488.556 134.222L489.116 134.866C488.789 135.258 488.378 135.557 487.884 135.762C487.398 135.967 486.862 136.07 486.274 136.07ZM495.353 128.58C495.95 128.58 496.473 128.697 496.921 128.93C497.378 129.154 497.733 129.499 497.985 129.966C498.246 130.433 498.377 131.021 498.377 131.73V136H497.383V131.828C497.383 131.053 497.187 130.47 496.795 130.078C496.412 129.677 495.871 129.476 495.171 129.476C494.648 129.476 494.191 129.583 493.799 129.798C493.416 130.003 493.118 130.307 492.903 130.708C492.698 131.1 492.595 131.576 492.595 132.136V136H491.601V128.65H492.553V130.666L492.399 130.288C492.632 129.756 493.006 129.341 493.519 129.042C494.032 128.734 494.644 128.58 495.353 128.58ZM504.782 138.786C504.437 138.786 504.105 138.73 503.788 138.618C503.48 138.506 503.214 138.338 502.99 138.114L503.452 137.372C503.639 137.549 503.839 137.685 504.054 137.778C504.278 137.881 504.525 137.932 504.796 137.932C505.123 137.932 505.403 137.839 505.636 137.652C505.879 137.475 506.107 137.157 506.322 136.7L506.798 135.622L506.91 135.468L509.934 128.65H510.914L507.232 136.882C507.027 137.358 506.798 137.736 506.546 138.016C506.303 138.296 506.037 138.492 505.748 138.604C505.459 138.725 505.137 138.786 504.782 138.786ZM506.742 136.21L503.354 128.65H504.39L507.386 135.398L506.742 136.21ZM515.105 136.07C514.395 136.07 513.756 135.911 513.187 135.594C512.627 135.267 512.183 134.824 511.857 134.264C511.53 133.695 511.367 133.046 511.367 132.318C511.367 131.581 511.53 130.932 511.857 130.372C512.183 129.812 512.627 129.373 513.187 129.056C513.747 128.739 514.386 128.58 515.105 128.58C515.833 128.58 516.477 128.739 517.037 129.056C517.606 129.373 518.049 129.812 518.367 130.372C518.693 130.932 518.857 131.581 518.857 132.318C518.857 133.046 518.693 133.695 518.367 134.264C518.049 134.824 517.606 135.267 517.037 135.594C516.467 135.911 515.823 136.07 515.105 136.07ZM515.105 135.188C515.637 135.188 516.108 135.071 516.519 134.838C516.929 134.595 517.251 134.259 517.485 133.83C517.727 133.391 517.849 132.887 517.849 132.318C517.849 131.739 517.727 131.235 517.485 130.806C517.251 130.377 516.929 130.045 516.519 129.812C516.108 129.569 515.641 129.448 515.119 129.448C514.596 129.448 514.129 129.569 513.719 129.812C513.308 130.045 512.981 130.377 512.739 130.806C512.496 131.235 512.375 131.739 512.375 132.318C512.375 132.887 512.496 133.391 512.739 133.83C512.981 134.259 513.308 134.595 513.719 134.838C514.129 135.071 514.591 135.188 515.105 135.188ZM523.924 136.07C523.299 136.07 522.753 135.953 522.286 135.72C521.819 135.487 521.455 135.137 521.194 134.67C520.942 134.203 520.816 133.62 520.816 132.92V128.65H521.81V132.808C521.81 133.592 522.001 134.185 522.384 134.586C522.776 134.978 523.322 135.174 524.022 135.174C524.535 135.174 524.979 135.071 525.352 134.866C525.735 134.651 526.024 134.343 526.22 133.942C526.425 133.541 526.528 133.06 526.528 132.5V128.65H527.522V136H526.57V133.984L526.724 134.348C526.491 134.889 526.127 135.314 525.632 135.622C525.147 135.921 524.577 136.07 523.924 136.07ZM543.14 128.58C543.738 128.58 544.256 128.697 544.694 128.93C545.142 129.154 545.488 129.499 545.73 129.966C545.982 130.433 546.108 131.021 546.108 131.73V136H545.114V131.828C545.114 131.053 544.928 130.47 544.554 130.078C544.19 129.677 543.672 129.476 543 129.476C542.496 129.476 542.058 129.583 541.684 129.798C541.32 130.003 541.036 130.307 540.83 130.708C540.634 131.1 540.536 131.576 540.536 132.136V136H539.542V131.828C539.542 131.053 539.356 130.47 538.982 130.078C538.609 129.677 538.086 129.476 537.414 129.476C536.92 129.476 536.486 129.583 536.112 129.798C535.739 130.003 535.45 130.307 535.244 130.708C535.048 131.1 534.95 131.576 534.95 132.136V136H533.956V128.65H534.908V130.638L534.754 130.288C534.978 129.756 535.338 129.341 535.832 129.042C536.336 128.734 536.929 128.58 537.61 128.58C538.329 128.58 538.94 128.762 539.444 129.126C539.948 129.481 540.275 130.017 540.424 130.736L540.032 130.582C540.247 129.985 540.625 129.504 541.166 129.14C541.717 128.767 542.375 128.58 543.14 128.58ZM553.41 136V134.376L553.368 134.11V131.394C553.368 130.769 553.191 130.288 552.836 129.952C552.491 129.616 551.973 129.448 551.282 129.448C550.806 129.448 550.353 129.527 549.924 129.686C549.495 129.845 549.131 130.055 548.832 130.316L548.384 129.574C548.757 129.257 549.205 129.014 549.728 128.846C550.251 128.669 550.801 128.58 551.38 128.58C552.332 128.58 553.065 128.818 553.578 129.294C554.101 129.761 554.362 130.475 554.362 131.436V136H553.41ZM550.876 136.07C550.325 136.07 549.845 135.981 549.434 135.804C549.033 135.617 548.725 135.365 548.51 135.048C548.295 134.721 548.188 134.348 548.188 133.928C548.188 133.545 548.277 133.2 548.454 132.892C548.641 132.575 548.939 132.323 549.35 132.136C549.77 131.94 550.33 131.842 551.03 131.842H553.564V132.584H551.058C550.349 132.584 549.854 132.71 549.574 132.962C549.303 133.214 549.168 133.527 549.168 133.9C549.168 134.32 549.331 134.656 549.658 134.908C549.985 135.16 550.442 135.286 551.03 135.286C551.59 135.286 552.071 135.16 552.472 134.908C552.883 134.647 553.181 134.273 553.368 133.788L553.592 134.474C553.405 134.959 553.079 135.347 552.612 135.636C552.155 135.925 551.576 136.07 550.876 136.07ZM557.846 134.096L557.874 132.822L562.452 128.65H563.67L560.436 131.744L559.876 132.22L557.846 134.096ZM557.062 136V125.612H558.056V136H557.062ZM562.76 136L559.694 132.178L560.338 131.408L563.978 136H562.76ZM568.305 136.07C567.54 136.07 566.868 135.911 566.289 135.594C565.71 135.267 565.258 134.824 564.931 134.264C564.604 133.695 564.441 133.046 564.441 132.318C564.441 131.59 564.595 130.946 564.903 130.386C565.22 129.826 565.65 129.387 566.191 129.07C566.742 128.743 567.358 128.58 568.039 128.58C568.73 128.58 569.341 128.739 569.873 129.056C570.414 129.364 570.839 129.803 571.147 130.372C571.455 130.932 571.609 131.581 571.609 132.318C571.609 132.365 571.604 132.416 571.595 132.472C571.595 132.519 571.595 132.57 571.595 132.626H565.197V131.884H571.063L570.671 132.178C570.671 131.646 570.554 131.175 570.321 130.764C570.097 130.344 569.789 130.017 569.397 129.784C569.005 129.551 568.552 129.434 568.039 129.434C567.535 129.434 567.082 129.551 566.681 129.784C566.28 130.017 565.967 130.344 565.743 130.764C565.519 131.184 565.407 131.665 565.407 132.206V132.36C565.407 132.92 565.528 133.415 565.771 133.844C566.023 134.264 566.368 134.595 566.807 134.838C567.255 135.071 567.764 135.188 568.333 135.188C568.781 135.188 569.196 135.109 569.579 134.95C569.971 134.791 570.307 134.549 570.587 134.222L571.147 134.866C570.82 135.258 570.41 135.557 569.915 135.762C569.43 135.967 568.893 136.07 568.305 136.07ZM581.902 136V134.376L581.86 134.11V131.394C581.86 130.769 581.683 130.288 581.328 129.952C580.983 129.616 580.465 129.448 579.774 129.448C579.298 129.448 578.845 129.527 578.416 129.686C577.987 129.845 577.623 130.055 577.324 130.316L576.876 129.574C577.249 129.257 577.697 129.014 578.22 128.846C578.743 128.669 579.293 128.58 579.872 128.58C580.824 128.58 581.557 128.818 582.07 129.294C582.593 129.761 582.854 130.475 582.854 131.436V136H581.902ZM579.368 136.07C578.817 136.07 578.337 135.981 577.926 135.804C577.525 135.617 577.217 135.365 577.002 135.048C576.787 134.721 576.68 134.348 576.68 133.928C576.68 133.545 576.769 133.2 576.946 132.892C577.133 132.575 577.431 132.323 577.842 132.136C578.262 131.94 578.822 131.842 579.522 131.842H582.056V132.584H579.55C578.841 132.584 578.346 132.71 578.066 132.962C577.795 133.214 577.66 133.527 577.66 133.9C577.66 134.32 577.823 134.656 578.15 134.908C578.477 135.16 578.934 135.286 579.522 135.286C580.082 135.286 580.563 135.16 580.964 134.908C581.375 134.647 581.673 134.273 581.86 133.788L582.084 134.474C581.897 134.959 581.571 135.347 581.104 135.636C580.647 135.925 580.068 136.07 579.368 136.07ZM593.012 136.07C592.377 136.07 591.803 135.925 591.29 135.636C590.777 135.337 590.366 134.913 590.058 134.362C589.759 133.802 589.61 133.121 589.61 132.318C589.61 131.515 589.759 130.839 590.058 130.288C590.357 129.728 590.763 129.303 591.276 129.014C591.789 128.725 592.368 128.58 593.012 128.58C593.712 128.58 594.337 128.739 594.888 129.056C595.448 129.364 595.887 129.803 596.204 130.372C596.521 130.932 596.68 131.581 596.68 132.318C596.68 133.065 596.521 133.718 596.204 134.278C595.887 134.838 595.448 135.277 594.888 135.594C594.337 135.911 593.712 136.07 593.012 136.07ZM589.218 138.716V128.65H590.17V130.862L590.072 132.332L590.212 133.816V138.716H589.218ZM592.942 135.188C593.465 135.188 593.931 135.071 594.342 134.838C594.753 134.595 595.079 134.259 595.322 133.83C595.565 133.391 595.686 132.887 595.686 132.318C595.686 131.749 595.565 131.249 595.322 130.82C595.079 130.391 594.753 130.055 594.342 129.812C593.931 129.569 593.465 129.448 592.942 129.448C592.419 129.448 591.948 129.569 591.528 129.812C591.117 130.055 590.791 130.391 590.548 130.82C590.315 131.249 590.198 131.749 590.198 132.318C590.198 132.887 590.315 133.391 590.548 133.83C590.791 134.259 591.117 134.595 591.528 134.838C591.948 135.071 592.419 135.188 592.942 135.188ZM601.744 136.07C601.119 136.07 600.573 135.953 600.106 135.72C599.64 135.487 599.276 135.137 599.014 134.67C598.762 134.203 598.636 133.62 598.636 132.92V128.65H599.63V132.808C599.63 133.592 599.822 134.185 600.204 134.586C600.596 134.978 601.142 135.174 601.842 135.174C602.356 135.174 602.799 135.071 603.172 134.866C603.555 134.651 603.844 134.343 604.04 133.942C604.246 133.541 604.348 133.06 604.348 132.5V128.65H605.342V136H604.39V133.984L604.544 134.348C604.311 134.889 603.947 135.314 603.452 135.622C602.967 135.921 602.398 136.07 601.744 136.07ZM608.113 136V128.65H609.065V130.652L608.967 130.302C609.172 129.742 609.517 129.317 610.003 129.028C610.488 128.729 611.09 128.58 611.809 128.58V129.546C611.771 129.546 611.734 129.546 611.697 129.546C611.659 129.537 611.622 129.532 611.585 129.532C610.81 129.532 610.203 129.77 609.765 130.246C609.326 130.713 609.107 131.38 609.107 132.248V136H608.113ZM616.606 136.07C615.878 136.07 615.225 135.911 614.646 135.594C614.077 135.267 613.629 134.824 613.302 134.264C612.975 133.695 612.812 133.046 612.812 132.318C612.812 131.581 612.975 130.932 613.302 130.372C613.629 129.812 614.077 129.373 614.646 129.056C615.225 128.739 615.878 128.58 616.606 128.58C617.231 128.58 617.796 128.701 618.3 128.944C618.804 129.187 619.201 129.551 619.49 130.036L618.748 130.54C618.496 130.167 618.183 129.891 617.81 129.714C617.437 129.537 617.031 129.448 616.592 129.448C616.069 129.448 615.598 129.569 615.178 129.812C614.758 130.045 614.427 130.377 614.184 130.806C613.941 131.235 613.82 131.739 613.82 132.318C613.82 132.897 613.941 133.401 614.184 133.83C614.427 134.259 614.758 134.595 615.178 134.838C615.598 135.071 616.069 135.188 616.592 135.188C617.031 135.188 617.437 135.099 617.81 134.922C618.183 134.745 618.496 134.474 618.748 134.11L619.49 134.614C619.201 135.09 618.804 135.454 618.3 135.706C617.796 135.949 617.231 136.07 616.606 136.07ZM625.085 128.58C625.683 128.58 626.205 128.697 626.653 128.93C627.111 129.154 627.465 129.499 627.717 129.966C627.979 130.433 628.109 131.021 628.109 131.73V136H627.115V131.828C627.115 131.053 626.919 130.47 626.527 130.078C626.145 129.677 625.603 129.476 624.903 129.476C624.381 129.476 623.923 129.583 623.531 129.798C623.149 130.003 622.85 130.307 622.635 130.708C622.43 131.1 622.327 131.576 622.327 132.136V136H621.333V125.612H622.327V130.666L622.131 130.288C622.365 129.756 622.738 129.341 623.251 129.042C623.765 128.734 624.376 128.58 625.085 128.58ZM635.4 136V134.376L635.358 134.11V131.394C635.358 130.769 635.181 130.288 634.826 129.952C634.481 129.616 633.963 129.448 633.272 129.448C632.796 129.448 632.344 129.527 631.914 129.686C631.485 129.845 631.121 130.055 630.822 130.316L630.374 129.574C630.748 129.257 631.196 129.014 631.718 128.846C632.241 128.669 632.792 128.58 633.37 128.58C634.322 128.58 635.055 128.818 635.568 129.294C636.091 129.761 636.352 130.475 636.352 131.436V136H635.4ZM632.866 136.07C632.316 136.07 631.835 135.981 631.424 135.804C631.023 135.617 630.715 135.365 630.5 135.048C630.286 134.721 630.178 134.348 630.178 133.928C630.178 133.545 630.267 133.2 630.444 132.892C630.631 132.575 630.93 132.323 631.34 132.136C631.76 131.94 632.32 131.842 633.02 131.842H635.554V132.584H633.048C632.339 132.584 631.844 132.71 631.564 132.962C631.294 133.214 631.158 133.527 631.158 133.9C631.158 134.32 631.322 134.656 631.648 134.908C631.975 135.16 632.432 135.286 633.02 135.286C633.58 135.286 634.061 135.16 634.462 134.908C634.873 134.647 635.172 134.273 635.358 133.788L635.582 134.474C635.396 134.959 635.069 135.347 634.602 135.636C634.145 135.925 633.566 136.07 632.866 136.07ZM641.026 136.07C640.419 136.07 639.845 135.986 639.304 135.818C638.763 135.641 638.338 135.421 638.03 135.16L638.478 134.376C638.777 134.6 639.159 134.796 639.626 134.964C640.093 135.123 640.583 135.202 641.096 135.202C641.796 135.202 642.3 135.095 642.608 134.88C642.916 134.656 643.07 134.362 643.07 133.998C643.07 133.727 642.981 133.517 642.804 133.368C642.636 133.209 642.412 133.093 642.132 133.018C641.852 132.934 641.539 132.864 641.194 132.808C640.849 132.752 640.503 132.687 640.158 132.612C639.822 132.537 639.514 132.43 639.234 132.29C638.954 132.141 638.725 131.94 638.548 131.688C638.38 131.436 638.296 131.1 638.296 130.68C638.296 130.279 638.408 129.919 638.632 129.602C638.856 129.285 639.183 129.037 639.612 128.86C640.051 128.673 640.583 128.58 641.208 128.58C641.684 128.58 642.16 128.645 642.636 128.776C643.112 128.897 643.504 129.061 643.812 129.266L643.378 130.064C643.051 129.84 642.701 129.681 642.328 129.588C641.955 129.485 641.581 129.434 641.208 129.434C640.545 129.434 640.055 129.551 639.738 129.784C639.43 130.008 639.276 130.297 639.276 130.652C639.276 130.932 639.36 131.151 639.528 131.31C639.705 131.469 639.934 131.595 640.214 131.688C640.503 131.772 640.816 131.842 641.152 131.898C641.497 131.954 641.838 132.024 642.174 132.108C642.519 132.183 642.832 132.29 643.112 132.43C643.401 132.561 643.63 132.752 643.798 133.004C643.975 133.247 644.064 133.569 644.064 133.97C644.064 134.399 643.943 134.773 643.7 135.09C643.467 135.398 643.121 135.641 642.664 135.818C642.216 135.986 641.67 136.07 641.026 136.07ZM649.01 136.07C648.245 136.07 647.573 135.911 646.994 135.594C646.415 135.267 645.963 134.824 645.636 134.264C645.309 133.695 645.146 133.046 645.146 132.318C645.146 131.59 645.3 130.946 645.608 130.386C645.925 129.826 646.355 129.387 646.896 129.07C647.447 128.743 648.063 128.58 648.744 128.58C649.435 128.58 650.046 128.739 650.578 129.056C651.119 129.364 651.544 129.803 651.852 130.372C652.16 130.932 652.314 131.581 652.314 132.318C652.314 132.365 652.309 132.416 652.3 132.472C652.3 132.519 652.3 132.57 652.3 132.626H645.902V131.884H651.768L651.376 132.178C651.376 131.646 651.259 131.175 651.026 130.764C650.802 130.344 650.494 130.017 650.102 129.784C649.71 129.551 649.257 129.434 648.744 129.434C648.24 129.434 647.787 129.551 647.386 129.784C646.985 130.017 646.672 130.344 646.448 130.764C646.224 131.184 646.112 131.665 646.112 132.206V132.36C646.112 132.92 646.233 133.415 646.476 133.844C646.728 134.264 647.073 134.595 647.512 134.838C647.96 135.071 648.469 135.188 649.038 135.188C649.486 135.188 649.901 135.109 650.284 134.95C650.676 134.791 651.012 134.549 651.292 134.222L651.852 134.866C651.525 135.258 651.115 135.557 650.62 135.762C650.135 135.967 649.598 136.07 649.01 136.07Z" fill="black"/>
<path d="M724.984 114L730.056 102.8H731.64L736.728 114H735.048L730.52 103.696H731.16L726.632 114H724.984ZM727.144 111.2L727.576 109.92H733.88L734.344 111.2H727.144ZM738.175 114V102.128H739.711V114H738.175ZM742.644 114V102.128H744.18V114H742.644ZM755.905 114.096C755.201 114.096 754.556 113.936 753.969 113.616C753.393 113.285 752.929 112.8 752.577 112.16C752.236 111.52 752.065 110.72 752.065 109.76C752.065 108.8 752.23 108 752.561 107.36C752.902 106.72 753.361 106.24 753.937 105.92C754.524 105.6 755.18 105.44 755.905 105.44C756.737 105.44 757.473 105.621 758.113 105.984C758.753 106.347 759.26 106.853 759.633 107.504C760.006 108.144 760.193 108.896 760.193 109.76C760.193 110.624 760.006 111.381 759.633 112.032C759.26 112.683 758.753 113.189 758.113 113.552C757.473 113.915 756.737 114.096 755.905 114.096ZM751.409 117.104V105.52H752.881V107.808L752.785 109.776L752.945 111.744V117.104H751.409ZM755.777 112.752C756.321 112.752 756.806 112.629 757.233 112.384C757.67 112.139 758.012 111.792 758.257 111.344C758.513 110.885 758.641 110.357 758.641 109.76C758.641 109.152 758.513 108.629 758.257 108.192C758.012 107.744 757.67 107.397 757.233 107.152C756.806 106.907 756.321 106.784 755.777 106.784C755.244 106.784 754.758 106.907 754.321 107.152C753.894 107.397 753.553 107.744 753.297 108.192C753.052 108.629 752.929 109.152 752.929 109.76C752.929 110.357 753.052 110.885 753.297 111.344C753.553 111.792 753.894 112.139 754.321 112.384C754.758 112.629 755.244 112.752 755.777 112.752ZM762.315 114V105.52H763.787V107.824L763.643 107.248C763.878 106.661 764.273 106.213 764.827 105.904C765.382 105.595 766.065 105.44 766.875 105.44V106.928C766.811 106.917 766.747 106.912 766.683 106.912C766.63 106.912 766.577 106.912 766.523 106.912C765.702 106.912 765.051 107.157 764.571 107.648C764.091 108.139 763.851 108.848 763.851 109.776V114H762.315ZM772.322 114.096C771.469 114.096 770.712 113.909 770.05 113.536C769.389 113.163 768.866 112.651 768.482 112C768.098 111.339 767.906 110.592 767.906 109.76C767.906 108.917 768.098 108.171 768.482 107.52C768.866 106.869 769.389 106.363 770.05 106C770.712 105.627 771.469 105.44 772.322 105.44C773.165 105.44 773.917 105.627 774.578 106C775.25 106.363 775.773 106.869 776.146 107.52C776.53 108.16 776.722 108.907 776.722 109.76C776.722 110.603 776.53 111.349 776.146 112C775.773 112.651 775.25 113.163 774.578 113.536C773.917 113.909 773.165 114.096 772.322 114.096ZM772.322 112.752C772.866 112.752 773.352 112.629 773.778 112.384C774.216 112.139 774.557 111.792 774.802 111.344C775.048 110.885 775.17 110.357 775.17 109.76C775.17 109.152 775.048 108.629 774.802 108.192C774.557 107.744 774.216 107.397 773.778 107.152C773.352 106.907 772.866 106.784 772.322 106.784C771.778 106.784 771.293 106.907 770.866 107.152C770.44 107.397 770.098 107.744 769.842 108.192C769.586 108.629 769.458 109.152 769.458 109.76C769.458 110.357 769.586 110.885 769.842 111.344C770.098 111.792 770.44 112.139 770.866 112.384C771.293 112.629 771.778 112.752 772.322 112.752ZM782.351 114.096C781.529 114.096 780.793 113.915 780.143 113.552C779.503 113.189 778.996 112.683 778.623 112.032C778.249 111.381 778.063 110.624 778.063 109.76C778.063 108.896 778.249 108.144 778.623 107.504C778.996 106.853 779.503 106.347 780.143 105.984C780.793 105.621 781.529 105.44 782.351 105.44C783.065 105.44 783.711 105.6 784.287 105.92C784.863 106.24 785.321 106.72 785.663 107.36C786.015 108 786.191 108.8 786.191 109.76C786.191 110.72 786.02 111.52 785.679 112.16C785.348 112.8 784.895 113.285 784.319 113.616C783.743 113.936 783.087 114.096 782.351 114.096ZM782.479 112.752C783.012 112.752 783.492 112.629 783.919 112.384C784.356 112.139 784.697 111.792 784.943 111.344C785.199 110.885 785.327 110.357 785.327 109.76C785.327 109.152 785.199 108.629 784.943 108.192C784.697 107.744 784.356 107.397 783.919 107.152C783.492 106.907 783.012 106.784 782.479 106.784C781.935 106.784 781.449 106.907 781.023 107.152C780.596 107.397 780.255 107.744 779.999 108.192C779.743 108.629 779.615 109.152 779.615 109.76C779.615 110.357 779.743 110.885 779.999 111.344C780.255 111.792 780.596 112.139 781.023 112.384C781.449 112.629 781.935 112.752 782.479 112.752ZM785.375 114V111.712L785.471 109.744L785.311 107.776V102.128H786.847V114H785.375ZM793.321 114.096C792.596 114.096 791.956 113.963 791.401 113.696C790.857 113.429 790.43 113.024 790.121 112.48C789.822 111.925 789.673 111.232 789.673 110.4V105.52H791.209V110.224C791.209 111.056 791.406 111.68 791.801 112.096C792.206 112.512 792.772 112.72 793.497 112.72C794.03 112.72 794.494 112.613 794.889 112.4C795.284 112.176 795.588 111.856 795.801 111.44C796.014 111.013 796.121 110.501 796.121 109.904V105.52H797.657V114H796.201V111.712L796.441 112.32C796.164 112.885 795.748 113.323 795.193 113.632C794.638 113.941 794.014 114.096 793.321 114.096ZM804.277 114.096C803.413 114.096 802.64 113.909 801.957 113.536C801.285 113.163 800.757 112.651 800.373 112C799.989 111.349 799.797 110.603 799.797 109.76C799.797 108.917 799.989 108.171 800.373 107.52C800.757 106.869 801.285 106.363 801.957 106C802.64 105.627 803.413 105.44 804.277 105.44C805.045 105.44 805.728 105.595 806.325 105.904C806.933 106.203 807.402 106.651 807.733 107.248L806.565 108C806.288 107.584 805.946 107.28 805.541 107.088C805.146 106.885 804.72 106.784 804.261 106.784C803.706 106.784 803.21 106.907 802.773 107.152C802.336 107.397 801.989 107.744 801.733 108.192C801.477 108.629 801.349 109.152 801.349 109.76C801.349 110.368 801.477 110.896 801.733 111.344C801.989 111.792 802.336 112.139 802.773 112.384C803.21 112.629 803.706 112.752 804.261 112.752C804.72 112.752 805.146 112.656 805.541 112.464C805.946 112.261 806.288 111.952 806.565 111.536L807.733 112.272C807.402 112.859 806.933 113.312 806.325 113.632C805.728 113.941 805.045 114.096 804.277 114.096ZM812.743 114.096C811.89 114.096 811.228 113.867 810.759 113.408C810.29 112.949 810.055 112.293 810.055 111.44V103.664H811.591V111.376C811.591 111.835 811.703 112.187 811.927 112.432C812.162 112.677 812.492 112.8 812.919 112.8C813.399 112.8 813.799 112.667 814.119 112.4L814.599 113.504C814.364 113.707 814.082 113.856 813.751 113.952C813.431 114.048 813.095 114.096 812.743 114.096ZM808.615 106.784V105.52H814.023V106.784H808.615ZM818.888 114.096C818.184 114.096 817.512 114 816.872 113.808C816.243 113.616 815.747 113.381 815.384 113.104L816.024 111.888C816.387 112.133 816.835 112.341 817.368 112.512C817.901 112.683 818.445 112.768 819 112.768C819.715 112.768 820.227 112.667 820.536 112.464C820.856 112.261 821.016 111.979 821.016 111.616C821.016 111.349 820.92 111.141 820.728 110.992C820.536 110.843 820.28 110.731 819.96 110.656C819.651 110.581 819.304 110.517 818.92 110.464C818.536 110.4 818.152 110.325 817.768 110.24C817.384 110.144 817.032 110.016 816.712 109.856C816.392 109.685 816.136 109.456 815.944 109.168C815.752 108.869 815.656 108.475 815.656 107.984C815.656 107.472 815.8 107.024 816.088 106.64C816.376 106.256 816.781 105.963 817.304 105.76C817.837 105.547 818.467 105.44 819.192 105.44C819.747 105.44 820.307 105.509 820.872 105.648C821.448 105.776 821.917 105.963 822.28 106.208L821.624 107.424C821.24 107.168 820.84 106.992 820.424 106.896C820.008 106.8 819.592 106.752 819.176 106.752C818.504 106.752 818.003 106.864 817.672 107.088C817.341 107.301 817.176 107.579 817.176 107.92C817.176 108.208 817.272 108.432 817.464 108.592C817.667 108.741 817.923 108.859 818.232 108.944C818.552 109.029 818.904 109.104 819.288 109.168C819.672 109.221 820.056 109.296 820.44 109.392C820.824 109.477 821.171 109.6 821.48 109.76C821.8 109.92 822.056 110.144 822.248 110.432C822.451 110.72 822.552 111.104 822.552 111.584C822.552 112.096 822.403 112.539 822.104 112.912C821.805 113.285 821.384 113.579 820.84 113.792C820.296 113.995 819.645 114.096 818.888 114.096Z" fill="black"/>
<path d="M729.438 136.07C728.71 136.07 728.057 135.911 727.478 135.594C726.909 135.267 726.461 134.824 726.134 134.264C725.807 133.695 725.644 133.046 725.644 132.318C725.644 131.581 725.807 130.932 726.134 130.372C726.461 129.812 726.909 129.373 727.478 129.056C728.057 128.739 728.71 128.58 729.438 128.58C730.063 128.58 730.628 128.701 731.132 128.944C731.636 129.187 732.033 129.551 732.322 130.036L731.58 130.54C731.328 130.167 731.015 129.891 730.642 129.714C730.269 129.537 729.863 129.448 729.424 129.448C728.901 129.448 728.43 129.569 728.01 129.812C727.59 130.045 727.259 130.377 727.016 130.806C726.773 131.235 726.652 131.739 726.652 132.318C726.652 132.897 726.773 133.401 727.016 133.83C727.259 134.259 727.59 134.595 728.01 134.838C728.43 135.071 728.901 135.188 729.424 135.188C729.863 135.188 730.269 135.099 730.642 134.922C731.015 134.745 731.328 134.474 731.58 134.11L732.322 134.614C732.033 135.09 731.636 135.454 731.132 135.706C730.628 135.949 730.063 136.07 729.438 136.07ZM737.148 136.07C736.438 136.07 735.799 135.911 735.23 135.594C734.67 135.267 734.226 134.824 733.9 134.264C733.573 133.695 733.41 133.046 733.41 132.318C733.41 131.581 733.573 130.932 733.9 130.372C734.226 129.812 734.67 129.373 735.23 129.056C735.79 128.739 736.429 128.58 737.148 128.58C737.876 128.58 738.52 128.739 739.08 129.056C739.649 129.373 740.092 129.812 740.41 130.372C740.736 130.932 740.9 131.581 740.9 132.318C740.9 133.046 740.736 133.695 740.41 134.264C740.092 134.824 739.649 135.267 739.08 135.594C738.51 135.911 737.866 136.07 737.148 136.07ZM737.148 135.188C737.68 135.188 738.151 135.071 738.562 134.838C738.972 134.595 739.294 134.259 739.528 133.83C739.77 133.391 739.892 132.887 739.892 132.318C739.892 131.739 739.77 131.235 739.528 130.806C739.294 130.377 738.972 130.045 738.562 129.812C738.151 129.569 737.684 129.448 737.162 129.448C736.639 129.448 736.172 129.569 735.762 129.812C735.351 130.045 735.024 130.377 734.782 130.806C734.539 131.235 734.418 131.739 734.418 132.318C734.418 132.887 734.539 133.391 734.782 133.83C735.024 134.259 735.351 134.595 735.762 134.838C736.172 135.071 736.634 135.188 737.148 135.188ZM752.113 128.58C752.71 128.58 753.228 128.697 753.667 128.93C754.115 129.154 754.46 129.499 754.703 129.966C754.955 130.433 755.081 131.021 755.081 131.73V136H754.087V131.828C754.087 131.053 753.9 130.47 753.527 130.078C753.163 129.677 752.645 129.476 751.973 129.476C751.469 129.476 751.03 129.583 750.657 129.798C750.293 130.003 750.008 130.307 749.803 130.708C749.607 131.1 749.509 131.576 749.509 132.136V136H748.515V131.828C748.515 131.053 748.328 130.47 747.955 130.078C747.582 129.677 747.059 129.476 746.387 129.476C745.892 129.476 745.458 129.583 745.085 129.798C744.712 130.003 744.422 130.307 744.217 130.708C744.021 131.1 743.923 131.576 743.923 132.136V136H742.929V128.65H743.881V130.638L743.727 130.288C743.951 129.756 744.31 129.341 744.805 129.042C745.309 128.734 745.902 128.58 746.583 128.58C747.302 128.58 747.913 128.762 748.417 129.126C748.921 129.481 749.248 130.017 749.397 130.736L749.005 130.582C749.22 129.985 749.598 129.504 750.139 129.14C750.69 128.767 751.348 128.58 752.113 128.58ZM760.899 136.07C760.133 136.07 759.461 135.911 758.883 135.594C758.304 135.267 757.851 134.824 757.525 134.264C757.198 133.695 757.035 133.046 757.035 132.318C757.035 131.59 757.189 130.946 757.497 130.386C757.814 129.826 758.243 129.387 758.785 129.07C759.335 128.743 759.951 128.58 760.633 128.58C761.323 128.58 761.935 128.739 762.467 129.056C763.008 129.364 763.433 129.803 763.741 130.372C764.049 130.932 764.203 131.581 764.203 132.318C764.203 132.365 764.198 132.416 764.189 132.472C764.189 132.519 764.189 132.57 764.189 132.626H757.791V131.884H763.657L763.265 132.178C763.265 131.646 763.148 131.175 762.915 130.764C762.691 130.344 762.383 130.017 761.991 129.784C761.599 129.551 761.146 129.434 760.633 129.434C760.129 129.434 759.676 129.551 759.275 129.784C758.873 130.017 758.561 130.344 758.337 130.764C758.113 131.184 758.001 131.665 758.001 132.206V132.36C758.001 132.92 758.122 133.415 758.365 133.844C758.617 134.264 758.962 134.595 759.401 134.838C759.849 135.071 760.357 135.188 760.927 135.188C761.375 135.188 761.79 135.109 762.173 134.95C762.565 134.791 762.901 134.549 763.181 134.222L763.741 134.866C763.414 135.258 763.003 135.557 762.509 135.762C762.023 135.967 761.487 136.07 760.899 136.07ZM771.388 136L768.616 128.65H769.568L772.088 135.468H771.654L774.244 128.65H775.098L777.66 135.468H777.226L779.788 128.65H780.698L777.912 136H776.974L774.51 129.588H774.804L772.326 136H771.388ZM782.195 136V128.65H783.189V136H782.195ZM782.699 127.026C782.493 127.026 782.321 126.956 782.181 126.816C782.041 126.676 781.971 126.508 781.971 126.312C781.971 126.116 782.041 125.953 782.181 125.822C782.321 125.682 782.493 125.612 782.699 125.612C782.904 125.612 783.077 125.677 783.217 125.808C783.357 125.939 783.427 126.102 783.427 126.298C783.427 126.503 783.357 126.676 783.217 126.816C783.086 126.956 782.913 127.026 782.699 127.026ZM788.278 136.07C787.588 136.07 787.056 135.883 786.682 135.51C786.309 135.137 786.122 134.609 786.122 133.928V127.026H787.116V133.872C787.116 134.301 787.224 134.633 787.438 134.866C787.662 135.099 787.98 135.216 788.39 135.216C788.829 135.216 789.193 135.09 789.482 134.838L789.832 135.552C789.636 135.729 789.398 135.86 789.118 135.944C788.848 136.028 788.568 136.07 788.278 136.07ZM784.806 129.476V128.65H789.356V129.476H784.806ZM795.394 128.58C795.991 128.58 796.514 128.697 796.962 128.93C797.419 129.154 797.774 129.499 798.026 129.966C798.287 130.433 798.418 131.021 798.418 131.73V136H797.424V131.828C797.424 131.053 797.228 130.47 796.836 130.078C796.453 129.677 795.912 129.476 795.212 129.476C794.689 129.476 794.232 129.583 793.84 129.798C793.457 130.003 793.159 130.307 792.944 130.708C792.739 131.1 792.636 131.576 792.636 132.136V136H791.642V125.612H792.636V130.666L792.44 130.288C792.673 129.756 793.047 129.341 793.56 129.042C794.073 128.734 794.685 128.58 795.394 128.58ZM809.373 136V134.376L809.331 134.11V131.394C809.331 130.769 809.154 130.288 808.799 129.952C808.454 129.616 807.936 129.448 807.245 129.448C806.769 129.448 806.316 129.527 805.887 129.686C805.458 129.845 805.094 130.055 804.795 130.316L804.347 129.574C804.72 129.257 805.168 129.014 805.691 128.846C806.214 128.669 806.764 128.58 807.343 128.58C808.295 128.58 809.028 128.818 809.541 129.294C810.064 129.761 810.325 130.475 810.325 131.436V136H809.373ZM806.839 136.07C806.288 136.07 805.808 135.981 805.397 135.804C804.996 135.617 804.688 135.365 804.473 135.048C804.258 134.721 804.151 134.348 804.151 133.928C804.151 133.545 804.24 133.2 804.417 132.892C804.604 132.575 804.902 132.323 805.313 132.136C805.733 131.94 806.293 131.842 806.993 131.842H809.527V132.584H807.021C806.312 132.584 805.817 132.71 805.537 132.962C805.266 133.214 805.131 133.527 805.131 133.9C805.131 134.32 805.294 134.656 805.621 134.908C805.948 135.16 806.405 135.286 806.993 135.286C807.553 135.286 808.034 135.16 808.435 134.908C808.846 134.647 809.144 134.273 809.331 133.788L809.555 134.474C809.368 134.959 809.042 135.347 808.575 135.636C808.118 135.925 807.539 136.07 806.839 136.07ZM818.187 136L815.415 128.65H816.367L818.887 135.468H818.453L821.043 128.65H821.897L824.459 135.468H824.025L826.587 128.65H827.497L824.711 136H823.773L821.309 129.588H821.603L819.125 136H818.187ZM833.381 136V134.376L833.339 134.11V131.394C833.339 130.769 833.161 130.288 832.807 129.952C832.461 129.616 831.943 129.448 831.253 129.448C830.777 129.448 830.324 129.527 829.895 129.686C829.465 129.845 829.101 130.055 828.803 130.316L828.355 129.574C828.728 129.257 829.176 129.014 829.699 128.846C830.221 128.669 830.772 128.58 831.351 128.58C832.303 128.58 833.035 128.818 833.549 129.294C834.071 129.761 834.333 130.475 834.333 131.436V136H833.381ZM830.847 136.07C830.296 136.07 829.815 135.981 829.405 135.804C829.003 135.617 828.695 135.365 828.481 135.048C828.266 134.721 828.159 134.348 828.159 133.928C828.159 133.545 828.247 133.2 828.425 132.892C828.611 132.575 828.91 132.323 829.321 132.136C829.741 131.94 830.301 131.842 831.001 131.842H833.535V132.584H831.029C830.319 132.584 829.825 132.71 829.545 132.962C829.274 133.214 829.139 133.527 829.139 133.9C829.139 134.32 829.302 134.656 829.629 134.908C829.955 135.16 830.413 135.286 831.001 135.286C831.561 135.286 832.041 135.16 832.443 134.908C832.853 134.647 833.152 134.273 833.339 133.788L833.563 134.474C833.376 134.959 833.049 135.347 832.583 135.636C832.125 135.925 831.547 136.07 830.847 136.07ZM837.032 136V128.65H837.984V130.652L837.886 130.302C838.092 129.742 838.437 129.317 838.922 129.028C839.408 128.729 840.01 128.58 840.728 128.58V129.546C840.691 129.546 840.654 129.546 840.616 129.546C840.579 129.537 840.542 129.532 840.504 129.532C839.73 129.532 839.123 129.77 838.684 130.246C838.246 130.713 838.026 131.38 838.026 132.248V136H837.032ZM842.542 136V128.65H843.494V130.652L843.396 130.302C843.602 129.742 843.947 129.317 844.432 129.028C844.918 128.729 845.52 128.58 846.238 128.58V129.546C846.201 129.546 846.164 129.546 846.126 129.546C846.089 129.537 846.052 129.532 846.014 129.532C845.24 129.532 844.633 129.77 844.194 130.246C843.756 130.713 843.536 131.38 843.536 132.248V136H842.542ZM852.111 136V134.376L852.069 134.11V131.394C852.069 130.769 851.892 130.288 851.537 129.952C851.192 129.616 850.674 129.448 849.983 129.448C849.507 129.448 849.054 129.527 848.625 129.686C848.196 129.845 847.832 130.055 847.533 130.316L847.085 129.574C847.458 129.257 847.906 129.014 848.429 128.846C848.952 128.669 849.502 128.58 850.081 128.58C851.033 128.58 851.766 128.818 852.279 129.294C852.802 129.761 853.063 130.475 853.063 131.436V136H852.111ZM849.577 136.07C849.026 136.07 848.546 135.981 848.135 135.804C847.734 135.617 847.426 135.365 847.211 135.048C846.996 134.721 846.889 134.348 846.889 133.928C846.889 133.545 846.978 133.2 847.155 132.892C847.342 132.575 847.64 132.323 848.051 132.136C848.471 131.94 849.031 131.842 849.731 131.842H852.265V132.584H849.759C849.05 132.584 848.555 132.71 848.275 132.962C848.004 133.214 847.869 133.527 847.869 133.9C847.869 134.32 848.032 134.656 848.359 134.908C848.686 135.16 849.143 135.286 849.731 135.286C850.291 135.286 850.772 135.16 851.173 134.908C851.584 134.647 851.882 134.273 852.069 133.788L852.293 134.474C852.106 134.959 851.78 135.347 851.313 135.636C850.856 135.925 850.277 136.07 849.577 136.07ZM859.515 128.58C860.112 128.58 860.635 128.697 861.083 128.93C861.54 129.154 861.895 129.499 862.147 129.966C862.408 130.433 862.539 131.021 862.539 131.73V136H861.545V131.828C861.545 131.053 861.349 130.47 860.957 130.078C860.574 129.677 860.033 129.476 859.333 129.476C858.81 129.476 858.353 129.583 857.961 129.798C857.578 130.003 857.28 130.307 857.065 130.708C856.86 131.1 856.757 131.576 856.757 132.136V136H855.763V128.65H856.715V130.666L856.561 130.288C856.794 129.756 857.168 129.341 857.681 129.042C858.194 128.734 858.806 128.58 859.515 128.58ZM867.548 136.07C866.857 136.07 866.325 135.883 865.952 135.51C865.579 135.137 865.392 134.609 865.392 133.928V127.026H866.386V133.872C866.386 134.301 866.493 134.633 866.708 134.866C866.932 135.099 867.249 135.216 867.66 135.216C868.099 135.216 868.463 135.09 868.752 134.838L869.102 135.552C868.906 135.729 868.668 135.86 868.388 135.944C868.117 136.028 867.837 136.07 867.548 136.07ZM864.076 129.476V128.65H868.626V129.476H864.076ZM870.831 138.786C870.485 138.786 870.154 138.73 869.837 138.618C869.529 138.506 869.263 138.338 869.039 138.114L869.501 137.372C869.687 137.549 869.888 137.685 870.103 137.778C870.327 137.881 870.574 137.932 870.845 137.932C871.171 137.932 871.451 137.839 871.685 137.652C871.927 137.475 872.156 137.157 872.371 136.7L872.847 135.622L872.959 135.468L875.983 128.65H876.963L873.281 136.882C873.075 137.358 872.847 137.736 872.595 138.016C872.352 138.296 872.086 138.492 871.797 138.604C871.507 138.725 871.185 138.786 870.831 138.786ZM872.791 136.21L869.403 128.65H870.439L873.435 135.398L872.791 136.21Z" fill="black"/>
</svg>
