<svg width="126" height="55" viewBox="0 0 126 55" fill="none" xmlns="http://www.w3.org/2000/svg">
<path d="M32.7207 23.1475H23.125L21.9961 25.8203C21.2546 27.5911 20.8838 28.6758 20.8838 29.0742C20.8838 29.3288 20.9502 29.5114 21.083 29.6221C21.2269 29.7327 21.5811 29.8213 22.1455 29.8877L23.7393 30.0703V31.1162C22.6768 31.0387 21.4814 31 20.1533 31C18.5596 31 17.1595 31.0387 15.9531 31.1162V30.0703L16.4512 30.0537C17.2259 30.0316 17.724 29.9541 17.9453 29.8213C18.1777 29.6774 18.4212 29.3343 18.6758 28.792C19.4616 27.1982 20.264 25.4772 21.083 23.6289L25.6484 13.2861C26.8659 10.5413 27.696 8.54915 28.1387 7.30957H29.2676L37.668 26.8496C38.2324 28.1777 38.6087 28.9801 38.7969 29.2568C38.985 29.5225 39.2008 29.7161 39.4443 29.8379C39.6878 29.9486 40.2357 30.026 41.0879 30.0703V31.1162C39.6491 31.0387 38.2767 31 36.9707 31C35.7533 31 34.1318 31.0387 32.1064 31.1162V30.0703L33.75 29.9707C34.3366 29.9264 34.6852 29.8656 34.7959 29.7881C34.9619 29.6663 35.0449 29.5114 35.0449 29.3232C35.0449 29.124 34.8789 28.6038 34.5469 27.7627L32.7207 23.1475ZM23.7393 21.7861H32.1064L27.9229 11.792L23.7393 21.7861ZM46.998 29.5723H54.2197C57.2191 29.5723 59.1836 29.5335 60.1133 29.4561C60.6445 29.4007 61.0264 29.2402 61.2588 28.9746C61.5023 28.709 61.6794 28.0671 61.79 27.0488L61.9893 25.1562H63.2178C62.9964 26.8939 62.8857 28.5762 62.8857 30.2031V31.1162C61.5576 31.1494 60.5283 31.166 59.7979 31.166C59.1891 31.166 57.861 31.1383 55.8135 31.083C53.6331 31.0277 51.5967 31 49.7041 31C46.6051 31 44.209 31.0387 42.5156 31.1162V30.1367C43.6999 28.8197 45.1055 27.0765 46.7324 24.9072L54.2529 14.9463C56.2894 12.2458 57.7393 10.2868 58.6025 9.06934C56.9977 9.00293 55.6087 8.96973 54.4355 8.96973C52.4434 8.96973 50.3073 9.0472 48.0273 9.20215C47.0312 9.27962 46.4447 9.40137 46.2676 9.56738C46.0905 9.7334 45.9688 10.2314 45.9023 11.0615L45.7363 13.0205H44.6572C44.7236 11.8141 44.7568 10.8789 44.7568 10.2148C44.7568 9.56185 44.7236 8.64876 44.6572 7.47559L46.7158 7.45898L59.7148 7.6084C61.1204 7.6084 62.2881 7.56413 63.2178 7.47559V8.48828C62.0999 9.75 61.2145 10.7959 60.5615 11.626L55.2656 18.6152L46.998 29.5723ZM65.0938 8.53809V7.49219C67.3626 7.56966 69.0117 7.6084 70.041 7.6084C71.1257 7.6084 72.7194 7.56966 74.8223 7.49219V8.53809H73.6104C72.57 8.53809 71.9447 8.7373 71.7344 9.13574C71.5241 9.53418 71.4189 11.3382 71.4189 14.5479V21.0557C71.4189 23.4352 71.5462 25.0898 71.8008 26.0195C72.0664 26.9492 72.7415 27.735 73.8262 28.377C74.9108 29.0189 76.3607 29.3398 78.1758 29.3398C80.0462 29.3398 81.6234 28.9967 82.9072 28.3105C83.7926 27.8346 84.4401 27.0986 84.8496 26.1025C85.2591 25.0954 85.4639 23.1917 85.4639 20.3916V14.1328C85.4639 11.2331 85.3311 9.57845 85.0654 9.16895C84.8109 8.74837 84.097 8.53809 82.9238 8.53809H82.0605V7.49219C84.3516 7.56966 85.807 7.6084 86.4268 7.6084C87.4339 7.6084 88.6846 7.56966 90.1787 7.49219V8.53809H89.0498C88.1755 8.53809 87.611 8.77604 87.3564 9.25195C87.113 9.7168 86.9912 11.3659 86.9912 14.1992V20.4248C86.9912 23.2692 86.8473 25.1895 86.5596 26.1855C86.2829 27.1706 85.7682 28.0615 85.0156 28.8584C84.2741 29.6553 83.278 30.2861 82.0273 30.751C80.7878 31.2158 79.3268 31.4482 77.6445 31.4482C75.9069 31.4482 74.3851 31.2435 73.0791 30.834C71.7731 30.4134 70.7881 29.8988 70.124 29.29C69.471 28.6813 68.9951 27.9398 68.6963 27.0654C68.4085 26.18 68.2646 24.6803 68.2646 22.5664L68.2979 19.4121V14.3486C68.2979 11.2275 68.2038 9.47884 68.0156 9.10254C67.8385 8.72624 67.2575 8.53809 66.2725 8.53809H65.0938ZM98.2803 29.4893C99.3649 29.5446 100.422 29.5723 101.451 29.5723C103.532 29.5723 105.159 29.5169 106.332 29.4062C107.151 29.3177 107.998 29.1572 108.872 28.9248L109.868 25.0234H110.947C110.671 27.1152 110.455 29.0687 110.3 30.8838C109.304 31.0498 107.942 31.1328 106.216 31.1328L98.3135 31C97.251 31 95.5964 31.0609 93.3496 31.1826V30.3027C94.235 29.9154 94.7552 29.5003 94.9102 29.0576C95.0762 28.6149 95.1592 26.8607 95.1592 23.7949V14.6641C95.1592 11.3438 95.0762 9.49544 94.9102 9.11914C94.7552 8.73177 94.307 8.53809 93.5654 8.53809H91.7559V7.49219C94.39 7.56966 96.1387 7.6084 97.002 7.6084C98.153 7.6084 99.7135 7.56966 101.684 7.49219V8.53809H99.625C99.0384 8.53809 98.6676 8.70964 98.5127 9.05273C98.3577 9.38477 98.2803 10.7848 98.2803 13.2529V23.8281L98.3301 28.5098L98.2803 29.4893Z" fill="black"/>
<path d="M0.865234 54.3203C0.876953 54.1484 0.882812 54.0078 0.882812 53.8984L0.865234 53.4004L0.988281 53.3359C1.19922 53.4688 1.41406 53.5352 1.63281 53.5352C1.94531 53.5352 2.16406 53.4277 2.28906 53.2129C2.41406 53.002 2.47656 52.4336 2.47656 51.5078V46.457C2.47656 45.168 2.43945 44.4492 2.36523 44.3008C2.29102 44.1484 2.05859 44.0723 1.66797 44.0723H1.27539V43.7031C1.69727 43.7305 2.23242 43.7441 2.88086 43.7441C3.59961 43.7441 4.20898 43.7305 4.70898 43.7031V44.0723L4.32227 44.0957C4.00586 44.123 3.81445 44.1582 3.74805 44.2012C3.68555 44.2441 3.64258 44.3184 3.61914 44.4238C3.5957 44.5254 3.58398 44.8574 3.58398 45.4199V50.4648C3.58398 51.3008 3.5293 51.9004 3.41992 52.2637C3.25195 52.8418 2.93945 53.334 2.48242 53.7402C2.0293 54.1465 1.5957 54.3496 1.18164 54.3496C1.10742 54.3496 1.00195 54.3398 0.865234 54.3203ZM7.65625 48.0625V49.498L7.66211 50.3242C7.66211 50.8398 7.66797 51.2168 7.67969 51.4551C8.25 51.498 8.86133 51.5195 9.51367 51.5195C9.95117 51.5195 10.3184 51.5 10.6152 51.4609C10.8066 51.4375 11.0098 51.3867 11.2246 51.3086C11.3223 50.9648 11.4219 50.5352 11.5234 50.0195H11.916C11.8105 50.875 11.7578 51.4453 11.7578 51.7305L11.7695 51.9941C11.3203 52.0371 10.8789 52.0586 10.4453 52.0586L9.52539 52.041C8.50977 52.0137 7.76367 52 7.28711 52C6.83008 52 6.22266 52.0137 5.46484 52.041V51.6719H5.64648C5.98633 51.6719 6.19922 51.6387 6.28516 51.5723C6.375 51.5059 6.43359 51.3496 6.46094 51.1035C6.49219 50.8574 6.50781 50.3145 6.50781 49.4746V46.2578C6.50781 45.7305 6.49414 45.2988 6.4668 44.9629C6.44336 44.627 6.41602 44.4277 6.38477 44.3652C6.35742 44.2988 6.31641 44.248 6.26172 44.2129C6.20703 44.1777 6.03906 44.1465 5.75781 44.1191L5.30664 44.0723V43.709H5.93945L6.56055 43.7266C6.9082 43.7383 7.17188 43.7441 7.35156 43.7441L9.60156 43.7148L10.668 43.709C11.0312 43.7051 11.3984 43.7207 11.7695 43.7559C11.6211 44.2168 11.5391 44.8164 11.5234 45.5547H11.125C11.125 45.125 11.1035 44.7676 11.0605 44.4824C10.5996 44.3105 10.0332 44.2246 9.36133 44.2246C8.82617 44.2246 8.26562 44.248 7.67969 44.2949C7.68359 44.6621 7.67969 45.0293 7.66797 45.3965L7.65625 46.2988V47.4883C8.04297 47.5117 8.38477 47.5234 8.68164 47.5234C9.61133 47.5234 10.1367 47.4922 10.2578 47.4297C10.3828 47.3633 10.4453 47.1621 10.4453 46.8262V46.4453H10.8438C10.8164 47.0352 10.8027 47.5059 10.8027 47.8574C10.8027 48.2285 10.8164 48.666 10.8438 49.1699H10.4453V48.8301C10.4453 48.4551 10.3711 48.2266 10.2227 48.1445C10.0781 48.0586 9.5625 48.0156 8.67578 48.0156C8.34766 48.0156 8.00781 48.0312 7.65625 48.0625ZM15.7598 50.2598L17.1191 46.9082C17.3496 46.334 17.7676 45.2402 18.373 43.627H18.7422C18.9727 44.3496 19.2832 45.2637 19.6738 46.3691L21.0859 50.3418L22.1582 46.6328C22.2598 46.2773 22.4355 45.5938 22.6855 44.582C22.709 44.4922 22.7207 44.418 22.7207 44.3594C22.7207 44.2891 22.6914 44.2363 22.6328 44.2012C22.5742 44.166 22.4297 44.1367 22.1992 44.1133L21.666 44.0723V43.7031C22.2168 43.7305 22.6484 43.7441 22.9609 43.7441C23.2969 43.7441 23.7129 43.7305 24.209 43.7031V44.0723H23.9043C23.7715 44.0723 23.6719 44.1035 23.6055 44.166C23.4805 44.2949 23.1836 45.1152 22.7148 46.627C22.0938 48.6426 21.5781 50.4785 21.168 52.1348H20.5586C20.4883 51.873 20.4297 51.6777 20.3828 51.5488C20.2109 51.0449 19.8125 49.9355 19.1875 48.2207L18.2266 45.584L17.1309 48.2383C16.4746 49.8242 15.9883 51.123 15.6719 52.1348H15.0801L14.7695 50.6934C14.6836 50.2676 14.584 49.8145 14.4707 49.334L13.4512 44.9512C13.3535 44.5215 13.2656 44.2676 13.1875 44.1895C13.1094 44.1113 12.9473 44.0723 12.7012 44.0723H12.4551V43.7031C13.0137 43.7305 13.4961 43.7441 13.9023 43.7441C14.2969 43.7441 14.8301 43.7305 15.502 43.7031V44.0723H15.1328C14.8672 44.0723 14.6934 44.0957 14.6113 44.1426C14.5332 44.1895 14.4941 44.2656 14.4941 44.3711C14.4941 44.4336 14.5039 44.5059 14.5234 44.5879L14.9277 46.5332L15.7598 50.2598ZM26.9922 48.0625V49.498L26.998 50.3242C26.998 50.8398 27.0039 51.2168 27.0156 51.4551C27.5859 51.498 28.1973 51.5195 28.8496 51.5195C29.2871 51.5195 29.6543 51.5 29.9512 51.4609C30.1426 51.4375 30.3457 51.3867 30.5605 51.3086C30.6582 50.9648 30.7578 50.5352 30.8594 50.0195H31.252C31.1465 50.875 31.0938 51.4453 31.0938 51.7305L31.1055 51.9941C30.6562 52.0371 30.2148 52.0586 29.7812 52.0586L28.8613 52.041C27.8457 52.0137 27.0996 52 26.623 52C26.166 52 25.5586 52.0137 24.8008 52.041V51.6719H24.9824C25.3223 51.6719 25.5352 51.6387 25.6211 51.5723C25.7109 51.5059 25.7695 51.3496 25.7969 51.1035C25.8281 50.8574 25.8438 50.3145 25.8438 49.4746V46.2578C25.8438 45.7305 25.8301 45.2988 25.8027 44.9629C25.7793 44.627 25.752 44.4277 25.7207 44.3652C25.6934 44.2988 25.6523 44.248 25.5977 44.2129C25.543 44.1777 25.375 44.1465 25.0938 44.1191L24.6426 44.0723V43.709H25.2754L25.8965 43.7266C26.2441 43.7383 26.5078 43.7441 26.6875 43.7441L28.9375 43.7148L30.0039 43.709C30.3672 43.7051 30.7344 43.7207 31.1055 43.7559C30.957 44.2168 30.875 44.8164 30.8594 45.5547H30.4609C30.4609 45.125 30.4395 44.7676 30.3965 44.4824C29.9355 44.3105 29.3691 44.2246 28.6973 44.2246C28.1621 44.2246 27.6016 44.248 27.0156 44.2949C27.0195 44.6621 27.0156 45.0293 27.0039 45.3965L26.9922 46.2988V47.4883C27.3789 47.5117 27.7207 47.5234 28.0176 47.5234C28.9473 47.5234 29.4727 47.4922 29.5938 47.4297C29.7188 47.3633 29.7812 47.1621 29.7812 46.8262V46.4453H30.1797C30.1523 47.0352 30.1387 47.5059 30.1387 47.8574C30.1387 48.2285 30.1523 48.666 30.1797 49.1699H29.7812V48.8301C29.7812 48.4551 29.707 48.2266 29.5586 48.1445C29.4141 48.0586 28.8984 48.0156 28.0117 48.0156C27.6836 48.0156 27.3438 48.0312 26.9922 48.0625ZM34.2695 51.4668C34.6523 51.4863 35.0254 51.4961 35.3887 51.4961C36.123 51.4961 36.6973 51.4766 37.1113 51.4375C37.4004 51.4062 37.6992 51.3496 38.0078 51.2676L38.3594 49.8906H38.7402C38.6426 50.6289 38.5664 51.3184 38.5117 51.959C38.1602 52.0176 37.6797 52.0469 37.0703 52.0469L34.2812 52C33.9062 52 33.3223 52.0215 32.5293 52.0645V51.7539C32.8418 51.6172 33.0254 51.4707 33.0801 51.3145C33.1387 51.1582 33.168 50.5391 33.168 49.457V46.2344C33.168 45.0625 33.1387 44.4102 33.0801 44.2773C33.0254 44.1406 32.8672 44.0723 32.6055 44.0723H31.9668V43.7031C32.8965 43.7305 33.5137 43.7441 33.8184 43.7441C34.2246 43.7441 34.7754 43.7305 35.4707 43.7031V44.0723H34.7441C34.5371 44.0723 34.4062 44.1328 34.3516 44.2539C34.2969 44.3711 34.2695 44.8652 34.2695 45.7363V49.4688L34.2871 51.1211L34.2695 51.4668ZM43.627 47.8105C44.0098 48.3613 44.4844 49.002 45.0508 49.7324L46.1758 51.1914C46.375 51.4414 46.5078 51.584 46.5742 51.6191C46.6406 51.6543 46.709 51.6719 46.7793 51.6719H46.9316V52.041C46.6074 52.0137 46.3242 52 46.082 52C45.8594 52 45.625 52.0137 45.3789 52.041L43.3047 49.2402C42.918 48.7246 42.5039 48.2207 42.0625 47.7285L42.1211 47.5293C42.3477 47.5488 42.5156 47.5586 42.625 47.5586C43.2773 47.5586 43.7871 47.3906 44.1543 47.0547C44.5254 46.7188 44.7109 46.2695 44.7109 45.707C44.7109 45.2031 44.5547 44.8105 44.2422 44.5293C43.9297 44.2441 43.4785 44.1016 42.8887 44.1016C42.4785 44.1016 42.0664 44.1777 41.6523 44.3301C41.6055 44.9512 41.582 45.6152 41.582 46.3223V49.1523C41.582 50.5312 41.6152 51.2969 41.6816 51.4492C41.748 51.5977 41.9629 51.6719 42.3262 51.6719H42.7832V52.041C42.1348 52.0137 41.5977 52 41.1719 52C40.8359 52 40.2285 52.0137 39.3496 52.041V51.6719H39.7891C40.125 51.6719 40.3242 51.5996 40.3867 51.4551C40.4492 51.3066 40.4805 50.5352 40.4805 49.1406V46.3223C40.4805 45.1113 40.4434 44.4336 40.3691 44.2891C40.2988 44.1445 40.0645 44.0723 39.666 44.0723H39.3496V43.6973C40.0762 43.7285 40.6309 43.7441 41.0137 43.7441C41.2715 43.7441 41.6426 43.7344 42.127 43.7148C42.6895 43.6953 43.0938 43.6855 43.3398 43.6855C44.0156 43.6855 44.5273 43.7578 44.875 43.9023C45.2266 44.043 45.4922 44.248 45.6719 44.5176C45.8555 44.7871 45.9473 45.1094 45.9473 45.4844C45.9473 46.0352 45.748 46.5215 45.3496 46.9434C44.9551 47.3652 44.3809 47.6543 43.627 47.8105ZM51.373 47.916C51.6113 47.5566 51.9883 46.9316 52.5039 46.041L53.8457 43.709H54.7539V43.8555C54.2773 44.3906 53.6934 45.1973 53.002 46.2754C52.3105 47.3535 51.8965 48.0762 51.7598 48.4434C51.7129 48.5723 51.6895 48.9023 51.6895 49.4336C51.6895 50.1406 51.707 50.7012 51.7422 51.1152C51.7656 51.3379 51.8047 51.4727 51.8594 51.5195C51.918 51.5625 52.1191 51.5996 52.4629 51.6309L52.9082 51.6777V52.041C52.2285 52.0137 51.6973 52 51.3145 52L49.4277 52.041V51.6777H49.9258C50.2578 51.6777 50.457 51.6094 50.5234 51.4727C50.5898 51.3359 50.623 50.7188 50.623 49.6211C50.623 49.3008 50.6133 48.9512 50.5938 48.5723C50.0898 47.6465 49.625 46.8457 49.1992 46.1699C48.7734 45.4941 48.4141 45 48.1211 44.6875C47.9609 44.5156 47.8203 44.4023 47.6992 44.3477C47.582 44.293 47.3828 44.2656 47.1016 44.2656V43.9023C47.2617 43.8711 47.5762 43.8086 48.0449 43.7148L48.5078 43.6211C48.6875 43.6875 48.832 43.7715 48.9414 43.873C49.1367 44.0566 49.4355 44.4766 49.8379 45.1328C50.1465 45.6367 50.6582 46.5645 51.373 47.916ZM64.1699 49.2285H60.7832L60.3848 50.1719C60.123 50.7969 59.9922 51.1797 59.9922 51.3203C59.9922 51.4102 60.0156 51.4746 60.0625 51.5137C60.1133 51.5527 60.2383 51.584 60.4375 51.6074L61 51.6719V52.041C60.625 52.0137 60.2031 52 59.7344 52C59.1719 52 58.6777 52.0137 58.252 52.041V51.6719L58.4277 51.666C58.7012 51.6582 58.877 51.6309 58.9551 51.584C59.0371 51.5332 59.123 51.4121 59.2129 51.2207C59.4902 50.6582 59.7734 50.0508 60.0625 49.3984L61.6738 45.748C62.1035 44.7793 62.3965 44.0762 62.5527 43.6387H62.9512L65.916 50.5352C66.1152 51.0039 66.248 51.2871 66.3145 51.3848C66.3809 51.4785 66.457 51.5469 66.543 51.5898C66.6289 51.6289 66.8223 51.6562 67.123 51.6719V52.041C66.6152 52.0137 66.1309 52 65.6699 52C65.2402 52 64.668 52.0137 63.9531 52.041V51.6719L64.5332 51.6367C64.7402 51.6211 64.8633 51.5996 64.9023 51.5723C64.9609 51.5293 64.9902 51.4746 64.9902 51.4082C64.9902 51.3379 64.9316 51.1543 64.8145 50.8574L64.1699 49.2285ZM61 48.748H63.9531L62.4766 45.2207L61 48.748ZM69.2969 45.0273V49.0762C69.2969 49.998 69.3145 50.6406 69.3496 51.0039C69.377 51.2812 69.4219 51.4512 69.4844 51.5137C69.5508 51.5723 69.7383 51.6152 70.0469 51.6426L70.4219 51.6719V52.041C69.9961 52.0137 69.6113 52 69.2676 52C69.0293 52 68.4824 52.0137 67.627 52.041V51.6719H68.0488C68.3027 51.6719 68.4688 51.6367 68.5469 51.5664C68.625 51.4961 68.6738 51.3574 68.6934 51.1504C68.7363 50.7207 68.7578 50.1367 68.7578 49.3984V46.4863C68.7578 45.9395 68.752 45.3984 68.7402 44.8633C68.7324 44.6367 68.7012 44.4824 68.6465 44.4004C68.5957 44.3145 68.5195 44.2383 68.418 44.1719C68.3164 44.1055 68.1738 44.0723 67.9902 44.0723H67.627V43.7031C68.123 43.7305 68.502 43.7441 68.7637 43.7441C69.0449 43.7441 69.3535 43.7305 69.6895 43.7031C70.0762 44.1758 70.4395 44.6367 70.7793 45.0859C71.123 45.5312 71.4785 45.9805 71.8457 46.4336L73.8496 48.8945C74.5723 49.7773 75.0938 50.3906 75.4141 50.7344V46.9727C75.4141 45.3984 75.3848 44.5391 75.3262 44.3945C75.2715 44.2461 75.0469 44.1523 74.6523 44.1133L74.2129 44.0723V43.7031C74.8418 43.7305 75.3301 43.7441 75.6777 43.7441C76.041 43.7441 76.5098 43.7305 77.084 43.7031V44.0723H76.6328C76.2695 44.0723 76.0605 44.1934 76.0059 44.4355C75.9707 44.5957 75.9531 45.4512 75.9531 47.002V49.6445C75.9531 50.3555 75.9844 51.2051 76.0469 52.1934C75.5156 52.1113 75.207 52.0508 75.1211 52.0117C75.0352 51.9766 74.9531 51.916 74.875 51.8301C74.4414 51.3496 73.9863 50.8164 73.5098 50.2305L69.2969 45.0273ZM78.6367 51.4551C78.6992 50.8496 78.7305 49.791 78.7305 48.2793V46.5801C78.7305 45.8848 78.707 45.2852 78.6602 44.7812C78.6328 44.4883 78.5957 44.3184 78.5488 44.2715C78.5059 44.2246 78.3457 44.1816 78.0684 44.1426L77.5996 44.0723V43.7031C78.2441 43.7227 78.6777 43.7324 78.9004 43.7324L80.4766 43.7207L81.7598 43.6973C82.2754 43.6895 82.8047 43.7402 83.3477 43.8496C83.8906 43.959 84.3828 44.1797 84.8242 44.5117C85.2656 44.8398 85.6016 45.2539 85.832 45.7539C86.0625 46.25 86.1777 46.8242 86.1777 47.4766C86.1777 48.7969 85.7324 49.8887 84.8418 50.752C83.9551 51.6152 82.7949 52.0469 81.3613 52.0469L80.6406 52.0293C79.9336 52.002 79.4863 51.9883 79.2988 51.9883C78.9824 51.9883 78.5801 52.0117 78.0918 52.0586V51.7773L78.6367 51.4551ZM79.9023 51.4258C80.4297 51.5039 80.8945 51.543 81.2969 51.543C82.3906 51.543 83.2402 51.2617 83.8457 50.6992C84.5762 50.0156 84.9414 49.0195 84.9414 47.7109C84.9414 46.5703 84.6367 45.7012 84.0273 45.1035C83.4219 44.5059 82.5332 44.207 81.3613 44.207C80.9512 44.207 80.4648 44.248 79.9023 44.3301C79.8555 44.7051 79.832 45.1309 79.832 45.6074V49.4395C79.832 50.1465 79.8555 50.8086 79.9023 51.4258ZM92.2305 51.4668C92.6133 51.4863 92.9863 51.4961 93.3496 51.4961C94.084 51.4961 94.6582 51.4766 95.0723 51.4375C95.3613 51.4062 95.6602 51.3496 95.9688 51.2676L96.3203 49.8906H96.7012C96.6035 50.6289 96.5273 51.3184 96.4727 51.959C96.1211 52.0176 95.6406 52.0469 95.0312 52.0469L92.2422 52C91.8672 52 91.2832 52.0215 90.4902 52.0645V51.7539C90.8027 51.6172 90.9863 51.4707 91.041 51.3145C91.0996 51.1582 91.1289 50.5391 91.1289 49.457V46.2344C91.1289 45.0625 91.0996 44.4102 91.041 44.2773C90.9863 44.1406 90.8281 44.0723 90.5664 44.0723H89.9277V43.7031C90.8574 43.7305 91.4746 43.7441 91.7793 43.7441C92.1855 43.7441 92.7363 43.7305 93.4316 43.7031V44.0723H92.7051C92.498 44.0723 92.3672 44.1328 92.3125 44.2539C92.2578 44.3711 92.2305 44.8652 92.2305 45.7363V49.4688L92.248 51.1211L92.2305 51.4668ZM97.2402 47.8691C97.2402 46.584 97.6543 45.5488 98.4824 44.7637C99.3105 43.9785 100.414 43.5859 101.793 43.5859C103.145 43.5859 104.203 43.9512 104.969 44.6816C105.738 45.4082 106.123 46.375 106.123 47.582C106.123 48.8828 105.678 49.9707 104.787 50.8457C103.896 51.7207 102.773 52.1582 101.418 52.1582C100.57 52.1582 99.8398 51.9863 99.2266 51.6426C98.6133 51.2988 98.1289 50.7969 97.7734 50.1367C97.418 49.4766 97.2402 48.7207 97.2402 47.8691ZM98.4297 47.3887C98.4297 48.2715 98.5801 49.041 98.8809 49.6973C99.1855 50.3496 99.5918 50.8398 100.1 51.168C100.607 51.4922 101.188 51.6543 101.84 51.6543C102.445 51.6543 102.975 51.5156 103.428 51.2383C103.881 50.9609 104.236 50.5469 104.494 49.9961C104.756 49.4453 104.887 48.7754 104.887 47.9863C104.887 47.1582 104.742 46.4512 104.453 45.8652C104.168 45.2754 103.775 44.832 103.275 44.5352C102.775 44.2383 102.184 44.0898 101.5 44.0898C100.875 44.0898 100.336 44.2207 99.8828 44.4824C99.4297 44.7441 99.0742 45.1289 98.8164 45.6367C98.5586 46.1406 98.4297 46.7246 98.4297 47.3887ZM112.545 49.2285H109.158L108.76 50.1719C108.498 50.7969 108.367 51.1797 108.367 51.3203C108.367 51.4102 108.391 51.4746 108.438 51.5137C108.488 51.5527 108.613 51.584 108.812 51.6074L109.375 51.6719V52.041C109 52.0137 108.578 52 108.109 52C107.547 52 107.053 52.0137 106.627 52.041V51.6719L106.803 51.666C107.076 51.6582 107.252 51.6309 107.33 51.584C107.412 51.5332 107.498 51.4121 107.588 51.2207C107.865 50.6582 108.148 50.0508 108.438 49.3984L110.049 45.748C110.479 44.7793 110.771 44.0762 110.928 43.6387H111.326L114.291 50.5352C114.49 51.0039 114.623 51.2871 114.689 51.3848C114.756 51.4785 114.832 51.5469 114.918 51.5898C115.004 51.6289 115.197 51.6562 115.498 51.6719V52.041C114.99 52.0137 114.506 52 114.045 52C113.615 52 113.043 52.0137 112.328 52.041V51.6719L112.908 51.6367C113.115 51.6211 113.238 51.5996 113.277 51.5723C113.336 51.5293 113.365 51.4746 113.365 51.4082C113.365 51.3379 113.307 51.1543 113.189 50.8574L112.545 49.2285ZM109.375 48.748H112.328L110.852 45.2207L109.375 48.748ZM117.672 45.0273V49.0762C117.672 49.998 117.689 50.6406 117.725 51.0039C117.752 51.2812 117.797 51.4512 117.859 51.5137C117.926 51.5723 118.113 51.6152 118.422 51.6426L118.797 51.6719V52.041C118.371 52.0137 117.986 52 117.643 52C117.404 52 116.857 52.0137 116.002 52.041V51.6719H116.424C116.678 51.6719 116.844 51.6367 116.922 51.5664C117 51.4961 117.049 51.3574 117.068 51.1504C117.111 50.7207 117.133 50.1367 117.133 49.3984V46.4863C117.133 45.9395 117.127 45.3984 117.115 44.8633C117.107 44.6367 117.076 44.4824 117.021 44.4004C116.971 44.3145 116.895 44.2383 116.793 44.1719C116.691 44.1055 116.549 44.0723 116.365 44.0723H116.002V43.7031C116.498 43.7305 116.877 43.7441 117.139 43.7441C117.42 43.7441 117.729 43.7305 118.064 43.7031C118.451 44.1758 118.814 44.6367 119.154 45.0859C119.498 45.5312 119.854 45.9805 120.221 46.4336L122.225 48.8945C122.947 49.7773 123.469 50.3906 123.789 50.7344V46.9727C123.789 45.3984 123.76 44.5391 123.701 44.3945C123.646 44.2461 123.422 44.1523 123.027 44.1133L122.588 44.0723V43.7031C123.217 43.7305 123.705 43.7441 124.053 43.7441C124.416 43.7441 124.885 43.7305 125.459 43.7031V44.0723H125.008C124.645 44.0723 124.436 44.1934 124.381 44.4355C124.346 44.5957 124.328 45.4512 124.328 47.002V49.6445C124.328 50.3555 124.359 51.2051 124.422 52.1934C123.891 52.1113 123.582 52.0508 123.496 52.0117C123.41 51.9766 123.328 51.916 123.25 51.8301C122.816 51.3496 122.361 50.8164 121.885 50.2305L117.672 45.0273Z" fill="black"/>
</svg>
